<svg width="179" height="230" viewBox="0 0 179 230" fill="none" xmlns="http://www.w3.org/2000/svg">
<rect width="179" height="230" fill="#EDF2FA"/>
<text fill="#F25F0A" style="white-space: pre" xml:space="preserve" font-family="Antonio" font-size="73.7258" font-weight="bold" letter-spacing="0.03em"><tspan x="93.1687" y="211.858">0</tspan></text>
<text fill="#F25F0A" style="white-space: pre" xml:space="preserve" font-family="Antonio" font-size="73.7258" font-weight="bold" letter-spacing="0.01em"><tspan x="31" y="211.858">10</tspan></text>
<text fill="#F25F0A" style="white-space: pre" xml:space="preserve" font-family="Antonio" font-size="18.4315" font-weight="bold" letter-spacing="0.03em"><tspan x="129.301" y="211.955">&#xff05;</tspan></text>
<path d="M62.6401 119.529L63.2599 121.284C63.4258 121.755 63.4956 122.262 63.452 122.768L63.3472 124.147C63.2861 124.968 62.7623 125.693 61.994 125.989C61.479 126.19 60.8591 126.347 60.1956 126.347C59.1829 127.168 57.1488 129.062 53.0282 129.15C50.8195 129.193 50.6885 126.723 51.8234 125.37C52.3909 124.697 53.2028 124.278 54.0147 123.929C56.2496 122.969 57.1401 121.712 58.1266 119.451C60.4401 119.224 62.6401 119.538 62.6401 119.538V119.529Z" fill="#558BBF"/>
<path d="M51.2026 112.519L51.8224 114.274C51.9883 114.745 52.0581 115.252 52.0145 115.758L51.9097 117.138C51.8486 117.958 51.3248 118.683 50.5565 118.98C50.0415 119.18 49.4216 119.338 48.7581 119.338C47.7454 120.158 45.7113 122.053 41.5907 122.14C39.382 122.184 39.251 119.713 40.3859 118.36C40.9534 117.688 41.7653 117.268 42.5772 116.919C44.8121 115.959 45.7026 114.702 46.6891 112.441C49.0026 112.214 51.2026 112.528 51.2026 112.528V112.519Z" fill="#558BBF"/>
<path d="M62.0008 96.2806L62.7341 72.3688L62.2976 66.8164C62.2976 66.8164 59.7135 69.1735 51.9786 69.4267C45.6231 69.6362 42.4453 67.3228 42.4453 67.3228L44.2786 91.1822L45.9199 114.038C45.9199 114.038 46.8366 114.754 48.731 114.71C50.8786 114.657 51.8826 113.662 51.8826 113.662L51.158 93.5131L52.0659 75.9394L55.104 94.1679L57.3738 119.45C57.3738 119.45 58.4651 120.411 60.2373 120.419C62.0357 120.419 63.1706 119.494 63.1706 119.494L61.9921 96.2806H62.0008Z" fill="#558BBF"/>
<path d="M62.7967 68.5797L63.0324 59.2821L62.9539 41.0274C63.1721 39.4472 62.3951 37.8496 60.4571 37.1076C55.996 35.3877 50.7754 33.2401 42.6651 36.3044C41.5563 36.7234 41.1897 37.9631 40.8492 39.0107C40.4389 40.2591 40.2817 41.6036 40.3952 42.9218L40.596 45.1917C40.8492 49.5131 41.1024 53.8345 41.3468 58.1646C41.504 60.9059 41.7921 63.6035 42.1413 66.336C42.2984 67.5408 42.3159 69.3916 42.3159 69.3916C42.3159 69.3916 44.9 71.3559 52.2595 71.2074C60.2737 71.0416 62.7967 68.5971 62.7967 68.5971V68.5797Z" fill="#9CDBDC"/>
<path d="M51.2059 30.5965C52.6027 30.5529 53.371 31.3124 53.3884 31.9933L54.2352 36.533C54.1916 37.3274 52.8733 38.0084 51.2845 38.052C49.6956 38.1044 48.4384 37.5021 48.4734 36.7076L49.0146 31.9235C49.0496 31.2251 49.8091 30.6402 51.2059 30.5965Z" fill="#F3B7BA"/>
<path d="M51.4292 19.4554C55.4014 19.3594 56.5974 22.3102 56.7109 25.9332C56.8593 30.6474 53.8038 32.2014 52.2236 32.7165C50.303 33.345 47.9022 33.9212 46.3133 30.2546C45.3617 28.072 45.2744 24.2308 45.7197 22.7205C46.1038 21.411 47.4657 19.5514 51.4379 19.4554H51.4292Z" fill="#F9C3C0"/>
<path d="M47.8886 22.6679C47.8886 22.6679 49.268 24.9028 52.7426 26.0639C53.7116 26.4044 53.7553 27.6615 53.7553 27.6615C53.7553 27.6615 55.6061 27.7576 55.8069 29.9576C57.5267 28.5084 60.3378 21.6989 55.5188 19.5425C55.5188 19.5425 52.987 16.26 47.3212 19.2719C45.4529 20.2671 43.7855 22.6504 45.4704 25.6711C45.4704 25.6711 45.9156 23.5933 47.8886 22.6679Z" fill="#316EA9"/>
<path d="M54.2499 27.8194C54.2499 27.8194 54.2761 26.475 55.4372 26.6147C56.4325 26.7369 56.4237 27.3742 56.1793 28.5091C55.9261 29.644 55.2626 30.194 54.5642 30.1853C53.8658 30.1766 54.2499 27.8282 54.2499 27.8282V27.8194Z" fill="#F9C3C0"/>
<path d="M46.6063 36.8888C46.6586 38.6523 48.7102 40.023 51.1809 39.9444C53.6515 39.8658 55.6158 38.373 55.5546 36.6095C55.5372 36.1293 55.3713 35.6841 55.1007 35.2825C52.857 34.7063 50.334 34.4619 47.3309 35.0643C46.8594 35.5881 46.5888 36.2166 46.6063 36.8888Z" fill="#F3B7BA"/>
<path d="M41.091 64.5123C40.8291 64.4861 40.5585 64.4511 40.2966 64.425C39.8775 64.3813 39.4497 64.3289 39.0394 64.4511C38.6378 64.5734 38.2624 64.8964 38.2188 65.3154C38.1839 65.6559 38.3847 65.9877 38.6466 66.2059C38.9172 66.4242 39.249 66.5376 39.5807 66.6337C40.5236 66.913 41.5013 67.0876 42.4878 67.1488C42.7235 67.1662 42.968 67.1662 43.16 67.044C43.3608 66.913 43.4656 66.6773 43.5442 66.4503C43.972 65.2107 44.0505 63.875 44.1204 62.5567C44.164 61.7099 44.2077 60.8194 43.8585 60.0424C43.3783 58.9861 41.7283 57.8075 41.1958 59.1869C41.0212 59.6409 40.7243 64.4773 41.0997 64.5123H41.091Z" fill="#F9C3C0"/>
<path d="M41.4799 64.9482C41.2006 64.8696 40.9125 64.7648 40.7117 64.5553C40.6506 64.4942 40.5982 64.4156 40.5196 64.372C40.4672 64.337 40.3974 64.3196 40.3276 64.3109C39.9172 64.2236 39.4982 64.1974 39.0791 64.2236C38.826 64.241 38.5553 64.2847 38.3545 64.4331C38.1799 64.5728 38.0839 64.7823 38.0315 64.9918C37.953 65.3672 38.0228 65.7688 38.2236 66.1005C38.5641 66.6418 39.2101 66.9386 39.8299 67.1394C40.4323 67.3315 41.0434 67.4799 41.672 67.5585C42.1871 67.6283 42.7545 67.637 43.1648 67.3489C43.418 67.1656 43.5839 66.895 43.7236 66.6243C43.9418 66.214 44.3347 65.3759 43.6101 65.3061C42.8767 65.2275 42.1609 65.1489 41.4537 64.9482H41.4799Z" fill="#9CDBDC"/>
<path d="M45.1038 36.0518C45.1038 36.0518 43.4625 36.366 42.6681 36.7065C41.4372 37.2303 40.2848 37.7716 39.3157 41.5692C38.3467 45.3668 38.0586 54.612 38.0586 54.612L43.8729 55.7644C43.8729 55.7644 47.3911 41.5605 47.0681 39.4652C46.7451 37.3613 45.0951 36.0518 45.0951 36.0518H45.1038Z" fill="#9CDBDC"/>
<path d="M53.1827 27.6179C53.1827 27.6179 53.0867 26.2822 54.2478 26.3171C55.243 26.3433 55.5049 26.998 55.3653 28.1329C55.2256 29.2766 54.3962 29.8615 53.7153 29.9226C53.0343 29.9837 53.1915 27.6179 53.1915 27.6179H53.1827Z" fill="#F9C3C0"/>
<path d="M48.4731 41.0722C48.4731 41.0722 53.2834 39.3524 53.8771 36.131C53.8771 35.8865 53.8334 35.6508 53.7548 35.4326C51.9477 34.935 49.9136 34.7778 47.2771 35.3627C47.1898 35.6072 47.1374 35.8604 47.1374 36.131C46.8057 38.9683 48.4731 41.0722 48.4731 41.0722Z" fill="#F9C3C0"/>
<path d="M58.7905 36.9678C58.7905 36.9678 60.4318 37.2821 61.2262 37.6225C62.4572 38.1463 63.6096 38.6876 64.5786 42.4852C65.5477 46.2828 62.9461 57.0732 62.9461 57.0732L56.6953 56.3225C56.6953 56.3225 57.4025 42.9741 57.7255 40.8789C58.0485 38.7749 58.7818 36.9765 58.7818 36.9765L58.7905 36.9678Z" fill="#9CDBDC"/>
<path d="M44.2362 34.7773C43.5465 34.7773 42.9616 34.9432 42.5513 35.3447C41.3902 36.5059 42.9878 37.632 43.9394 38.182C44.6902 38.6185 45.7029 38.7844 46.4013 39.2646C47.0997 39.7447 47.6061 40.6701 48.1299 41.3511C48.2346 41.482 48.3394 41.6217 48.4878 41.709C49.291 42.2066 50.8187 40.3646 51.3251 39.8582C52.1195 39.0725 52.4862 37.4138 51.133 36.9336C49.6751 36.4185 46.4449 34.7686 44.2362 34.7686V34.7773Z" fill="#9CDBDC"/>
<path d="M60.6631 30.7186C60.4536 29.7408 59.1615 28.4662 56.1496 28.1258C53.1377 27.7853 52.0901 29.8456 51.7322 32.4559C51.5314 33.94 51.6623 34.6297 52.448 35.59C52.6663 35.8607 53.3298 36.2884 53.2076 36.5678C52.8584 37.3186 52.2385 38.6718 52.2385 38.6718C52.1512 39.1345 52.9195 39.7456 53.9496 40.0337C54.9798 40.3218 55.879 40.1821 55.9663 39.7106L56.4377 37.1527C57.8607 37.3535 59.3361 37.5718 60.0869 35.9392C60.8202 34.3591 60.8988 31.8273 60.6631 30.7099V30.7186Z" fill="#F3B7BA"/>
<path d="M51.0644 34.4097C51.1954 34.6105 51.4922 34.7153 51.6406 34.9248C51.7279 35.0558 51.7541 35.2216 51.824 35.3613C52.0247 35.7192 52.4525 35.9462 52.8279 36.0335C53.0287 36.0859 53.212 36.1819 53.4216 36.1907C53.762 36.1994 54.0851 35.9375 54.4255 35.9812C54.6962 36.0161 54.9493 36.2431 55.2025 36.1645C55.4382 36.0859 55.5517 35.7716 55.7962 35.728C55.9009 35.7105 56.0057 35.7367 56.1192 35.7367C56.4509 35.7367 56.3025 35.501 56.2414 35.3177C56.1716 35.082 56.1366 34.82 56.1716 34.5756C56.2763 33.8423 56.5906 33.0915 57.2454 33.0478C57.5684 33.0304 57.7692 33.2224 57.8477 33.5193C57.8827 33.6677 57.9001 33.8248 57.9001 33.982C57.9001 34.0081 57.8827 34.1304 57.9001 34.174C57.9001 34.174 57.9001 34.1827 57.9001 34.1915C57.9874 34.2526 57.9962 34.0693 57.9962 34.0343C58.0223 33.8335 58.2755 33.7724 58.3977 33.6153C58.5811 33.3796 58.4589 32.9693 58.6946 32.7859C58.7906 32.7161 58.9215 32.6986 59.0088 32.6201C59.1573 32.4978 59.1573 32.2447 59.3144 32.1224C59.4541 32.0089 59.6461 32.0351 59.8295 32.0526C59.9954 32.0613 60.1612 32.0526 60.3096 31.9828C60.6588 31.8169 60.816 31.2756 60.7985 30.9177C60.7985 30.8391 60.7811 30.7518 60.7898 30.6732C60.7985 30.5423 60.8596 30.4201 60.8858 30.2978C60.9382 30.0359 60.8422 29.7566 60.6501 29.5732C60.5104 29.4423 60.4319 29.3201 60.3271 29.1629C59.9954 28.6653 59.6723 28.2113 59.1223 27.9494C59.0961 27.932 59.0612 27.9232 59.0438 27.8971C59.0176 27.8709 59.0176 27.8272 59.0088 27.7923C58.9652 27.6177 58.7731 27.5304 58.5985 27.478C58.4239 27.4256 58.2319 27.3558 58.1533 27.1986C58.1096 27.1026 58.1096 26.9891 58.0573 26.8931C57.9962 26.7709 57.8477 26.701 57.7081 26.6923C57.5684 26.6748 57.4287 26.6923 57.289 26.6923C57.0096 26.6836 56.739 26.5701 56.4684 26.5177C55.77 26.378 54.9493 26.6486 54.3732 27.0415C54.312 27.0852 54.0501 27.0415 53.9716 27.059C53.8232 27.0764 53.6835 27.1026 53.5438 27.1463C53.2644 27.2248 52.9763 27.3471 52.7406 27.5217C52.2779 27.8796 51.693 28.1502 51.4573 28.7351C51.4049 28.8661 51.37 29.0058 51.3001 29.128C51.2303 29.2502 51.0994 29.355 50.9597 29.3375C50.9073 29.3375 50.8636 29.3201 50.8113 29.3288C50.7065 29.3463 50.6628 29.4772 50.689 29.5732C50.7152 29.6693 50.7938 29.7478 50.8636 29.8264C50.9335 29.905 50.9946 30.001 50.9859 30.097C50.9771 30.3415 50.6017 30.455 50.6105 30.6994C50.6279 30.9526 50.8898 31.0224 50.6978 31.2756C50.6192 31.3804 50.5581 31.3542 50.5843 31.5026C50.6105 31.6423 50.7327 31.8169 50.7851 31.9566C50.8549 32.1399 50.9073 32.3232 50.8898 32.524C50.8724 32.6724 50.8898 32.8121 50.8724 32.9518C50.8549 33.1264 50.7851 33.2312 50.8724 33.4058C50.9248 33.5105 51.0208 33.5978 51.047 33.7113C51.0906 33.8947 50.9597 34.0867 50.9859 34.2788C50.9859 34.3399 51.0121 34.3835 51.0382 34.4272L51.0644 34.4097Z" fill="#316EA9"/>
<path d="M48.087 54.726C49.3616 55.4418 50.9505 55.6688 52.4434 55.7212C53.7616 55.7648 55.6386 55.0315 56.8259 54.3069C58.0044 53.5823 58.6156 52.3601 58.633 51.1815C58.6679 48.3355 59.1568 45.4982 59.1219 42.6522C59.087 39.8236 56.887 38.776 54.6259 37.903C53.3687 37.4141 52.0243 37.0475 50.6711 36.9602C47.991 36.7943 47.9823 41.7006 47.6069 43.6125C46.9521 46.9474 46.3934 49.0863 46.3672 52.4387C46.3672 52.6657 46.3672 52.9014 46.437 53.1196C46.5069 53.3466 46.6553 53.5474 46.8212 53.722C47.1878 54.1323 47.6243 54.4641 48.0958 54.7347L48.087 54.726Z" fill="#558BBF"/>
<path d="M61.5916 47.1132C61.74 47.2092 61.9059 47.2878 62.0717 47.3402C62.6479 47.5148 63.259 47.6195 63.7567 47.9425C64.3154 48.3092 64.6908 48.9552 64.7257 49.6274C64.9352 53.2854 59.6099 51.0679 58.6059 49.3306C57.0519 46.6505 56.3448 45.2449 55.6551 42.6259C55.4281 41.7616 56.013 40.4695 56.7289 40.0942C57.6194 39.6227 58.763 39.8323 59.0773 40.8013C59.6186 42.556 59.9416 46.0568 61.5829 47.1132H61.5916Z" fill="#558BBF"/>
<path d="M46.2368 45.3064C46.2368 45.3064 46.6908 44.3898 46.9003 44.0144C47.1273 43.604 47.3892 43.2112 47.6773 42.8445C48.2011 42.1636 48.8035 41.5612 49.4757 41.0374C49.5193 41.0025 49.5542 40.9763 49.5979 40.9414C50.1915 40.4961 50.855 40.1644 51.4836 39.789C51.6495 39.6929 51.859 39.4834 52.0773 39.5882C52.086 39.5882 52.2606 39.7191 52.2344 39.7279C52.2344 39.7279 52.6185 39.5183 52.8019 39.658C52.9503 39.7715 53.0201 39.9548 52.8542 40.2255C52.8542 40.2255 53.0987 40.0858 53.282 40.1993C53.4653 40.3128 53.4217 40.531 53.378 40.6358C53.3344 40.7406 52.9153 41.3866 52.9153 41.3866C52.9153 41.3866 53.1161 41.1858 53.2733 41.2556C54.1114 41.6572 52.3042 43.185 51.9987 43.3858C51.8066 43.508 51.6058 43.6128 51.44 43.7786C51.213 44.0056 51.0907 44.3112 50.9423 44.5993C50.6193 45.2453 50.1654 45.8128 49.6328 46.2755C49.1265 46.712 48.4892 46.7556 48.0265 47.2358L42.3257 57.0048C41.6971 58.0873 39.1392 58.1048 38.4408 57.4326C37.8035 56.8214 38.0654 54.3072 38.5892 53.6L46.2455 45.2977L46.2368 45.3064Z" fill="#FACDCB"/>
<path d="M47.66 61.6044C49.2489 61.325 50.8552 61.1766 52.4615 61.0718C53.6663 60.9933 54.8623 60.871 56.0671 60.8361C57.1409 60.8099 58.3107 61.1068 59.3583 60.8099C60.2401 60.5655 60.921 59.8758 61.5321 59.1949C61.794 58.898 62.0559 58.6012 62.2393 58.2433C62.894 56.9425 61.3313 56.1655 60.3448 55.633C59.2187 55.0306 57.979 54.5679 56.7218 54.2885C55.5695 54.0354 54.3822 54.0004 53.2036 53.9742C52.1036 53.9481 50.9949 53.9219 49.8949 53.8957C49.3012 53.8782 47.1624 53.4854 46.7171 53.8346C46.1933 54.2449 46.4203 55.0044 46.0187 55.4758C45.4163 56.1917 43.7576 56.6806 42.9282 57.1258C42.3084 57.4576 41.6624 57.8068 41.2782 58.4004C40.5362 59.5528 41.1036 61.0893 41.8195 62.2591C41.8981 62.3814 41.9767 62.5123 42.0989 62.5909C42.256 62.6956 42.4568 62.6956 42.6489 62.6869C43.6005 62.6345 44.5171 62.3377 45.4425 62.0933C46.1758 61.8925 46.9266 61.7353 47.6774 61.6044H47.66Z" fill="#558BBF"/>
<path d="M55.9062 62.4083C57.8792 61.7274 59.8173 60.933 61.9213 60.5488C62.2181 60.9504 62.4102 61.3957 62.4713 61.8583C62.4887 61.9544 62.4887 62.0591 62.4451 62.1464C62.3752 62.2774 62.1919 62.3647 62.026 62.4433C59.9832 63.3861 57.853 64.1544 55.6792 64.748C55.1991 64.879 54.7888 65.106 54.3173 65.2456C53.7586 65.4115 53.1999 65.5599 52.6411 65.6909C51.515 65.9615 50.3713 66.171 49.2277 66.3194C49.1229 66.3369 49.0181 66.3456 48.9221 66.3107C48.7912 66.2583 48.7126 66.1361 48.6078 66.0401C48.311 65.7694 47.8483 65.8131 47.4555 65.8655C46.6086 65.9877 45.7443 66.0925 44.8888 66.0837C44.4348 66.0837 43.9547 66.0226 43.6055 65.7345C43.7102 65.4115 44.4523 65.3591 44.7404 65.2806C45.238 65.1409 45.7443 65.0187 46.242 64.9052C47.2634 64.6694 48.2935 64.4774 49.315 64.2504C51.5673 63.7615 53.7848 63.1417 55.9149 62.3996L55.9062 62.4083Z" fill="#9CDBDC"/>
<path d="M62.6522 63.9273C62.9141 63.9011 63.1847 63.8662 63.4466 63.84C63.8657 63.7963 64.2935 63.744 64.7038 63.8662C65.1054 63.9884 65.4808 64.3114 65.5244 64.7305C65.5593 65.0709 65.3585 65.4027 65.0966 65.6209C64.826 65.8392 64.4943 65.9527 64.1625 66.0487C63.2197 66.3281 62.2419 66.5027 61.2554 66.5638C61.0197 66.5813 60.7752 66.5813 60.5832 66.459C60.3824 66.3281 60.2776 66.0924 60.199 65.8654C59.7713 64.6257 59.6927 63.29 59.6229 61.9718C59.5792 61.1249 59.5355 60.2345 59.8848 59.4575C60.3649 58.4011 62.0149 57.2226 62.5474 58.6019C62.722 59.0559 63.0189 63.8924 62.6435 63.9273H62.6522Z" fill="#F9C3C0"/>
<path d="M62.2665 64.3632C62.5459 64.2846 62.834 64.1799 63.0348 63.9703C63.0959 63.9092 63.1483 63.8307 63.2268 63.787C63.2792 63.7521 63.3491 63.7346 63.4189 63.7259C63.8292 63.6386 64.2483 63.6124 64.6673 63.6386C64.9205 63.6561 65.1911 63.6997 65.3919 63.8481C65.5665 63.9878 65.6625 64.1973 65.7149 64.4068C65.7935 64.7822 65.7236 65.1838 65.5229 65.5156C65.1824 66.0568 64.5364 66.3537 63.9165 66.5545C63.3141 66.7465 62.703 66.8949 62.0745 66.9735C61.5594 67.0433 60.9919 67.0521 60.5816 66.764C60.3284 66.5806 60.1626 66.31 60.0229 66.0394C59.8046 65.6291 59.4118 64.791 60.1364 64.7211C60.8697 64.6426 61.5856 64.564 62.2927 64.3632H62.2665Z" fill="#558BBF"/>
<path d="M46.4269 65.1314C46.4269 65.1314 45.615 65.498 45.2658 65.6377C44.8816 65.7861 44.4975 65.9084 44.0959 66.0044C43.3713 66.179 42.6293 66.2488 41.8872 66.2314C41.8436 66.2314 41.7999 66.2314 41.7563 66.2314C41.1102 66.2052 40.4817 66.0655 39.8531 65.9695C39.6872 65.9433 39.434 65.9695 39.338 65.7774C39.338 65.7774 39.2856 65.5853 39.3118 65.5941C39.3118 65.5941 38.9364 65.5242 38.8841 65.3322C38.8404 65.175 38.9015 65.0092 39.1634 64.9219C39.1634 64.9219 38.919 64.8782 38.8579 64.7036C38.7967 64.5203 38.9452 64.4068 39.0325 64.3631C39.1198 64.3195 39.7571 64.11 39.7571 64.11C39.7571 64.11 39.5126 64.1361 39.4428 64.0052C39.1023 63.2719 41.1626 63.2369 41.4769 63.2719C41.6777 63.2981 41.8698 63.333 42.0705 63.3155C42.3499 63.2893 42.6031 63.1496 42.865 63.0361C43.4412 62.783 44.0523 62.6433 44.6721 62.6258C45.257 62.6084 45.711 62.9314 46.2872 62.8615L48.5221 62.46L48.8888 64.7822L46.4269 65.1488V65.1314Z" fill="#F9C3C0"/>
<path d="M62.9556 57.0826L61.55 61.9627L49.0136 65.3238L48.4374 61.6135L57.3246 58.7239C57.3246 58.7239 58.1191 55.7294 58.5032 53.6953L62.9556 57.0826Z" fill="#9CDBDC"/>
<path d="M127.503 113.434C127.57 113.492 127.636 113.584 127.719 113.733C128.186 114.566 128.377 115.29 128.327 116.239C128.311 116.531 128.294 116.839 128.194 117.114C128.019 117.588 127.603 117.938 127.145 118.138C126.679 118.346 126.204 118.354 125.73 118.488C125.421 118.579 125.247 118.854 124.989 119.037C124.631 119.303 124.248 119.537 123.84 119.736C122.799 120.253 121.575 120.577 120.418 120.569C119.993 120.569 119.552 120.486 119.202 120.253C118.852 120.011 118.603 119.595 118.661 119.17C118.744 118.612 119.294 118.263 119.785 117.971C120.792 117.38 121.658 116.706 122.516 115.923C123.265 115.24 123.79 114.225 124.198 113.292C125.122 113.201 126.054 113.217 126.978 113.292C127.245 113.317 127.386 113.325 127.503 113.434Z" fill="#558BBF"/>
<path d="M119.445 109.445C119.504 109.52 119.554 109.62 119.612 109.77C119.937 110.669 120.003 111.41 119.803 112.342C119.745 112.634 119.679 112.925 119.529 113.183C119.279 113.616 118.813 113.891 118.321 114.024C117.83 114.157 117.356 114.083 116.864 114.141C116.54 114.174 116.332 114.424 116.048 114.565C115.649 114.765 115.232 114.94 114.8 115.065C113.692 115.398 112.427 115.523 111.286 115.323C110.87 115.248 110.445 115.098 110.137 114.807C109.829 114.515 109.654 114.058 109.779 113.65C109.954 113.108 110.553 112.85 111.078 112.65C112.169 112.234 113.134 111.71 114.108 111.077C114.966 110.527 115.649 109.611 116.198 108.754C117.122 108.812 118.047 108.979 118.938 109.212C119.196 109.278 119.329 109.312 119.437 109.437L119.445 109.445Z" fill="#558BBF"/>
<path d="M112.981 60.521C112.981 60.521 113.68 85.5988 114.03 87.8219C114.38 90.0449 114.505 107.088 114.63 110.219C116.162 110.827 119.009 110.993 120.683 110.327C120.807 103.675 121.807 94.1996 121.265 87.7303C121.424 85.8736 121.407 75.8741 121.224 72.219C121.165 67.9561 120.957 63.485 120.957 63.485L118.043 60.3711L112.973 60.521H112.981Z" fill="#558BBF"/>
<path d="M119.344 61.7049C119.344 61.7049 121.342 87.9151 121.742 90.3879C122.142 92.8608 122.558 110.37 122.816 113.851C124.723 114.3 127.054 114.425 128.736 113.884C128.936 108.439 130.518 96.1329 129.161 89.1723C129.502 83.2776 130.509 68.9985 130.576 65.6764C130.643 63.7032 129.161 60.1396 129.161 60.1396L119.336 61.7049H119.344Z" fill="#558BBF"/>
<path d="M112.583 37.3659C113.141 36.2335 114.715 36.0504 115.489 37.0495C116.255 38.032 116.596 39.2226 116.18 41.6704L113.266 53.6348L112.084 58.414L109.078 58.8053L110.002 51.2619C110.002 51.2619 111.593 43.0609 111.651 41.5705C111.726 39.6139 112.117 38.2734 112.567 37.3659H112.583Z" fill="#F9C3C0"/>
<path d="M116.077 35.2695C116.077 35.2695 114.662 35.536 113.979 35.8274C112.921 36.277 111.931 36.7432 111.09 40.0153C110.257 43.2875 110.016 51.2554 110.016 51.2554L115.028 52.2462C115.028 52.2462 118.059 40.0153 117.775 38.2086C117.501 36.4019 116.077 35.2695 116.077 35.2695Z" fill="#F25F0A"/>
<path d="M115.114 30.3644C115.006 30.4976 114.873 30.5975 114.723 30.6725C115.372 31.2303 116.396 31.3136 117.129 30.8723C117.112 30.6308 116.971 30.4227 116.837 30.2229C116.471 29.7066 116.022 28.6992 115.497 28.3828C115.389 28.6326 115.447 28.9323 115.447 29.2071C115.439 29.6733 115.33 29.9564 115.122 30.3644H115.114Z" fill="#558BBF"/>
<path d="M131.04 65.9422L128.7 54.3441L129.275 39.6821C129.508 38.3083 128.958 36.9095 127.451 36.2268C124.004 34.6615 120.807 33.1878 114.288 35.7439C113.397 36.0936 113.422 39.8153 113.464 40.9643C113.464 40.9643 112.415 44.5694 112.515 45.5602C112.798 48.3744 112.756 50.7806 113.156 54.5356C112.756 59.0483 112.714 66.217 112.714 66.217C112.714 66.217 113.938 67.1495 119.75 67.1162C126.078 67.0829 131.032 65.9422 131.032 65.9422H131.04Z" fill="#F25F0A"/>
<path d="M120.49 30.1648C121.73 30.0982 122.421 30.756 122.454 31.3638L123.304 35.3686C123.287 36.0679 122.13 36.7007 120.714 36.784C119.307 36.8589 118.175 36.351 118.192 35.6517L118.566 31.3887C118.583 30.7726 119.241 30.2314 120.481 30.1648H120.49Z" fill="#F9C3C0"/>
<path d="M119.634 19.4413C123.372 19.0001 124.754 21.6727 125.179 25.078C124.646 29.1827 122.989 31.2309 121.549 31.8554C119.792 32.613 117.586 33.3707 115.762 30.057C114.68 28.0837 114.255 24.4702 114.538 23.0215C114.788 21.756 115.896 19.8826 119.634 19.4413Z" fill="#F9C3C0"/>
<path d="M116.587 22.7708C116.587 22.7708 117.836 23.9197 117.919 23.978C119.218 24.9022 120.633 25.3019 122.157 25.6765C122.473 25.7515 122.806 25.8347 123.089 26.0012C124.122 26.6007 123.997 27.5415 123.747 28.5823C123.672 28.8904 122.831 31.3548 122.407 31.2383C123.322 31.4881 124.313 31.7378 125.212 31.4381C124.621 29.6647 125.829 28.4741 126.361 26.9171C126.719 25.8763 126.478 24.5026 126.436 23.4035C126.37 21.4636 125.396 19.7901 123.506 19.149C123.506 19.149 120.833 16.2765 115.762 19.6152C114.089 20.7142 112.732 23.1121 114.588 25.8097C114.588 25.8097 114.83 23.8115 116.603 22.7624L116.587 22.7708Z" fill="#316EA9"/>
<path d="M123.215 27.335C123.215 27.335 123.124 26.0611 124.231 26.0944C125.18 26.1194 125.43 26.7438 125.297 27.8262C125.164 28.9169 124.373 29.4747 123.723 29.533C123.066 29.583 123.224 27.335 123.224 27.335H123.215Z" fill="#F9C3C0"/>
<path d="M118.718 40.1646C118.718 40.1646 123.305 38.5244 123.872 35.4521C123.872 35.2189 123.83 34.9941 123.755 34.786C122.032 34.3114 120.092 34.1615 117.577 34.7194C117.494 34.9525 117.444 35.194 117.444 35.4521C117.128 38.158 118.718 40.1646 118.718 40.1646Z" fill="#F9C3C0"/>
<path d="M127.756 39.7148C128.372 38.4659 130.096 38.2744 130.953 39.3734C131.794 40.4558 132.169 41.7547 131.711 44.444L129.421 57.3409L121.487 62.4031L119.422 60.0885L126.008 55.4509C126.008 55.4509 126.69 45.9593 126.757 44.3274C126.84 42.1793 127.273 40.7056 127.765 39.7148H127.756Z" fill="#F9C3C0"/>
<path d="M127.462 36.2261C127.462 36.2261 128.878 36.5009 129.56 36.7839C130.618 37.2335 131.609 37.6998 132.45 40.9719C133.282 44.244 131.043 53.5358 131.043 53.5358L125.664 52.8864C125.664 52.8864 126.272 41.3965 126.555 39.5815C126.83 37.7747 127.462 36.2178 127.462 36.2178V36.2261Z" fill="#F25F0A"/>
<path d="M100.468 65.2344C99.7357 65.6591 99.1445 66.6831 99.1445 67.5241C99.1445 68.365 99.744 68.7064 100.477 68.2817C101.209 67.8571 101.801 66.833 101.801 65.9921C101.801 65.1512 101.201 64.8098 100.468 65.2344Z" fill="#316EA9"/>
<path d="M98.9968 68.0734L99.5213 68.3814C99.2799 68.2399 99.1383 67.9485 99.13 67.5322C99.13 66.6913 99.7211 65.6672 100.454 65.2425C100.82 65.0344 101.153 65.0094 101.395 65.151L100.87 64.8429C100.629 64.7014 100.296 64.7263 99.9293 64.9345C99.1966 65.3591 98.6055 66.3832 98.6055 67.2241C98.6055 67.6404 98.7553 67.9402 98.9968 68.0734Z" fill="#558BBF"/>
<path d="M72.1109 125.889C72.9268 126.006 73.4347 126.788 73.3431 128.054C73.2183 129.91 71.8611 132.084 70.3291 132.908C70.0128 133.083 69.7047 133.174 69.4299 133.216C69.8129 133.266 70.2625 133.174 70.7454 132.908C72.2857 132.084 73.6346 129.91 73.7594 128.054C73.8594 126.58 73.16 125.756 72.1026 125.889H72.1109Z" fill="#558BBF"/>
<path d="M70.0049 133.024C69.9466 133.007 69.905 132.941 69.9217 132.883L71.8699 125.731C71.8866 125.672 71.9532 125.631 72.0115 125.647C72.0698 125.664 72.1114 125.731 72.0947 125.789L70.1465 132.941C70.1298 132.999 70.0632 133.041 70.0049 133.024Z" fill="#384249"/>
<path d="M68.1297 132.141C68.1297 132.141 68.0797 132.124 68.0631 132.108C68.0298 132.066 68.0298 132.008 68.0714 131.966L73.5249 127.304C73.5249 127.304 73.6248 127.27 73.6665 127.312C73.6998 127.354 73.6998 127.412 73.6581 127.453L68.2046 132.116C68.2046 132.116 68.1547 132.141 68.1297 132.141Z" fill="#384249"/>
<path d="M68.3108 129.677C68.2609 129.677 68.2109 129.635 68.2109 129.577C68.2109 129.527 68.2526 129.477 68.3108 129.477H73.1233V129.469C73.1732 129.469 73.2232 129.51 73.2232 129.569C73.2232 129.619 73.1815 129.669 73.1233 129.669H68.3108V129.677Z" fill="#384249"/>
<path d="M72.4217 131.076C72.4217 131.076 72.3717 131.068 72.3551 131.051L68.9248 127.621C68.9248 127.621 68.8831 127.521 68.9248 127.479C68.9664 127.438 69.0247 127.438 69.0663 127.479L72.4966 130.91C72.4966 130.91 72.5382 131.01 72.4966 131.051C72.4799 131.068 72.455 131.076 72.43 131.076H72.4217Z" fill="#384249"/>
<path d="M69.8906 130.842L70.2819 131.067C70.0821 130.95 69.9655 130.709 69.9655 130.367C69.9655 129.676 70.4484 128.835 71.0562 128.486C71.356 128.311 71.6307 128.294 71.8306 128.411L71.4392 128.186C71.2394 128.069 70.9647 128.086 70.6649 128.261C70.0655 128.61 69.5742 129.451 69.5742 130.142C69.5742 130.484 69.6991 130.725 69.8906 130.842Z" fill="#9CDBDC"/>
<path d="M72.1541 129.111C72.1541 129.802 71.6712 130.643 71.0634 130.993C70.4639 131.343 69.9727 131.06 69.9727 130.369C69.9727 129.678 70.4556 128.837 71.0634 128.487C71.6628 128.137 72.1541 128.42 72.1541 129.111Z" fill="#B0BEC3"/>
<path d="M67.7061 133.998L68.139 134.247C67.448 133.848 67.015 132.99 67.015 131.775C67.015 129.327 68.7302 126.354 70.8533 125.122C71.919 124.506 72.8848 124.448 73.5842 124.847L73.1513 124.598C72.4519 124.198 71.4861 124.256 70.4203 124.872C68.2889 126.105 66.5737 129.077 66.5821 131.525C66.5821 132.74 67.015 133.598 67.7061 133.998Z" fill="#558BBF"/>
<path d="M74.7211 127.32C74.7211 129.768 73.0059 132.749 70.8828 133.973C68.7513 135.205 67.0195 134.214 67.0195 131.766C67.0195 129.318 68.7347 126.346 70.8578 125.114C72.9893 123.882 74.7211 124.872 74.7211 127.32ZM71.0909 126.221C69.5673 127.037 68.2351 129.194 68.1019 131.025C67.977 132.865 69.1094 133.69 70.633 132.865C72.1567 132.049 73.4888 129.893 73.622 128.061C73.7469 126.221 72.6146 125.397 71.0909 126.221Z" fill="#316EA9"/>
<path d="M72.8613 131.718C72.7114 131.718 72.5532 131.668 72.4283 131.568C72.2035 131.393 72.1202 131.093 72.2035 130.819L82.8441 97.7312C82.9274 97.4814 83.1438 97.2982 83.4103 97.2566C83.6767 97.2233 83.9348 97.3398 84.0763 97.5646L96.8234 116.989C96.9233 117.147 96.965 117.339 96.915 117.522C96.8734 117.705 96.7568 117.863 96.5903 117.955L73.2026 131.618C73.0944 131.685 72.9778 131.709 72.8529 131.709L72.8613 131.718ZM83.71 99.5296L74.0685 129.528L95.2748 117.139L83.71 99.5296Z" fill="#B0BEC3"/>
<path d="M73.9896 127.062C74.8055 127.178 75.3134 127.961 75.2218 129.227C75.0969 131.083 73.7398 133.256 72.2078 134.081C71.8914 134.256 71.5834 134.347 71.3086 134.389C71.6916 134.439 72.1412 134.347 72.6241 134.081C74.1644 133.256 75.5132 131.083 75.6381 129.227C75.738 127.753 75.0386 126.929 73.9812 127.062H73.9896Z" fill="#558BBF"/>
<path d="M71.876 134.198C71.8177 134.181 71.7761 134.115 71.7928 134.056L73.741 126.904C73.7577 126.846 73.8243 126.804 73.8826 126.821C73.9409 126.838 73.9825 126.904 73.9658 126.963L72.0176 134.115C72.0009 134.173 71.9343 134.215 71.876 134.198Z" fill="#384249"/>
<path d="M69.993 133.316C69.993 133.316 69.943 133.299 69.9264 133.283C69.8931 133.241 69.8931 133.183 69.9347 133.141L75.3882 128.478C75.3882 128.478 75.4881 128.445 75.5298 128.487C75.5631 128.528 75.5631 128.587 75.5214 128.628L70.0679 133.291C70.0679 133.291 70.018 133.316 69.993 133.316Z" fill="#384249"/>
<path d="M70.186 130.852C70.136 130.852 70.0861 130.81 70.0861 130.752C70.0861 130.702 70.1277 130.652 70.186 130.652H74.9984V130.644C75.0483 130.644 75.0983 130.685 75.0983 130.743C75.0983 130.793 75.0567 130.843 74.9984 130.843H70.186V130.852Z" fill="#384249"/>
<path d="M74.2928 132.249C74.2928 132.249 74.2428 132.241 74.2262 132.224L70.7958 128.794C70.7958 128.794 70.7542 128.694 70.7958 128.652C70.8375 128.611 70.8958 128.611 70.9374 128.652L74.3677 132.083C74.3677 132.083 74.4093 132.183 74.3677 132.224C74.351 132.241 74.3261 132.249 74.3011 132.249H74.2928Z" fill="#384249"/>
<path d="M71.7617 132.017L72.153 132.241C71.9532 132.125 71.8366 131.883 71.8366 131.542C71.8366 130.851 72.3195 130.01 72.9273 129.66C73.2271 129.486 73.5018 129.469 73.7017 129.585L73.3103 129.361C73.1105 129.244 72.8358 129.261 72.536 129.436C71.9365 129.785 71.4453 130.626 71.4453 131.317C71.4453 131.659 71.5702 131.9 71.7617 132.017Z" fill="#9CDBDC"/>
<path d="M74.0173 130.285C74.0173 130.976 73.5344 131.817 72.9266 132.167C72.3272 132.517 71.8359 132.234 71.8359 131.542C71.8359 130.851 72.3188 130.011 72.9266 129.661C73.5261 129.311 74.0173 129.594 74.0173 130.285Z" fill="#B0BEC3"/>
<path d="M69.5772 135.171L70.0101 135.421C69.3191 135.022 68.8861 134.164 68.8861 132.948C68.8861 130.501 70.6013 127.528 72.7244 126.296C73.7901 125.68 74.7559 125.622 75.4553 126.021L75.0224 125.771C74.323 125.372 73.3572 125.43 72.2914 126.046C70.16 127.278 68.4448 130.251 68.4532 132.699C68.4532 133.914 68.8861 134.772 69.5772 135.171Z" fill="#558BBF"/>
<path d="M76.5922 128.503C76.5922 130.951 74.877 133.931 72.7539 135.155C70.6224 136.388 68.8906 135.397 68.8906 132.949C68.8906 130.501 70.6058 127.529 72.7289 126.296C74.8604 125.064 76.5922 126.055 76.5922 128.503ZM72.962 127.396C71.4384 128.211 70.1062 130.368 69.973 132.2C69.8481 134.04 70.9804 134.864 72.5041 134.04C74.0278 133.224 75.3599 131.067 75.4931 129.236C75.618 127.396 74.4857 126.571 72.962 127.396Z" fill="#316EA9"/>
<path d="M88.5498 141.516C88.4249 141.516 88.3 141.483 88.1834 141.408L72.4973 131.609C72.1726 131.409 72.0727 130.984 72.2808 130.659C72.4806 130.335 72.9053 130.235 73.23 130.443L88.9161 140.243C89.2408 140.442 89.3407 140.867 89.1326 141.192C88.9994 141.4 88.7746 141.516 88.5498 141.516Z" fill="#B0BEC3"/>
<path d="M89.9388 136.771C90.7547 136.887 91.2626 137.67 91.171 138.936C91.0461 140.792 89.689 142.965 88.157 143.79C87.8406 143.964 87.5326 144.056 87.2578 144.098C87.6408 144.148 88.0904 144.056 88.5733 143.79C90.1136 142.965 91.4624 140.792 91.5873 138.936C91.6872 137.462 90.9879 136.638 89.9305 136.771H89.9388Z" fill="#558BBF"/>
<path d="M87.8291 143.906C87.7709 143.889 87.7292 143.823 87.7459 143.764L89.6942 136.612C89.7108 136.554 89.7774 136.512 89.8357 136.529C89.894 136.546 89.9356 136.612 89.919 136.671L87.9707 143.823C87.954 143.881 87.8874 143.923 87.8291 143.906Z" fill="#384249"/>
<path d="M85.9461 143.032C85.9461 143.032 85.8961 143.015 85.8795 142.998C85.8462 142.957 85.8462 142.898 85.8878 142.857L91.3413 138.194C91.3413 138.194 91.4412 138.161 91.4829 138.203C91.5162 138.244 91.5162 138.302 91.4746 138.344L86.021 143.007C86.021 143.007 85.9711 143.032 85.9461 143.032Z" fill="#384249"/>
<path d="M86.139 140.559C86.089 140.559 86.0391 140.517 86.0391 140.459C86.0391 140.409 86.0807 140.359 86.139 140.359H90.9514V140.351C91.0013 140.351 91.0513 140.392 91.0513 140.45C91.0513 140.5 91.0097 140.55 90.9514 140.55H86.139V140.559Z" fill="#384249"/>
<path d="M90.242 141.957C90.242 141.957 90.192 141.949 90.1754 141.932L86.7451 138.502C86.7451 138.502 86.7034 138.402 86.7451 138.36C86.7867 138.319 86.845 138.319 86.8866 138.36L90.3169 141.791C90.3169 141.791 90.3585 141.891 90.3169 141.932C90.3003 141.949 90.2753 141.957 90.2503 141.957H90.242Z" fill="#384249"/>
<path d="M87.711 141.724L88.1024 141.948C87.9025 141.832 87.786 141.59 87.786 141.249C87.786 140.558 88.2689 139.717 88.8767 139.367C89.1764 139.193 89.4512 139.176 89.651 139.292L89.2597 139.068C89.0598 138.951 88.7851 138.968 88.4854 139.143C87.8859 139.492 87.3947 140.333 87.3947 141.024C87.3947 141.366 87.5195 141.607 87.711 141.724Z" fill="#9CDBDC"/>
<path d="M89.9666 139.992C89.9666 140.683 89.4837 141.524 88.8759 141.874C88.2764 142.224 87.7852 141.941 87.7852 141.25C87.7852 140.558 88.2681 139.718 88.8759 139.368C89.4753 139.018 89.9666 139.301 89.9666 139.992Z" fill="#B0BEC3"/>
<path d="M85.5264 144.888L85.9593 145.138C85.2683 144.738 84.8353 143.881 84.8353 142.665C84.8353 140.217 86.5505 137.245 88.6736 136.013C89.7393 135.397 90.7051 135.338 91.4045 135.738L90.9716 135.488C90.2722 135.089 89.3064 135.147 88.2407 135.763C86.1092 136.995 84.394 139.968 84.4024 142.415C84.4024 143.631 84.8353 144.489 85.5264 144.888Z" fill="#558BBF"/>
<path d="M92.5336 138.211C92.5336 140.659 90.8184 143.639 88.6953 144.863C86.5638 146.096 84.832 145.105 84.832 142.657C84.832 140.209 86.5472 137.237 88.6703 136.004C90.8018 134.772 92.5336 135.763 92.5336 138.211ZM88.9118 137.112C87.3881 137.928 86.056 140.084 85.9227 141.916C85.7978 143.756 86.9302 144.58 88.4538 143.756C89.9775 142.94 91.3096 140.784 91.4429 138.952C91.5678 137.112 90.4354 136.288 88.9118 137.112Z" fill="#316EA9"/>
<path d="M92.5336 138.211C92.5336 140.659 90.8184 143.639 88.6953 144.863C86.5638 146.096 84.832 145.105 84.832 142.657C84.832 140.209 86.5472 137.237 88.6703 136.004C90.8018 134.772 92.5336 135.763 92.5336 138.211ZM88.9118 137.112C87.3881 137.928 86.056 140.084 85.9227 141.916C85.7978 143.756 86.9302 144.58 88.4538 143.756C89.9775 142.94 91.3096 140.784 91.4429 138.952C91.5678 137.112 90.4354 136.288 88.9118 137.112Z" fill="#316EA9"/>
<path d="M111.948 127.621C111.823 127.621 111.698 127.588 111.582 127.513L95.8957 117.713C95.571 117.513 95.4711 117.089 95.6792 116.764C95.8791 116.439 96.3037 116.339 96.6284 116.547L112.315 126.347C112.639 126.547 112.739 126.972 112.531 127.296C112.398 127.504 112.173 127.621 111.948 127.621Z" fill="#B0BEC3"/>
<path d="M90.6142 131.459L107.816 121.526C108.615 121.06 108.615 119.911 107.816 119.445L95.9845 112.609C95.2435 112.176 94.3276 112.176 93.5783 112.609L76.3768 122.542C75.5775 123.008 75.5775 124.157 76.3768 124.623L88.208 131.459C88.949 131.892 89.8649 131.892 90.6142 131.459Z" fill="#316EA9"/>
<path d="M83.4912 98.6297C83.383 98.6297 83.2747 98.6047 83.1665 98.5464C82.8334 98.3716 82.7002 97.9553 82.8834 97.6139L99.4937 66.2583C99.6686 65.9252 100.085 65.792 100.426 65.9752C100.759 66.15 100.892 66.5663 100.709 66.9077L84.099 98.2634C83.9741 98.4965 83.741 98.6297 83.4912 98.6297Z" fill="#B0BEC3"/>
<path d="M112.298 122.667C113.114 122.784 113.622 123.567 113.53 124.832C113.406 126.689 112.048 128.862 110.516 129.686C110.2 129.861 109.892 129.953 109.617 129.994C110 130.044 110.45 129.953 110.933 129.686C112.473 128.862 113.822 126.689 113.947 124.832C114.047 123.358 113.347 122.534 112.29 122.667H112.298Z" fill="#558BBF"/>
<path d="M110.189 129.802C110.13 129.786 110.089 129.719 110.105 129.661L112.054 122.509C112.07 122.451 112.137 122.409 112.195 122.426C112.253 122.442 112.295 122.509 112.278 122.567L110.33 129.719C110.313 129.777 110.247 129.819 110.189 129.802Z" fill="#384249"/>
<path d="M108.305 128.929C108.305 128.929 108.256 128.912 108.239 128.896C108.206 128.854 108.206 128.796 108.247 128.754L113.701 124.092C113.701 124.092 113.801 124.058 113.842 124.1C113.876 124.142 113.876 124.2 113.834 124.242L108.38 128.904C108.38 128.904 108.33 128.929 108.305 128.929Z" fill="#384249"/>
<path d="M108.498 126.455C108.448 126.455 108.398 126.414 108.398 126.355C108.398 126.305 108.44 126.255 108.498 126.255H113.311V126.247C113.361 126.247 113.411 126.289 113.411 126.347C113.411 126.397 113.369 126.447 113.311 126.447H108.498V126.455Z" fill="#384249"/>
<path d="M112.597 127.855C112.597 127.855 112.547 127.846 112.531 127.83L109.101 124.399C109.101 124.399 109.059 124.299 109.101 124.258C109.142 124.216 109.2 124.216 109.242 124.258L112.672 127.688C112.672 127.688 112.714 127.788 112.672 127.83C112.656 127.846 112.631 127.855 112.606 127.855H112.597Z" fill="#384249"/>
<path d="M110.07 127.621L110.462 127.846C110.262 127.729 110.145 127.488 110.145 127.147C110.145 126.456 110.628 125.615 111.236 125.265C111.536 125.09 111.811 125.073 112.01 125.19L111.619 124.965C111.419 124.849 111.144 124.865 110.845 125.04C110.245 125.39 109.754 126.231 109.754 126.922C109.754 127.263 109.879 127.505 110.07 127.621Z" fill="#9CDBDC"/>
<path d="M112.326 125.888C112.326 126.579 111.843 127.42 111.235 127.769C110.636 128.119 110.145 127.836 110.145 127.145C110.145 126.454 110.627 125.613 111.235 125.263C111.835 124.914 112.326 125.197 112.326 125.888Z" fill="#B0BEC3"/>
<path d="M107.882 130.786L108.315 131.035C107.624 130.636 107.191 129.778 107.191 128.563C107.191 126.115 108.906 123.142 111.029 121.91C112.095 121.294 113.061 121.236 113.76 121.635L113.327 121.386C112.628 120.986 111.662 121.044 110.596 121.66C108.465 122.893 106.75 125.865 106.758 128.313C106.758 129.528 107.191 130.386 107.882 130.786Z" fill="#558BBF"/>
<path d="M114.889 124.106C114.889 126.554 113.174 129.535 111.051 130.759C108.919 131.991 107.188 131 107.188 128.552C107.188 126.105 108.903 123.132 111.026 121.9C113.157 120.668 114.889 121.659 114.889 124.106ZM111.267 123.007C109.744 123.823 108.411 125.98 108.278 127.811C108.153 129.651 109.286 130.476 110.809 129.651C112.333 128.836 113.665 126.679 113.798 124.847C113.923 123.007 112.791 122.183 111.267 123.007Z" fill="#316EA9"/>
<path d="M98.2496 104.732C97.5169 105.157 96.9258 106.181 96.9258 107.022C96.9258 107.863 97.5253 108.204 98.2579 107.78C98.9906 107.355 99.5818 106.331 99.5818 105.49C99.5818 104.649 98.9823 104.308 98.2496 104.732Z" fill="#316EA9"/>
<path d="M96.7898 107.564L97.3143 107.872C97.0728 107.73 96.9313 107.439 96.923 107.022C96.923 106.181 97.5141 105.157 98.2468 104.733C98.6131 104.525 98.9462 104.5 99.1876 104.641L98.6631 104.333C98.4216 104.192 98.0886 104.217 97.7223 104.425C96.9896 104.849 96.3984 105.873 96.3984 106.714C96.3984 107.131 96.5483 107.43 96.7898 107.564Z" fill="#558BBF"/>
<path d="M83.7577 97.0469C83.025 97.4716 82.4338 98.4956 82.4338 99.3366C82.4338 100.177 83.0333 100.519 83.766 100.094C84.4987 99.6696 85.0898 98.6455 85.0898 97.8046C85.0898 96.9637 84.4904 96.6223 83.7577 97.0469Z" fill="#316EA9"/>
<path d="M82.2898 99.8869L82.8143 100.195C82.5728 100.053 82.4313 99.762 82.423 99.3457C82.423 98.5047 83.0141 97.4806 83.7468 97.056C84.1131 96.8479 84.4462 96.8229 84.6876 96.9644L84.1631 96.6564C83.9217 96.5148 83.5886 96.5398 83.2223 96.748C82.4896 97.1726 81.8984 98.1967 81.8984 99.0376C81.8984 99.4539 82.0483 99.7536 82.2898 99.8869Z" fill="#558BBF"/>
<path d="M72.0345 111.559C71.077 112.108 71.077 113.49 72.0345 114.048L86.172 122.208C87.0629 122.724 88.1536 122.724 89.0445 122.208L105.705 112.591L87.9788 102.358L72.0345 111.567V111.559Z" fill="#558BBF"/>
<path d="M108.796 79.8961L93.8596 71.2787C93.0936 70.8374 92.1362 71.3869 92.1362 72.2695L87.9648 102.343L105.699 112.584L109.871 81.7611C109.871 80.9951 109.463 80.2791 108.796 79.8961Z" fill="#729CC4"/>
<path d="M114.348 75.4995C114.09 75.4995 113.84 75.3497 113.723 75.0999C113.565 74.7585 113.715 74.3422 114.056 74.184C116.138 73.2099 117.328 71.8527 117.328 70.4373C117.328 67.7147 112.924 65.4168 107.704 65.4168C104.939 65.4168 102.3 66.0579 100.46 67.1735C100.135 67.3734 99.7106 67.2651 99.5107 66.9404C99.3109 66.6157 99.4192 66.1911 99.7439 65.9912C101.825 64.734 104.656 64.043 107.704 64.043C113.873 64.043 118.702 66.8572 118.702 70.4373C118.702 72.4023 117.22 74.2256 114.631 75.4329C114.539 75.4745 114.439 75.4995 114.339 75.4995H114.348Z" fill="#B0BEC3"/>
<path d="M87.9775 102.35L73.1406 110.918L92.1405 72.2686L87.9775 102.35Z" fill="#316EA9"/>
<path d="M88.9729 88.5056C89.0478 88.3808 89.1061 88.1893 89.281 87.8729C89.9887 86.6156 90.2052 84.7173 90.5882 83.4101C91.3791 80.7042 92.1701 77.9899 92.9694 75.284C94.2016 71.0877 96.3581 68.1736 98.7809 66.958C95.692 68.5566 92.6114 70.1552 89.5224 71.7538C87.4493 72.8278 85.4427 74.0601 83.2946 74.9843C80.5387 76.1665 78.657 77.2156 79.1649 80.188C79.3897 81.5201 79.9975 82.5942 80.7552 83.5517C81.9042 85.0087 83.2197 86.3159 84.71 87.4149C85.5593 88.0394 86.7416 88.9053 88.0154 88.7804C88.7065 88.7138 88.8564 88.6971 88.9646 88.5056H88.9729Z" fill="#316EA9"/>
<path d="M81.5751 99.5866C81.5252 99.6448 81.4502 99.7115 81.3753 99.6948C81.317 99.6782 81.2837 99.6199 81.2587 99.5699C81.1671 99.3784 81.1172 99.1703 81.1089 98.9621C80.7259 99.0121 80.3262 98.9621 79.9599 98.8206C79.8849 98.7873 79.8017 98.7456 79.7767 98.6707C79.7434 98.5541 79.86 98.4459 79.8933 98.3293C79.9432 98.1462 79.7934 97.9796 79.6435 97.8631C79.5436 97.7882 79.4187 97.6966 79.4353 97.5717C79.452 97.3885 79.7268 97.3469 79.8017 97.1804C79.9266 96.9222 79.502 96.6142 79.6435 96.3727C79.7184 96.2478 79.9016 96.2312 80.0098 96.1313C80.2013 95.9564 80.1181 95.5734 80.3512 95.4485C80.5011 95.3653 80.6842 95.4486 80.8341 95.5318C81.0922 95.6734 81.3503 95.8149 81.6084 95.9564C81.8416 96.0896 82.083 96.2145 82.2745 96.3977C83.4485 97.4967 82.3328 98.7123 81.5668 99.5949L81.5751 99.5866Z" fill="#FACDCB"/>
<path d="M84.0994 96.1244C83.5915 96.0161 83.042 95.8746 82.5674 96.0827C81.893 96.3825 81.6848 97.315 81.9762 97.9977C82.2676 98.6804 82.9087 99.1467 83.5582 99.4964C86.2391 100.945 89.6278 101.012 92.3671 99.6712C93.1497 99.2882 93.9074 98.7637 94.357 98.0144C94.8066 97.265 94.8815 96.2409 94.357 95.5332C93.8574 94.8588 92.9082 94.6257 92.084 94.7839C91.3346 94.9254 90.8267 95.3917 90.1607 95.6997C89.6528 95.9329 89.0367 96.0328 88.4871 96.1493C87.0468 96.4408 85.5398 96.4408 84.091 96.1327L84.0994 96.1244Z" fill="#9CDBDC"/>
<path d="M86.4269 101.31C86.4269 101.31 86.1438 95.4822 89.9488 93.7754C90.8729 93.9919 91.5723 94.5331 91.8138 95.6987C90.9812 95.4905 88.7498 98.2215 88.0921 100.211C87.3594 100.769 86.4269 101.319 86.4269 101.319V101.31Z" fill="#558BBF"/>
<path d="M88.6755 97.0886C89.7995 95.6982 91.3981 94.5825 93.2298 94.2661C95.0615 93.9497 97.118 94.5492 98.2087 95.9646C99.1163 97.1386 99.2578 98.6705 99.3661 100.119C99.4826 101.651 99.5825 103.192 99.3744 104.715C99.1662 106.239 98.6334 107.754 97.5843 108.936C97.1597 109.411 96.6601 109.827 96.1606 110.235C94.2955 111.734 92.3223 113.124 90.1908 114.265C88.6339 115.098 86.9354 115.822 85.137 115.83C84.3793 115.83 83.222 115.647 82.9139 114.815C82.5892 113.94 83.2137 112.617 83.7715 111.975C83.988 111.734 84.2294 111.518 84.4292 111.259C84.6374 110.985 84.8206 110.66 84.8455 110.319C83.6716 110.369 82.2145 111.16 81.0822 111.551C80.208 111.851 79.2588 112.15 78.3596 111.925C77.5853 111.734 76.9359 111.135 76.7277 110.402C76.5196 109.677 76.7527 108.853 77.3189 108.32C77.6935 107.971 78.1931 107.746 78.6677 107.521C80.9823 106.422 83.0971 104.948 84.9038 103.208C85.8197 102.326 86.3609 101.651 86.7938 100.502C87.2518 99.295 87.8429 98.121 88.6755 97.0969V97.0886Z" fill="#9CDBDC"/>
<path d="M94.2948 93.7501C93.3124 93.7668 92.7129 94.0416 91.797 94.4995C91.2808 94.7576 90.6064 95.3737 90.4066 95.9315C90.1651 96.5976 90.9061 96.9973 91.4557 97.0722C91.6139 97.0972 91.772 97.1055 91.9219 97.1638C92.1883 97.2637 92.3715 97.4968 92.5797 97.6883C93.1375 98.1962 93.9285 98.4293 94.6778 98.3544C95.4355 98.2878 96.1432 97.9298 96.7094 97.4219C97.3005 96.889 97.7584 96.0564 97.4837 95.2988C97.2922 94.7742 96.7926 94.4079 96.2598 94.2497C95.7269 94.0915 94.8527 93.7418 94.2948 93.7501Z" fill="white"/>
<path d="M93.0696 87.4139C96.1502 86.7645 97.5323 88.4213 98.1734 90.6527C98.0652 93.4502 97.524 95.0571 96.375 95.615C94.9679 96.2894 92.5284 96.9388 90.73 94.8906C89.6559 93.675 89.0065 91.2938 89.1231 90.2947C89.223 89.4205 89.9973 88.0633 93.0862 87.4139H93.0696Z" fill="#FACDCB"/>
<path d="M90.4872 89.4124C90.7536 89.2792 91.0284 89.2126 91.2782 89.2959C91.6778 89.4374 91.8526 90.0785 92.3439 90.0285C92.5104 90.0119 92.6519 89.9037 92.8185 89.8953C93.1765 89.8787 93.368 90.32 93.6927 90.4948C93.9008 90.6114 94.1589 90.5947 94.3921 90.628C95.258 90.7612 96.2155 91.4356 96.7067 92.1517C96.9315 92.4847 97.3894 92.7928 97.4061 93.2257C97.4144 93.4422 97.3478 93.6587 97.2229 93.8418C97.098 94.0167 96.8815 94.1999 96.9232 94.4413C97.4061 94.5912 97.9806 93.8918 98.272 93.5837C98.6466 93.1841 98.9381 92.7178 99.1462 92.2183C99.5542 91.2108 99.6125 90.0452 99.2295 89.0211C98.1887 86.2652 94.8417 85.0663 92.1524 85.9904C90.9285 86.4067 90.0293 87.281 89.4464 88.4216C89.3549 88.5965 89.2633 88.7796 89.205 88.9711C89.1134 89.2792 89.1217 89.6122 89.1301 89.9286C89.1301 90.0119 89.1301 90.1035 89.1883 90.1701C89.2633 90.2533 89.3965 90.2533 89.4881 90.2034C89.588 90.1534 89.6546 90.0702 89.7295 89.9869C89.9044 89.7954 90.1874 89.5623 90.4872 89.4041V89.4124Z" fill="#316EA9"/>
<path d="M96.3796 93.0923C96.3796 93.0923 96.1798 92.0932 97.1873 91.985C98.0448 91.8934 98.3363 92.3597 98.3113 93.2422C98.2863 94.1248 97.6285 94.666 97.0374 94.7825C96.4463 94.8991 96.388 93.0923 96.388 93.0923H96.3796Z" fill="#FACDCB"/>
<path d="M75.143 108.297C75.118 107.981 75.1679 107.639 75.3511 107.381C75.5926 107.031 76.0422 106.873 76.4668 106.89C76.8914 106.907 77.2911 107.073 77.6657 107.281C78.3401 107.656 78.9396 108.147 79.4308 108.738C79.7056 109.063 79.9471 109.429 80.0719 109.837C80.1635 110.137 80.1885 110.453 80.1719 110.761C80.1719 110.936 80.1136 111.103 80.0636 111.269C80.022 111.394 79.997 111.577 79.9221 111.686C79.5724 112.16 78.8397 112.31 78.2902 112.127C77.8073 111.96 77.4493 111.527 77.1079 111.169C76.3086 110.337 75.2512 109.546 75.143 108.297Z" fill="#9CDBDC"/>
<path d="M83.355 110.11C83.0719 109.96 82.7389 109.877 82.4308 109.952C82.0145 110.043 81.6981 110.393 81.5482 110.793C81.3984 111.192 81.4067 111.625 81.4483 112.05C81.5316 112.816 81.7647 113.557 82.1144 114.24C82.3142 114.614 82.5474 114.981 82.8804 115.247C83.1218 115.447 83.4049 115.589 83.6963 115.697C84.0044 115.813 84.3291 115.93 84.6538 115.83C85.2283 115.655 85.6363 115.072 85.6779 114.473C85.7112 113.965 85.4448 113.465 85.2533 113.016C84.7954 111.958 84.4707 110.676 83.355 110.102V110.11Z" fill="#9CDBDC"/>
<path d="M84.1177 103.924C84.1177 103.924 89.1382 108.337 98.9546 106.505C99.1461 105.864 99.4874 104.299 99.4874 104.299C99.4874 104.299 89.8876 106.363 85.683 102.101C85.3 102.808 84.1177 103.932 84.1177 103.932V103.924Z" fill="#558BBF"/>
<path d="M84.1174 110.419C84.1174 110.419 84.8501 106.931 86.865 104.999C88.6634 105.515 89.1213 106.14 89.1213 106.14L84.6586 110.885L84.1174 110.411V110.419Z" fill="#558BBF"/>
<path d="M92.2478 104.732C91.8232 105.098 91.3486 105.473 91.2237 106.022C91.0489 106.797 91.7149 107.571 92.4893 107.762C93.2636 107.954 94.0712 107.696 94.7956 107.363C96.7355 106.463 98.3591 104.932 99.4248 103.075C100.557 101.093 100.074 98.4872 99.0335 96.5472C98.9336 96.3641 98.8253 96.1809 98.6671 96.0394C98.1842 95.6231 97.8096 95.4982 97.2684 95.8312C96.8188 96.106 96.4524 96.5223 96.2193 96.9968C95.8613 97.7295 95.9362 98.4705 95.7697 99.2449C95.6448 99.836 95.3367 100.427 95.0786 100.968C94.4042 102.4 93.4384 103.691 92.2395 104.732H92.2478Z" fill="#9CDBDC"/>
<path d="M89.979 106.281C89.9041 106.289 89.8125 106.314 89.7875 106.389C89.7708 106.448 89.7958 106.506 89.8291 106.556C89.9457 106.731 90.0872 106.889 90.2621 107.014C90.0123 107.313 89.8374 107.671 89.7625 108.054C89.7459 108.138 89.7375 108.229 89.7958 108.288C89.8791 108.379 90.0289 108.337 90.1455 108.371C90.3287 108.421 90.387 108.646 90.4036 108.829C90.4036 108.954 90.4286 109.103 90.5368 109.162C90.7033 109.245 90.8865 109.037 91.0614 109.062C91.3444 109.095 91.3694 109.62 91.6608 109.628C91.8107 109.628 91.9189 109.486 92.0605 109.453C92.3103 109.387 92.585 109.661 92.8181 109.536C92.968 109.453 93.0013 109.253 93.0096 109.087C93.0263 108.795 93.0513 108.496 93.0679 108.204C93.0846 107.938 93.1012 107.663 93.0513 107.397C92.7599 105.815 91.128 106.098 89.979 106.273V106.281Z" fill="#FACDCB"/>
<path d="M93.9776 102.834C93.9776 102.834 93.6946 97.0057 97.4995 95.2988C98.4237 95.5153 99.1231 96.0565 99.3646 97.2221C98.532 97.014 95.851 99.7449 95.1849 101.735C94.4522 102.293 93.9776 102.842 93.9776 102.842V102.834Z" fill="#558BBF"/>
<path d="M105.214 67.7989C103.141 66.1004 100.859 65.9089 98.7778 66.958L80.7188 76.3164C82.8002 75.2673 85.0899 75.4671 87.1547 77.1573C89.3611 78.9641 90.66 81.7699 91.401 84.7007C92.2086 87.8978 92.2669 90.8952 94.4649 93.2514C96.0885 94.9916 98.195 96.2072 100.276 97.4144C101.142 97.914 104.664 100.761 105.697 100.004C106.446 99.446 106.937 96.2571 107.162 95.4662C107.836 93.1515 108.519 90.8369 109.194 88.5223C111.475 80.7292 109.685 71.454 105.214 67.7906V67.7989Z" fill="#9CDBDC"/>
<path d="M105.709 112.584L90.8633 121.151L109.688 83.1514L105.709 112.584Z" fill="#558BBF"/>
<path d="M97.7373 106.855C97.6291 106.855 97.5208 106.83 97.4126 106.772C97.0795 106.597 96.9463 106.181 97.1295 105.84L113.74 74.4839C113.915 74.1508 114.331 74.0176 114.672 74.2008C115.005 74.3756 115.139 74.7919 114.955 75.1333L98.3451 106.489C98.2202 106.722 97.9871 106.855 97.7373 106.855Z" fill="#B0BEC3"/>
<path d="M89.0774 141.084C88.9275 141.084 88.786 141.034 88.6611 140.943C88.4363 140.776 88.3364 140.493 88.4113 140.227L97.0703 105.998C97.1369 105.74 97.3451 105.541 97.6115 105.491C97.878 105.441 98.1444 105.549 98.3026 105.765L113.031 126.33C113.148 126.489 113.181 126.689 113.148 126.872C113.106 127.063 112.99 127.221 112.823 127.321L89.4354 140.984C89.3272 141.051 89.2106 141.076 89.0857 141.076L89.0774 141.084ZM98.0445 107.772L90.1514 138.969L111.466 126.514L98.0445 107.772Z" fill="#B0BEC3"/>
<path d="M91.8099 137.745C92.6258 137.862 93.1337 138.645 93.0421 139.91C92.9172 141.767 91.5601 143.94 90.0281 144.764C89.7117 144.939 89.4037 145.031 89.1289 145.072C89.5119 145.122 89.9615 145.031 90.4444 144.764C91.9847 143.94 93.3335 141.767 93.4584 139.91C93.5583 138.437 92.8589 137.612 91.8015 137.745H91.8099Z" fill="#558BBF"/>
<path d="M89.7002 144.873C89.642 144.856 89.6003 144.789 89.617 144.731L91.5653 137.579C91.5819 137.521 91.6485 137.479 91.7068 137.496C91.7651 137.513 91.8067 137.579 91.7901 137.637L89.8418 144.789C89.8251 144.848 89.7585 144.889 89.7002 144.873Z" fill="#384249"/>
<path d="M87.8172 143.996C87.8172 143.996 87.7672 143.98 87.7506 143.963C87.7173 143.922 87.7173 143.863 87.7589 143.822L93.2124 139.159C93.2124 139.159 93.3123 139.126 93.354 139.167C93.3873 139.209 93.3873 139.267 93.3456 139.309L87.8921 143.972C87.8921 143.972 87.8422 143.996 87.8172 143.996Z" fill="#384249"/>
<path d="M88.0101 141.525C87.9601 141.525 87.9102 141.483 87.9102 141.425C87.9102 141.375 87.9518 141.325 88.0101 141.325H92.8225V141.316C92.8724 141.316 92.9224 141.358 92.9224 141.416C92.9224 141.466 92.8808 141.516 92.8225 141.516H88.0101V141.525Z" fill="#384249"/>
<path d="M92.1131 142.934C92.1131 142.934 92.0631 142.925 92.0465 142.909L88.6162 139.478C88.6162 139.478 88.5745 139.379 88.6162 139.337C88.6578 139.295 88.7161 139.295 88.7577 139.337L92.188 142.767C92.188 142.767 92.2296 142.867 92.188 142.909C92.1714 142.925 92.1464 142.934 92.1214 142.934H92.1131Z" fill="#384249"/>
<path d="M89.5821 142.699L89.9735 142.924C89.7736 142.808 89.6571 142.566 89.6571 142.225C89.6571 141.534 90.14 140.693 90.7478 140.343C91.0475 140.168 91.3223 140.152 91.5221 140.268L91.1308 140.043C90.9309 139.927 90.6562 139.943 90.3565 140.118C89.757 140.468 89.2657 141.309 89.2657 142C89.2657 142.341 89.3906 142.583 89.5821 142.699Z" fill="#9CDBDC"/>
<path d="M91.8416 140.968C91.8416 141.659 91.3587 142.5 90.7509 142.85C90.1514 143.199 89.6602 142.916 89.6602 142.225C89.6602 141.534 90.1431 140.693 90.7509 140.343C91.3503 139.994 91.8416 140.277 91.8416 140.968Z" fill="#B0BEC3"/>
<path d="M87.3975 145.854L87.8304 146.104C87.1394 145.704 86.7064 144.847 86.7064 143.631C86.7064 141.183 88.4216 138.211 90.5447 136.979C91.6104 136.362 92.5762 136.304 93.2756 136.704L92.8427 136.454C92.1433 136.054 91.1775 136.113 90.1117 136.729C87.9803 137.961 86.2651 140.933 86.2735 143.381C86.2735 144.597 86.7064 145.454 87.3975 145.854Z" fill="#558BBF"/>
<path d="M94.4008 139.176C94.4008 141.624 92.6856 144.604 90.5625 145.828C88.431 147.06 86.6992 146.07 86.6992 143.622C86.6992 141.174 88.4144 138.202 90.5375 136.969C92.6689 135.737 94.4008 136.728 94.4008 139.176ZM90.7789 138.077C89.2553 138.893 87.9231 141.049 87.7899 142.881C87.665 144.721 88.7974 145.545 90.321 144.721C91.8447 143.905 93.1768 141.748 93.31 139.917C93.4349 138.077 92.3026 137.252 90.7789 138.077Z" fill="#316EA9"/>
<path d="M94.4008 139.176C94.4008 141.624 92.6856 144.604 90.5625 145.828C88.431 147.06 86.6992 146.07 86.6992 143.622C86.6992 141.174 88.4144 138.202 90.5375 136.969C92.6689 135.737 94.4008 136.728 94.4008 139.176ZM90.7789 138.077C89.2553 138.893 87.9231 141.049 87.7899 142.881C87.665 144.721 88.7974 145.545 90.321 144.721C91.8447 143.905 93.1768 141.748 93.31 139.917C93.4349 138.077 92.3026 137.252 90.7789 138.077Z" fill="#316EA9"/>
<path d="M114.166 123.757C114.982 123.874 115.489 124.656 115.398 125.922C115.273 127.779 113.916 129.952 112.384 130.776C112.067 130.951 111.759 131.042 111.485 131.084C111.868 131.134 112.317 131.042 112.8 130.776C114.34 129.952 115.689 127.779 115.814 125.922C115.914 124.448 115.215 123.624 114.157 123.757H114.166Z" fill="#558BBF"/>
<path d="M112.06 130.892C112.002 130.876 111.96 130.809 111.977 130.751L113.925 123.599C113.942 123.54 114.008 123.499 114.066 123.515C114.125 123.532 114.166 123.599 114.15 123.657L112.201 130.809C112.185 130.867 112.118 130.909 112.06 130.892Z" fill="#384249"/>
<path d="M110.177 130.019C110.177 130.019 110.127 130.002 110.11 129.986C110.077 129.944 110.077 129.886 110.119 129.844L115.572 125.182C115.572 125.182 115.672 125.148 115.714 125.19C115.747 125.232 115.747 125.29 115.705 125.331L110.252 129.994C110.252 129.994 110.202 130.019 110.177 130.019Z" fill="#384249"/>
<path d="M110.37 127.545C110.32 127.545 110.27 127.503 110.27 127.445C110.27 127.395 110.311 127.345 110.37 127.345H115.182V127.337C115.232 127.337 115.282 127.379 115.282 127.437C115.282 127.487 115.24 127.537 115.182 127.537H110.37V127.545Z" fill="#384249"/>
<path d="M114.469 128.945C114.469 128.945 114.419 128.937 114.402 128.92L110.972 125.49C110.972 125.49 110.93 125.39 110.972 125.349C111.014 125.307 111.072 125.307 111.113 125.349L114.544 128.779C114.544 128.779 114.585 128.879 114.544 128.92C114.527 128.937 114.502 128.945 114.477 128.945H114.469Z" fill="#384249"/>
<path d="M111.942 128.712L112.333 128.937C112.133 128.82 112.017 128.579 112.017 128.237C112.017 127.546 112.5 126.705 113.107 126.356C113.407 126.181 113.682 126.164 113.882 126.281L113.49 126.056C113.291 125.939 113.016 125.956 112.716 126.131C112.117 126.481 111.625 127.322 111.625 128.013C111.625 128.354 111.75 128.595 111.942 128.712Z" fill="#9CDBDC"/>
<path d="M114.197 126.979C114.197 127.67 113.714 128.511 113.107 128.86C112.507 129.21 112.016 128.927 112.016 128.236C112.016 127.545 112.499 126.704 113.107 126.354C113.706 126.004 114.197 126.288 114.197 126.979Z" fill="#B0BEC3"/>
<path d="M109.753 131.874L110.186 132.123C109.495 131.724 109.062 130.866 109.062 129.651C109.062 127.203 110.778 124.23 112.901 122.998C113.966 122.382 114.932 122.324 115.632 122.723L115.199 122.474C114.499 122.074 113.533 122.132 112.468 122.748C110.336 123.981 108.621 126.953 108.629 129.401C108.629 130.616 109.062 131.474 109.753 131.874Z" fill="#558BBF"/>
<path d="M116.76 125.198C116.76 127.646 115.045 130.627 112.922 131.851C110.791 133.083 109.059 132.092 109.059 129.644C109.059 127.196 110.774 124.224 112.897 122.992C115.029 121.76 116.76 122.75 116.76 125.198ZM113.139 124.099C111.615 124.915 110.283 127.072 110.15 128.903C110.025 130.743 111.157 131.568 112.681 130.743C114.204 129.927 115.536 127.771 115.67 125.939C115.795 124.099 114.662 123.275 113.139 124.099Z" fill="#316EA9"/>
<path d="M114.453 74.2833C113.72 74.7079 113.129 75.732 113.129 76.5729C113.129 77.4138 113.728 77.7552 114.461 77.3306C115.194 76.9059 115.785 75.8818 115.785 75.0409C115.785 74.2 115.185 73.8586 114.453 74.2833Z" fill="#316EA9"/>
<path d="M112.985 77.1144L113.51 77.4225C113.268 77.2809 113.127 76.9895 113.118 76.5732C113.118 75.7323 113.709 74.7082 114.442 74.2836C114.808 74.0754 115.141 74.0504 115.383 74.192L114.858 73.8839C114.617 73.7424 114.284 73.7674 113.918 73.9755C113.185 74.4001 112.594 75.4242 112.594 76.2651C112.594 76.6814 112.744 76.9812 112.985 77.1144Z" fill="#558BBF"/>
<path d="M117.22 62.3781C117.22 62.3781 116.254 62.9442 115.871 63.194C115.446 63.4771 115.03 63.7935 114.647 64.1265C114.106 64.6094 112.416 65.9665 112.782 66.8241C112.907 67.1072 113.232 67.2904 113.54 67.2487C113.506 67.5152 113.648 67.7899 113.889 67.9232C114.122 68.048 114.439 68.0231 114.639 67.8482C114.78 68.2062 115.238 68.3977 115.596 68.2479C115.679 68.2146 115.754 68.1646 115.838 68.1563C115.921 68.1563 115.996 68.1813 116.079 68.1979C116.495 68.2978 116.92 68.0231 117.195 67.69C117.594 67.2071 117.952 66.6576 118.335 66.158C118.793 65.5586 118.818 64.8342 119.318 64.2847L121.483 62.3947L119.418 60.0801L117.22 62.3614V62.3781Z" fill="#F9C3C0"/>
<path d="M108.691 60.9221C108.691 60.9221 108.333 61.8713 108.208 62.2793C107.933 63.1452 107.784 63.9694 107.667 64.8603C107.609 65.3016 107.55 65.6263 107.942 65.926C107.975 65.951 108.017 65.976 108.033 66.0176C108.058 66.0593 108.067 66.1009 108.083 66.1509C108.15 66.3757 108.383 66.5422 108.624 66.5338C108.741 66.5338 108.858 66.4922 108.966 66.5255C109.024 66.5422 109.066 66.5755 109.116 66.6088C109.316 66.742 109.565 66.8419 109.79 66.7586C110.065 66.6587 110.156 66.6338 110.448 66.6754C110.656 66.7004 111.006 66.8003 111.164 66.6088C111.206 66.5588 111.214 66.4839 111.222 66.4173C111.272 65.8428 111.389 65.2683 111.572 64.7188C111.589 64.6772 111.605 64.6355 111.638 64.6022C111.847 64.4107 112.155 65.0019 112.354 64.8187C112.679 64.2775 112.638 63.5448 112.246 63.0453C111.772 62.4375 111.156 61.9629 111.272 61.072L112.088 58.416L109.082 58.8073L108.683 60.9221H108.691Z" fill="#F9C3C0"/>
</svg>
