<svg width="179" height="230" viewBox="0 0 179 230" fill="none" xmlns="http://www.w3.org/2000/svg">
<rect width="179" height="230" fill="#EDF2FA"/>
<g clip-path="url(#clip0_1_2464)">
<path d="M140.022 44.1115C138.081 44.1115 136.508 42.548 136.508 40.6192C136.508 38.6905 138.081 37.127 140.022 37.127C141.962 37.127 143.535 38.6905 143.535 40.6192C143.535 42.548 141.962 44.1115 140.022 44.1115Z" fill="#F9C3C5"/>
<path d="M142.419 36.815C159.205 50.8827 157.812 73.0406 157.812 73.0406C157.812 74.119 156.22 74.9948 154.254 74.9948C152.288 74.9948 150.696 74.119 150.696 73.0406C150.696 72.9202 150.702 72.8107 150.724 72.6629C151.093 70.2052 152.839 55.1358 142.419 36.8096V36.815Z" fill="#4FBFC0"/>
<path d="M143.955 47.6694C142.015 47.6694 140.442 46.1058 140.442 44.1771C140.442 42.2484 142.015 40.6848 143.955 40.6848C145.896 40.6848 147.469 42.2484 147.469 44.1771C147.469 46.1058 145.896 47.6694 143.955 47.6694Z" fill="#F58A8E"/>
<path d="M123.001 28.0345C132.667 24.5148 143.373 29.4467 146.914 39.0532C137.249 42.5729 131.769 33.7491 123.001 28.0345Z" fill="#9CDBDC"/>
<path d="M153.121 14C143.566 17.7988 138.918 28.5822 142.745 38.0792C152.301 34.2804 150.445 24.0773 153.121 14Z" fill="#316EA9"/>
<path d="M162.988 54.851C162.058 44.6642 152.993 37.1542 142.738 38.0793C143.669 48.266 154.039 49.4155 162.988 54.851Z" fill="#316EA9"/>
<path d="M168 30.5966C158.946 25.7304 147.64 29.0804 142.744 38.0793C151.798 42.9455 158.5 34.9976 168 30.5966Z" fill="#9CDBDC"/>
</g>
<g clip-path="url(#clip1_1_2464)">
<path d="M26.6422 52.0446L29.2559 50.5463C29.346 50.4899 29.346 50.3547 29.2559 50.2984L28.963 50.1294C28.8729 50.0731 28.7715 50.0731 28.6813 50.1294L26.0676 51.6278C25.9775 51.6841 25.9775 51.8193 26.0676 51.8757L26.3605 52.0446C26.4506 52.101 26.552 52.101 26.6422 52.0446Z" fill="#9CDBDC"/>
<path d="M26.3593 52.0442L26.0664 51.8752L28.6801 64.6848L28.9731 64.8538L26.3593 52.0442Z" fill="#9CDBDC"/>
<path d="M26.6406 52.0445L29.2544 50.5461L34.5494 61.8348L29.2544 64.8541L26.6406 52.0445Z" fill="#9CDBDC"/>
<path d="M28.6813 64.6857C28.6813 64.6857 28.6137 64.6068 28.6137 64.5617L26 51.7522C26 51.7522 26.0225 51.8536 26.0676 51.8761L28.6813 64.6857Z" fill="#9CDBDC"/>
<path d="M34.5494 61.8347C34.5494 61.8347 34.617 61.7558 34.617 61.7107L29.3332 50.4221C29.3332 50.4221 29.3107 50.5235 29.2656 50.546L34.5607 61.8459L34.5494 61.8347Z" fill="#E7EBF4"/>
<path d="M29.2548 64.8537L26.641 52.0442C26.5509 52.1005 26.4495 52.1005 26.3594 52.0442L28.9731 64.8537C29.0632 64.9101 29.1646 64.9101 29.2548 64.8537Z" fill="#9CDBDC"/>
<path d="M54.1522 92.7598C55.921 93.7738 57.3405 96.2523 57.3405 98.2802C57.3405 100.308 55.8985 101.131 54.1297 100.105C52.3609 99.0914 50.9414 96.6128 50.9414 94.5849C50.9414 92.557 52.3835 91.7346 54.1522 92.7598Z" fill="#316EA9"/>
<path d="M65.5858 95.0248L56.3927 100.331C56.9673 99.9931 57.3278 99.2834 57.3278 98.2807C57.3278 96.2528 55.9083 93.7855 54.1395 92.7603C53.2495 92.2533 52.4496 92.197 51.875 92.535L61.0681 87.2287C61.654 86.8907 62.4539 86.947 63.3326 87.454C65.1014 88.4679 66.5209 90.9465 66.5209 92.9744C66.5209 93.9883 66.1604 94.6981 65.5858 95.0248Z" fill="#9CDBDC"/>
<path d="M53.861 93.1772C55.3706 93.9996 56.6662 96.1289 56.7676 97.9202C56.869 99.7228 55.7199 100.511 54.2215 99.689C52.7118 98.8665 51.4162 96.7372 51.3148 94.9459C51.2134 93.1434 52.3626 92.3547 53.861 93.1772Z" fill="#316EA9"/>
<path d="M85.7772 114.12C87.546 115.134 88.9655 117.613 88.9655 119.641C88.9655 121.668 87.5235 122.491 85.7547 121.466C83.9859 120.452 82.5664 117.973 82.5664 115.945C82.5664 113.917 84.0085 113.095 85.7772 114.12Z" fill="#316EA9"/>
<path d="M97.2108 116.385L88.0177 121.691C88.5923 121.353 88.9528 120.644 88.9528 119.641C88.9528 117.613 87.5333 115.146 85.7645 114.121C84.8857 113.614 84.0746 113.557 83.5 113.895L92.6931 108.589C93.279 108.251 94.0789 108.307 94.9576 108.814C96.7264 109.828 98.1459 112.307 98.1459 114.335C98.1459 115.349 97.7854 116.058 97.2108 116.385Z" fill="#9CDBDC"/>
<path d="M85.486 114.538C86.9956 115.36 88.2912 117.489 88.3926 119.281C88.494 121.083 87.3449 121.872 85.8465 121.049C84.3368 120.227 83.0412 118.098 82.9398 116.306C82.8384 114.504 83.9876 113.715 85.486 114.538Z" fill="#316EA9"/>
<path d="M114.158 75.0837L121.718 70.7125C121.819 70.6561 121.954 70.7237 121.954 70.8477V71.3321C121.954 71.4335 121.898 71.5349 121.808 71.5912L114.248 75.9625C114.147 76.0188 114.012 75.9512 114.012 75.8273V75.3428C114.012 75.2414 114.068 75.14 114.158 75.0837Z" fill="#9CDBDC"/>
<path d="M121.73 70.7128L108.391 64.1672C108.391 64.1672 108.503 64.1447 108.548 64.1672L121.887 70.7128C121.887 70.7128 121.786 70.679 121.73 70.7128Z" fill="#E7EBF4"/>
<path d="M114.013 75.3319L105.574 65.9697V66.4542L114.013 75.8163V75.3319Z" fill="#E7EBF4"/>
<path d="M114.012 75.8168C114.012 75.8731 114.046 75.9294 114.091 75.9519L105.641 66.5786C105.641 66.5786 105.562 66.4997 105.562 66.4434L114.012 75.8168Z" fill="#9CDBDC"/>
<path d="M114.012 75.332L105.562 65.9586C105.562 65.8572 105.619 65.7558 105.709 65.6995L114.159 75.0729C114.068 75.1179 114.012 75.2193 114.012 75.3207V75.332Z" fill="#9CDBDC"/>
<path d="M105.719 65.7104L114.168 75.0838L121.728 70.7126L108.389 64.167L105.719 65.7104Z" fill="#9CDBDC"/>
<path d="M68.8798 100.264L82.5681 92.3549C82.7596 92.2423 82.9962 92.3775 82.9962 92.6028V93.4816C82.9962 93.6731 82.8948 93.8533 82.7258 93.9435L69.0375 101.852C68.846 101.965 68.6094 101.83 68.6094 101.604V100.726C68.6094 100.534 68.7108 100.354 68.8798 100.264Z" fill="#9CDBDC"/>
<path d="M82.5685 92.355L33.7188 60.4044C33.8089 60.348 33.9215 60.3593 34.0004 60.4044L82.8502 92.355C82.7713 92.3099 82.6587 92.2987 82.5685 92.355Z" fill="#9CDBDC"/>
<path d="M68.6079 100.726L28.6133 63.6602V64.5389L68.6079 101.604V100.726Z" fill="#E7EBF4"/>
<path d="M68.6079 101.605C68.6079 101.717 68.6642 101.807 68.7544 101.852L28.7597 64.7869C28.6809 64.7419 28.6133 64.6517 28.6133 64.5391L68.6079 101.605Z" fill="#9CDBDC"/>
<path d="M68.6079 100.726L28.6133 63.6602C28.6133 63.4686 28.7147 63.2884 28.8837 63.1982L68.8783 100.264C68.7093 100.354 68.6079 100.534 68.6079 100.726Z" fill="#9CDBDC"/>
<path d="M28.8828 63.1983L68.8774 100.264L82.5658 92.3549L33.716 60.4043L28.8828 63.1983Z" fill="#9CDBDC"/>
<path d="M53.7268 108.939C57.2531 110.978 60.1035 115.912 60.0922 119.968C60.0809 124.024 57.2081 125.657 53.6818 123.618C50.1555 121.579 47.3052 116.645 47.3164 112.589C47.3277 108.533 50.2006 106.899 53.7268 108.939Z" fill="#316EA9"/>
<path d="M107.239 95.7796L58.2312 124.08C59.3803 123.415 60.0901 121.996 60.1013 119.979C60.1126 115.923 57.2623 110.989 53.736 108.95C51.9672 107.924 50.3674 107.834 49.207 108.499L98.2145 80.1986C99.375 79.5339 100.975 79.6353 102.744 80.6493C106.27 82.6884 109.12 87.623 109.109 91.6788C109.109 93.6954 108.388 95.1149 107.239 95.7796Z" fill="#9CDBDC"/>
<path d="M128.7 79.2066C128.7 79.2066 118.381 88.0618 108.467 94.9791C108.061 95.2608 107.227 95.779 107.227 95.779C108.376 95.1143 109.086 93.6948 109.097 91.6782C109.109 87.6224 106.258 82.6878 102.732 80.6487C100.963 79.6234 99.3635 79.5333 98.2031 80.198C98.2031 80.198 99.1945 79.6685 99.5325 79.5221C111.948 74.4072 123.777 70.1374 123.777 70.1374C126.718 69.2361 129.805 68.8756 131.269 71.0274C132.835 73.337 131.461 76.7731 128.7 79.2179V79.2066Z" fill="#9CDBDC"/>
<path d="M53.725 108.938C51.9562 107.913 50.3564 107.823 49.196 108.487C49.196 108.487 42.7631 111.957 40.1944 115.224C37.1075 119.156 33.4911 124.147 35.2373 126.907C37.0287 129.746 43.3489 128.845 47.6864 128.237C51.7084 127.673 58.2202 124.079 58.2202 124.079C59.3693 123.415 60.0791 121.995 60.0903 119.979C60.1016 115.923 57.2513 110.988 53.725 108.949V108.938Z" fill="#9CDBDC"/>
<path d="M130.956 72.7969C130.956 72.7969 120.636 81.652 110.722 88.5694C110.316 88.8511 109.482 89.3693 109.482 89.3693L60.4749 117.67C60.4749 117.67 60.4749 117.67 60.4636 117.67C60.4636 117.67 60.4523 117.67 60.4411 117.67C59.9566 117.94 53.7941 121.275 49.9298 121.816C45.5924 122.424 39.2721 123.325 37.4808 120.486C37.278 120.171 37.154 119.833 37.0865 119.461C35.2613 122.278 34.0784 125.072 35.2275 126.897C37.0189 129.736 43.3391 128.834 47.6766 128.226C51.5296 127.685 57.7034 124.351 58.1878 124.08C58.1878 124.08 58.1991 124.08 58.2104 124.08H58.2216L107.229 95.7797C107.229 95.7797 108.063 95.2615 108.468 94.9798C118.383 88.0625 128.702 79.2073 128.702 79.2073C131.091 77.1005 132.443 74.239 131.744 72.0195C131.496 72.2899 131.226 72.549 130.944 72.7969H130.956Z" fill="#316EA9"/>
<path d="M145.333 130.378L150.121 127.618C150.312 127.505 150.549 127.64 150.549 127.865V128.744C150.549 128.936 150.448 129.116 150.279 129.206L145.491 131.966C145.299 132.079 145.062 131.944 145.062 131.719V130.84C145.062 130.648 145.164 130.468 145.333 130.378Z" fill="#9CDBDC"/>
<path d="M150.118 127.606L93.5625 99.7452C93.6526 99.6888 93.7653 99.7001 93.8442 99.7452L150.4 127.606C150.321 127.561 150.208 127.55 150.118 127.606Z" fill="#9CDBDC"/>
<path d="M145.061 131.707C145.061 131.82 145.118 131.91 145.208 131.955L79.7519 109.231C79.6731 109.186 79.6055 109.096 79.6055 108.983L145.061 131.707Z" fill="#9CDBDC"/>
<path d="M79.8633 107.654L145.331 130.366L150.119 127.606L93.5628 99.7451L79.8633 107.654Z" fill="#9CDBDC"/>
<path d="M145.411 130.953L79.6055 108.116C79.6055 107.925 79.7069 107.744 79.8759 107.654L145.681 130.502C145.512 130.592 145.411 130.772 145.411 130.964V130.953Z" fill="#9CDBDC"/>
<path d="M145.411 130.953L79.6055 108.116V108.995L145.411 131.831V130.953Z" fill="#E7EBF4"/>
<path d="M139.201 84.8628L141.849 83.3306C141.95 83.2743 142.085 83.3419 142.085 83.4658V83.9503C142.085 84.0517 142.029 84.1531 141.939 84.2094L139.291 85.7416C139.19 85.7979 139.055 85.7303 139.055 85.6064V85.1219C139.055 85.0205 139.111 84.9191 139.201 84.8628Z" fill="#9CDBDC"/>
<path d="M141.839 83.3419L129.074 75.3655C129.074 75.3655 129.187 75.343 129.232 75.3655L141.996 83.3419C141.996 83.3419 141.895 83.3081 141.839 83.3419Z" fill="#E7EBF4"/>
<path d="M139.044 85.1217L121.367 79.9844V80.4576L139.044 85.6062V85.1217Z" fill="#E7EBF4"/>
<path d="M139.043 85.6071C139.043 85.6634 139.077 85.7197 139.122 85.7423L121.434 80.6049C121.434 80.6049 121.355 80.5261 121.355 80.4697L139.043 85.6071Z" fill="#9CDBDC"/>
<path d="M139.043 85.1223L121.355 79.9849C121.355 79.8836 121.412 79.7822 121.502 79.7258L139.19 84.8744C139.1 84.9195 139.043 85.0209 139.043 85.1223Z" fill="#9CDBDC"/>
<path d="M121.512 79.7257L139.199 84.8631L141.836 83.3422L129.071 75.3545L121.512 79.7257Z" fill="#9CDBDC"/>
<path d="M130.099 50.0279L132.825 48.4506C132.916 48.3943 132.916 48.2591 132.825 48.2028L132.533 48.0338C132.442 47.9887 132.341 47.9887 132.251 48.0338L129.525 49.6111C129.434 49.6674 129.434 49.8026 129.525 49.8589L129.817 50.0279C129.908 50.0842 130.009 50.0842 130.099 50.0279Z" fill="#9CDBDC"/>
<path d="M129.816 50.0284L129.523 49.8594L117.75 75.2306L118.043 75.3996L129.816 50.0284Z" fill="#9CDBDC"/>
<path d="M130.097 50.0274L132.824 48.4502L125.771 71.1063L118.324 75.3987L130.097 50.0274Z" fill="#316EA9"/>
<path d="M117.751 75.2305C117.751 75.2305 117.683 75.1517 117.683 75.1066L129.457 49.7354C129.457 49.7354 129.479 49.8367 129.524 49.8593L117.751 75.2305Z" fill="#9CDBDC"/>
<path d="M125.773 71.1072C125.773 71.1072 125.841 71.0283 125.841 70.9833L132.905 48.3271C132.905 48.3271 132.882 48.4285 132.837 48.4511L125.785 71.0959L125.773 71.1072Z" fill="#E7EBF4"/>
<path d="M118.324 75.3996L130.098 50.0283C130.007 50.0847 129.906 50.0847 129.816 50.0283L118.043 75.3996C118.133 75.4559 118.234 75.4559 118.324 75.3996Z" fill="#9CDBDC"/>
<path d="M150.752 123.561L153.365 122.063C153.455 122.007 153.455 121.871 153.365 121.815L153.072 121.646C152.982 121.601 152.881 121.601 152.791 121.646L150.177 123.144C150.087 123.201 150.087 123.336 150.177 123.392L150.47 123.561C150.56 123.618 150.661 123.618 150.752 123.561Z" fill="#9CDBDC"/>
<path d="M150.457 123.562L150.164 123.393L144.914 131.797L145.207 131.966L150.457 123.562Z" fill="#9CDBDC"/>
<path d="M150.75 123.561L153.352 122.062L150.783 128.946L145.488 131.965L150.75 123.561Z" fill="#9CDBDC"/>
<path d="M144.915 131.797C144.915 131.797 144.848 131.718 144.848 131.673L150.109 123.268C150.109 123.268 150.131 123.37 150.177 123.392L144.915 131.797Z" fill="#9CDBDC"/>
<path d="M150.785 128.947C150.785 128.947 150.853 128.868 150.853 128.823L153.421 121.939C153.421 121.939 153.399 122.041 153.354 122.063L150.785 128.947Z" fill="#9CDBDC"/>
<path d="M145.489 131.966L150.75 123.562C150.66 123.618 150.558 123.618 150.468 123.562L145.207 131.966C145.297 132.022 145.399 132.022 145.489 131.966Z" fill="#9CDBDC"/>
<path d="M39.3281 116.329C39.3281 119.055 43.3276 121.275 48.2621 121.275L49.9295 119.303C44.995 119.303 40.9955 117.084 40.9955 114.357L39.3281 116.329Z" fill="#E7EBF4"/>
<path d="M57.8721 117.05L59.2691 116.239C59.393 116.171 59.5395 116.261 59.5395 116.397V120.452C59.5395 120.576 59.4719 120.689 59.3705 120.745L57.9735 121.556C57.8496 121.624 57.7031 121.534 57.7031 121.399V117.343C57.7031 117.219 57.7707 117.106 57.8721 117.05Z" fill="#E7EBF4"/>
<path d="M61.3213 115.056L62.7183 114.245C62.8423 114.177 62.9887 114.267 62.9887 114.402V116.475C62.9887 116.599 62.9211 116.712 62.8197 116.768L61.4227 117.579C61.2988 117.647 61.1523 117.557 61.1523 117.422V115.349C61.1523 115.225 61.2199 115.112 61.3213 115.056Z" fill="#E7EBF4"/>
<path d="M64.7666 113.062L66.1636 112.251C66.2876 112.183 66.434 112.273 66.434 112.408V114.481C66.434 114.605 66.3664 114.718 66.265 114.774L64.868 115.585C64.7441 115.653 64.5977 115.563 64.5977 115.428V113.355C64.5977 113.231 64.6653 113.118 64.7666 113.062Z" fill="#E7EBF4"/>
<path d="M68.2159 111.079L69.6129 110.268C69.7368 110.201 69.8832 110.291 69.8832 110.426V112.499C69.8832 112.623 69.8157 112.735 69.7143 112.792L68.3173 113.603C68.1933 113.67 68.0469 113.58 68.0469 113.445V111.372C68.0469 111.248 68.1145 111.136 68.2159 111.079Z" fill="#E7EBF4"/>
<path d="M71.6731 109.085L73.0701 108.274C73.1941 108.206 73.3405 108.296 73.3405 108.431V110.504C73.3405 110.628 73.2729 110.741 73.1715 110.797L71.7745 111.608C71.6506 111.676 71.5042 111.586 71.5042 111.451V109.378C71.5042 109.254 71.5717 109.141 71.6731 109.085Z" fill="#E7EBF4"/>
<path d="M75.1221 107.091L76.5191 106.28C76.643 106.212 76.7895 106.302 76.7895 106.438V108.511C76.7895 108.634 76.7219 108.747 76.6205 108.803L75.2235 109.615C75.0996 109.682 74.9531 109.592 74.9531 109.457V107.384C74.9531 107.26 75.0207 107.147 75.1221 107.091Z" fill="#E7EBF4"/>
<path d="M78.5674 105.097L79.9644 104.286C80.0884 104.218 80.2348 104.308 80.2348 104.443V106.516C80.2348 106.64 80.1672 106.753 80.0658 106.809L78.6688 107.62C78.5449 107.688 78.3984 107.598 78.3984 107.463V105.39C78.3984 105.266 78.466 105.153 78.5674 105.097Z" fill="#E7EBF4"/>
<path d="M82.0166 103.113L83.4136 102.302C83.5376 102.235 83.684 102.325 83.684 102.46V104.533C83.684 104.657 83.6164 104.77 83.515 104.826L82.118 105.637C81.9941 105.705 81.8477 105.615 81.8477 105.479V103.406C81.8477 103.282 81.9153 103.17 82.0166 103.113Z" fill="#E7EBF4"/>
<path d="M85.462 100.128L86.859 99.3169C86.9829 99.2493 87.1293 99.3395 87.1293 99.4747V102.539C87.1293 102.663 87.0617 102.776 86.9604 102.832L85.5634 103.643C85.4394 103.711 85.293 103.621 85.293 103.485V100.421C85.293 100.297 85.3606 100.184 85.462 100.128Z" fill="#E7EBF4"/>
<path d="M88.9112 98.134L90.3082 97.3228C90.4321 97.2552 90.5786 97.3453 90.5786 97.4805V100.545C90.5786 100.669 90.511 100.781 90.4096 100.838L89.0126 101.649C88.8886 101.717 88.7422 101.626 88.7422 101.491V98.4269C88.7422 98.3029 88.8098 98.1903 88.9112 98.134Z" fill="#E7EBF4"/>
<path d="M92.3565 97.132L93.7535 96.3208C93.8774 96.2532 94.0239 96.3434 94.0239 96.4786V98.5515C94.0239 98.6755 93.9563 98.7881 93.8549 98.8444L92.4579 99.6556C92.334 99.7232 92.1875 99.6331 92.1875 99.4979V97.4249C92.1875 97.301 92.2551 97.1883 92.3565 97.132Z" fill="#E7EBF4"/>
<path d="M95.8174 95.1486L97.2144 94.3374C97.3384 94.2698 97.4848 94.36 97.4848 94.4952V96.5681C97.4848 96.6921 97.4172 96.8047 97.3158 96.861L95.9188 97.6722C95.7949 97.7398 95.6484 97.6497 95.6484 97.5145V95.4415C95.6484 95.3176 95.716 95.2049 95.8174 95.1486Z" fill="#E7EBF4"/>
<path d="M99.2627 93.1545L100.66 92.3433C100.784 92.2757 100.93 92.3658 100.93 92.501V94.574C100.93 94.6979 100.863 94.8106 100.761 94.8669L99.3641 95.6781C99.2402 95.7457 99.0938 95.6555 99.0938 95.5203V93.4474C99.0938 93.3234 99.1613 93.2108 99.2627 93.1545Z" fill="#E7EBF4"/>
<path d="M102.712 91.1603L104.109 90.3492C104.233 90.2816 104.379 90.3717 104.379 90.5069V92.5798C104.379 92.7038 104.312 92.8164 104.21 92.8728L102.813 93.6839C102.689 93.7515 102.543 93.6614 102.543 93.5262V91.4532C102.543 91.3293 102.611 91.2166 102.712 91.1603Z" fill="#E7EBF4"/>
<path d="M106.157 89.1662L107.554 88.355C107.678 88.2874 107.825 88.3775 107.825 88.5127V90.5857C107.825 90.7096 107.757 90.8223 107.656 90.8786L106.259 91.6898C106.135 91.7574 105.988 91.6673 105.988 91.5321V89.4591C105.988 89.3352 106.056 89.2225 106.157 89.1662Z" fill="#E7EBF4"/>
<path d="M109.606 87.1838L111.003 86.3726C111.127 86.305 111.274 86.3951 111.274 86.5303V88.6033C111.274 88.7272 111.206 88.8399 111.105 88.8962L109.708 89.7074C109.584 89.775 109.438 89.6848 109.438 89.5496V87.4767C109.438 87.3527 109.505 87.2401 109.606 87.1838Z" fill="#E7EBF4"/>
<path d="M113.052 85.1896L114.449 84.3785C114.573 84.3109 114.719 84.401 114.719 84.5362V88.592C114.719 88.7159 114.652 88.8286 114.55 88.8849L113.153 89.696C113.029 89.7636 112.883 89.6735 112.883 89.5383V85.4825C112.883 85.3586 112.95 85.2459 113.052 85.1896Z" fill="#E7EBF4"/>
<path d="M116.501 83.1955L117.898 82.3843C118.022 82.3167 118.168 82.4068 118.168 82.542V84.615C118.168 84.7389 118.101 84.8516 117.999 84.9079L116.602 85.7191C116.478 85.7867 116.332 85.6965 116.332 85.5614V83.4884C116.332 83.3645 116.4 83.2518 116.501 83.1955Z" fill="#E7EBF4"/>
</g>
<text fill="#F25F0A" style="white-space: pre" xml:space="preserve" font-family="Antonio" font-size="73.7258" font-weight="bold" letter-spacing="0.03em"><tspan x="93.1687" y="217.353">0</tspan></text>
<text fill="#F25F0A" style="white-space: pre" xml:space="preserve" font-family="Antonio" font-size="73.7258" font-weight="bold" letter-spacing="0.01em"><tspan x="31" y="217.353">10</tspan></text>
<text fill="#F25F0A" style="white-space: pre" xml:space="preserve" font-family="Antonio" font-size="18.4315" font-weight="bold" letter-spacing="0.03em"><tspan x="129.301" y="217.45">&#xff05;</tspan></text>
<defs>
<clipPath id="clip0_1_2464">
<rect width="45" height="61" fill="white" transform="matrix(-1 0 0 1 168 14)"/>
</clipPath>
<clipPath id="clip1_1_2464">
<rect width="127.431" height="84" fill="white" transform="translate(26 48)"/>
</clipPath>
</defs>
</svg>
