<svg width="473" height="280" viewBox="0 0 473 280" fill="none" xmlns="http://www.w3.org/2000/svg">
<rect width="472.5" height="280" fill="#E7EBF4"/>
<path d="M344.291 190.57L419.661 147.059C424.761 144.104 424.761 136.741 419.661 133.81L344.291 90.2984C339.549 87.5581 333.711 87.5581 328.969 90.2984L253.598 133.786C248.499 136.741 248.499 144.104 253.598 147.035L328.969 190.546C333.711 193.287 339.549 193.287 344.291 190.546V190.57Z" fill="#C5E0E0"/>
<path d="M423.502 140.388C423.502 142.985 422.239 145.559 419.665 147.036L344.295 190.547C339.553 193.288 333.715 193.288 328.973 190.547L253.602 147.06C251.029 145.582 249.766 142.985 249.766 140.388V145.725C249.766 148.299 251.052 150.872 253.602 152.35L328.973 195.861C333.715 198.602 339.553 198.602 344.295 195.861L419.665 152.35C422.215 150.872 423.502 148.299 423.502 145.725V140.388Z" fill="#316EA9"/>
<path d="M313.094 79.9247C312.998 80.0676 312.879 80.0676 312.76 80.1391C312.617 80.2344 312.593 80.3774 312.498 80.4965C312.331 80.7825 312.045 81.0208 311.712 81.0923C311.426 81.1638 311.092 81.1161 310.806 81.1638C310.735 81.1638 310.639 81.1638 310.568 81.1638C310.496 81.1399 310.449 81.0684 310.401 80.997C310.186 80.711 310.043 80.3059 310.186 79.9961C310.258 79.8532 310.377 79.7579 310.472 79.6625C310.735 79.4242 310.997 79.2098 311.235 78.9715C311.354 78.8524 311.497 78.7332 311.664 78.6617C311.95 78.5426 312.283 78.5664 312.593 78.6617C312.736 78.7094 312.903 78.757 313.022 78.8524C313.284 79.0668 313.237 79.6387 313.046 79.9008L313.094 79.9247Z" fill="#558BBF"/>
<path d="M311.711 74.2773C311.711 74.2773 311.807 74.0628 311.878 73.9675C311.974 73.896 312.116 73.9675 312.188 74.0628C312.259 74.1581 312.259 74.2773 312.236 74.3964C312.188 74.8015 311.997 75.1828 311.878 75.5879C311.831 75.7547 311.807 75.8977 311.735 76.0645C311.688 76.1836 311.616 76.2789 311.568 76.3742C311.425 76.6602 311.402 76.97 311.354 77.2797C311.354 77.2321 311.711 77.5657 311.711 77.7086C311.711 77.8516 311.711 78.1852 311.568 78.2567C310.925 78.5427 310.377 78.9001 309.638 78.8524C309.614 78.8524 309.567 78.8524 309.543 78.8048C309.543 78.8048 309.543 78.7571 309.543 78.7333C309.591 78.3044 309.805 77.9231 310.02 77.5657C310.234 77.2321 310.329 76.8985 310.472 76.541C310.806 75.7547 311.306 75.0398 311.711 74.2773Z" fill="#558BBF"/>
<path d="M312.589 77.0399C312.589 77.0399 312.684 77.2544 312.636 77.4689C312.47 78.2076 312.279 78.7795 311.707 79.2799C311.636 79.3513 311.564 79.399 311.469 79.4228C311.374 79.4467 311.278 79.4228 311.207 79.3513C311.135 79.256 311.207 79.1369 311.231 79.0177C311.35 78.7795 311.493 78.5412 311.612 78.3029C311.755 77.9931 311.779 77.9216 311.469 77.874C311.35 77.874 311.278 77.7072 311.278 77.5642C311.278 77.3497 311.302 77.1353 311.397 76.9446C311.397 76.9446 311.397 76.897 311.445 76.897C311.445 76.897 311.469 76.897 311.493 76.897C311.826 76.897 312.374 76.7778 312.589 77.0161V77.0399Z" fill="#558BBF"/>
<path d="M313.261 77.5426C313.261 77.5426 313.333 77.7809 313.261 77.9716C312.999 78.6864 312.737 79.2107 312.094 79.6634C312.022 79.7111 311.927 79.7587 311.831 79.7825C311.736 79.7825 311.641 79.7825 311.593 79.6872C311.546 79.5919 311.593 79.4728 311.665 79.3775C311.808 79.1392 311.998 78.9485 312.141 78.7102C312.332 78.4243 312.356 78.3528 312.046 78.2575C311.927 78.2098 311.879 78.0669 311.903 77.9239C311.903 77.7094 311.998 77.5188 312.094 77.3282C312.094 77.3282 312.117 77.2805 312.141 77.2805C312.141 77.2805 312.165 77.2805 312.189 77.2805C312.522 77.3282 313.071 77.2805 313.261 77.5426Z" fill="#558BBF"/>
<path d="M313.639 78.1871C313.639 78.1871 313.687 78.4016 313.616 78.5922C313.306 79.2118 313.044 79.6883 312.448 80.0219C312.377 80.0696 312.305 80.0934 312.21 80.1173C312.114 80.1173 312.043 80.0934 311.995 79.9981C311.948 79.9028 311.995 79.8075 312.091 79.7122C312.234 79.5215 312.424 79.3547 312.567 79.1403C312.758 78.902 312.805 78.8305 312.519 78.7352C312.4 78.6875 312.4 78.5446 312.424 78.4254C312.448 78.2348 312.543 78.068 312.639 77.9012C312.639 77.9012 312.662 77.8773 312.686 77.8535C312.686 77.8535 312.71 77.8535 312.734 77.8535C313.02 77.925 313.544 77.925 313.663 78.1633L313.639 78.1871Z" fill="#558BBF"/>
<path d="M309.496 78.8043C309.496 78.8043 309.496 78.7805 309.496 78.7567C309.615 78.4469 309.782 78.161 309.925 77.875C309.949 77.8274 309.997 77.7559 310.044 77.732C310.068 77.732 310.116 77.7082 310.163 77.6844C310.473 77.6367 310.783 77.5414 311.093 77.5176C311.379 77.5176 311.641 77.5652 311.903 77.5652C312.308 77.6606 312.689 77.7797 313.118 77.7797C313.261 77.7797 313.404 77.7797 313.499 77.875C313.595 77.9942 313.499 78.1848 313.38 78.3039C312.951 78.6614 312.451 78.3992 311.95 78.4707C311.903 78.4707 311.855 78.4707 311.831 78.5184C311.784 78.5422 311.76 78.5899 311.736 78.6375C311.641 78.8043 311.522 78.9473 311.641 79.1379C311.736 79.3047 311.855 79.4001 311.903 79.5907C311.998 79.9481 311.903 80.3056 311.855 80.663C311.736 81.3302 311.474 81.9497 311.164 82.5693C311.164 82.5931 311.14 82.617 311.116 82.6408C311.093 82.6408 311.069 82.6408 311.045 82.6408C310.402 82.4025 309.782 82.0451 309.258 81.6161C309.448 81.4255 309.877 80.9013 309.83 80.5915C309.83 80.4485 309.615 80.2579 309.544 80.0911C309.472 79.9243 309.425 79.7337 309.425 79.543C309.425 79.3047 309.425 79.0903 309.472 78.852L309.496 78.8043Z" fill="#558BBF"/>
<path d="M311.877 83.1893C311.877 83.1893 309.351 88.5985 306.635 92.8877C305.968 93.9361 304.609 94.3174 303.513 93.7693C302.536 93.2928 301.369 92.6732 300.368 92.149C295.983 89.7899 295.126 88.2887 295.126 88.2887C295.126 88.2887 293.434 86.8828 292.266 85.0718C291.408 83.7374 291.742 82.9272 292.719 82.6889C294.292 82.3315 295.507 81.7596 298.533 84.4761C300.416 86.1441 303.752 89.0512 303.752 89.0512L308.851 80.9971C308.851 80.9971 311.615 81.426 311.877 83.1655V83.1893Z" fill="#9CDBDC"/>
<path d="M281.443 109.616L281.992 101.967L280.324 86.8359C280.109 85.5253 280.633 84.2147 282.063 83.5475C285.328 82.0701 289.164 80.2353 295.36 82.642C296.217 82.9756 296.527 84.0003 296.813 84.8581C297.171 85.8828 297.337 87.0027 297.29 88.0988L297.218 89.9813C297.194 93.5557 297.147 97.13 297.123 100.704C297.123 102.968 296.98 105.208 296.837 107.472C296.765 108.473 296.837 109.998 296.837 109.998C296.837 109.998 294.978 111.666 289.474 111.618C283.469 111.594 281.491 109.592 281.491 109.592L281.443 109.616Z" fill="#D2DADC"/>
<path d="M281.187 150.388L280.52 152.294L280.71 154.867C280.71 154.867 281.806 155.654 283.069 155.654C283.856 156.297 285.428 157.751 288.621 157.822C289.312 157.822 290.504 157.179 289.98 156.488C289.67 156.059 286.334 154.153 284.666 150.316C282.879 150.149 281.187 150.388 281.187 150.388Z" fill="#558BBF"/>
<path d="M289.833 145.669L289.309 147.623L289.69 150.173C289.69 150.173 290.857 150.864 292.097 150.768C292.931 151.34 294.599 152.675 297.792 152.484C298.483 152.436 299.626 151.698 299.055 151.031C298.697 150.625 295.242 149.005 293.312 145.312C291.525 145.288 289.833 145.669 289.833 145.669Z" fill="#558BBF"/>
<path d="M291.243 80.7599C290.504 79.9497 287.597 79.5922 286.215 81.0458C286.12 81.7607 285.977 82.2134 285.977 82.2134L288.479 83.1189L291.171 82.7376C291.171 82.7376 291.314 81.3079 291.243 80.7599Z" fill="#BFD4D5"/>
<path d="M288.763 78.3291C287.69 78.3291 287.118 78.9487 287.118 79.4729L286.57 82.9996C286.618 83.6191 288.858 82.9519 290.073 82.9519C291.288 82.9519 291.074 83.6191 291.026 82.9996L290.502 79.3061C290.454 78.758 289.859 78.3291 288.786 78.3291H288.763Z" fill="#F9C3C0"/>
<path d="M288.303 69.7278C285.229 69.7278 284.371 72.0631 284.371 74.8749C284.371 78.5207 286.778 79.6406 287.993 79.9981C289.494 80.427 291.353 80.8321 292.497 77.9488C293.188 76.2331 293.164 73.2545 292.783 72.1107C292.449 71.1099 291.353 69.704 288.279 69.7278H288.303Z" fill="#F9C3C0"/>
<path d="M290.594 72.2527C290.665 72.0145 290.355 71.8238 290.117 71.8C288.973 71.7285 288.854 72.8008 288.163 73.3965C287.806 73.7063 287.401 73.9684 287.21 74.3735C286.972 74.8739 286.686 75.4696 286.662 76.0654C286.281 75.0169 284.851 77.6142 285.208 77.924C284.255 77.1615 283.564 76.3037 283.302 75.0645C283.207 74.6356 283.207 74.1829 283.183 73.754C283.159 72.4672 282.968 70.823 284.303 70.0843C284.517 69.9652 284.875 69.989 285.042 69.7984C285.208 69.6077 284.994 69.2265 285.232 68.9882C285.447 68.7499 285.78 68.6308 286.09 68.5593C287.305 68.2733 288.568 68.1065 289.783 68.4878C290.594 68.7499 291.332 69.155 292.071 69.5839C292.286 69.7031 292.5 69.846 292.691 70.0128C293.239 70.5371 293.429 71.3711 293.548 72.0859C293.691 72.9438 293.739 73.5395 293.358 74.3259C293.31 74.3973 293.215 74.4688 293.143 74.4212C293.096 74.3735 293.096 74.302 293.096 74.2305C293.096 74.1114 293.143 73.9684 293.048 73.8731C293.024 73.8493 292.977 73.8016 292.953 73.7778C292.834 73.7063 292.738 73.6348 292.619 73.5633C292.428 73.4204 292.381 73.1106 292.286 72.8961C292.166 72.6578 292.023 72.4434 291.809 72.2766C291.475 72.0145 290.951 71.943 290.617 72.2289L290.594 72.2527Z" fill="#316EA9"/>
<path d="M286.33 76.2548C286.33 76.2548 286.282 75.2064 285.377 75.3493C284.614 75.4685 284.638 75.9689 284.852 76.8267C285.067 77.6846 285.615 78.1135 286.139 78.0897C286.687 78.0658 286.33 76.2548 286.33 76.2548Z" fill="#F9C3C0"/>
<path d="M281.305 132.397L281.114 113.905L281.448 109.616C281.448 109.616 283.45 111.451 289.431 111.642C294.339 111.808 296.794 110.021 296.794 110.021L295.793 128.346L294.602 146.17C294.602 146.17 293.744 146.718 291.98 146.694C289.979 146.646 289.026 145.884 289.026 145.884L289.669 130.443L289.335 116.717L287.405 130.824L285.713 150.387C285.713 150.387 284.689 151.126 283.045 151.126C281.377 151.126 280.328 150.411 280.328 150.411L281.305 132.444V132.397Z" fill="#558BBF"/>
<path d="M290.195 111.57L290.934 88.5279C290.934 88.5279 293.126 86.431 292.149 82.1418C292.149 82.0465 292.102 81.9512 292.078 81.8559C292.078 81.8082 292.078 81.7605 292.078 81.7129C292.102 81.7129 292.149 81.7129 292.173 81.7129C293.15 81.9035 294.199 82.1895 295.342 82.6422C296.2 82.9758 296.605 84.0005 296.915 84.8583C297.272 85.8829 297.487 87.0267 297.439 88.099L297.368 89.9815C297.344 93.5558 297.249 97.154 297.225 100.728C297.225 102.992 297.058 105.184 296.891 107.448C296.82 108.449 296.796 110.117 296.796 110.117C296.796 110.117 295.104 111.618 290.195 111.737V111.499V111.57Z" fill="#9CDBDC"/>
<path d="M282.04 83.5469C283.112 83.0465 284.28 82.5223 285.543 82.1172C285.543 82.1172 286.71 84.7622 290.904 88.5272C290.833 92.864 290.666 111.784 290.666 111.784C290.332 111.856 289.832 111.951 289.403 111.951C288.331 111.951 287.401 111.879 286.567 111.76C284.876 111.498 283.017 111.188 281.42 109.925C281.42 109.854 281.42 109.735 281.42 109.616C281.468 108.114 281.849 103.396 281.945 102.11V101.967L281.826 100.871L281.254 95.6282L280.277 86.8353C280.062 85.5247 280.586 84.2141 282.016 83.5469H282.04Z" fill="#9CDBDC"/>
<path d="M281.395 96.4845C281.395 96.4845 281.895 94.3161 282.681 91.123C282.205 95.722 281.99 96.4607 281.561 98.0096L281.395 96.4845Z" fill="#9CDBDC"/>
<path d="M290.066 82.9272C290.066 82.9272 291.02 82.1409 291.234 80.7588C291.234 80.7588 291.782 81.4737 292.092 81.8549C292.33 83.4515 292.068 84.2378 291.734 85.0956C290.972 83.8327 290.09 82.9272 290.09 82.9272" fill="#EBF1F1"/>
<path d="M283.974 100.538L283.163 95.0812C283.497 88.5759 281.948 83.5957 281.948 83.5957C278.803 85.0969 278.874 86.8126 278.445 90.1486C278.445 90.1486 278.636 99.9661 281.066 102.135C283.187 104.327 283.95 100.538 283.95 100.538H283.974Z" fill="#9CDBDC"/>
<path d="M297.887 104.421L288.617 106.684V94.2934L297.887 92.0059V104.421Z" fill="#316EA9"/>
<path d="M296.531 96.3905C297.055 96.1045 297.579 95.8424 298.127 95.5803C298.294 95.5088 298.461 95.4135 298.651 95.4373C298.842 95.4612 299.009 95.6041 299.009 95.7709C299.009 95.9139 298.866 96.033 298.747 96.1284C298.508 96.319 298.27 96.4858 298.032 96.6764C298.175 96.7717 298.222 96.9862 298.175 97.153C298.127 97.3198 298.008 97.4628 297.889 97.5819C298.032 97.6772 298.079 97.8917 298.032 98.0585C297.937 98.4874 298.079 98.6066 298.032 98.9878C298.008 99.2976 297.651 99.4167 297.388 99.5835C297.222 99.6789 297.102 99.8218 296.936 99.8933C296.721 99.9886 296.483 100.012 296.268 100.012C295.125 100.036 294.124 99.941 293.004 100.251C292.813 99.5836 292.527 98.4636 292.289 97.8202C293.123 97.5581 293.981 97.7011 294.743 97.3198C295.339 97.01 295.911 96.7003 296.507 96.3905H296.531Z" fill="#558BBF"/>
<path d="M294.167 100.299C294.215 99.2985 294.12 98.2739 293.905 97.2969C289.854 97.7735 285.78 98.2739 281.729 98.7981C281.49 98.8219 281.204 98.8696 281.062 99.0602C280.942 99.2032 280.919 99.3938 280.895 99.5844C280.823 100.204 280.752 100.824 280.919 101.419C281.586 103.659 285.089 102.492 286.685 102.229C289.211 101.801 291.713 101.157 294.144 100.299H294.167Z" fill="#9CDBDC"/>
<path d="M290.073 82.9288C290.073 82.9288 289.477 84.3585 288.977 85.6929C287.547 85.0972 286.57 84.3585 285.402 82.4999C285.736 81.9518 286.213 81.0225 286.213 81.0225C286.213 81.0225 287.881 82.6428 290.073 82.9288Z" fill="#EBF1F1"/>
<path d="M283.904 93.3163L286.763 93.9835L289.075 92.3393L288.979 90.8857L283.809 91.8866L283.904 93.3163Z" fill="white"/>
<path d="M292.453 90.1487L292.596 91.5784L294.979 92.1741L296.718 90.6729L296.576 89.2432L292.453 90.1487Z" fill="white"/>
<path d="M285.709 78.7107C285.709 78.7107 285.661 78.7108 285.614 78.7346C285.518 78.7346 285.423 78.7107 285.352 78.6154C283.874 76.7091 283.398 75.0411 283.374 74.9696C283.326 74.7552 283.398 74.5407 283.564 74.4692C283.731 74.3977 283.898 74.5169 283.97 74.7075C283.97 74.7075 284.375 76.1134 285.542 77.7338C286.4 76.1849 287.091 74.7552 287.091 74.7313C287.186 74.5407 287.377 74.493 287.52 74.5884C287.663 74.7075 287.711 74.9458 287.639 75.1126C287.639 75.1126 286.829 76.8283 285.828 78.5678C285.781 78.6393 285.733 78.6869 285.685 78.7107H285.709Z" fill="#9CDBDC"/>
<path d="M294.507 73.1335C294.555 74.5632 292.363 75.7546 289.622 75.8261C286.882 75.8976 284.642 74.8015 284.595 73.3718C284.547 71.942 286.739 70.7506 289.479 70.6791C292.22 70.6076 294.46 71.7037 294.507 73.1335Z" fill="#F25F0A"/>
<path d="M293.599 71.1564C293.05 68.3684 290.096 66.5098 286.974 67.0578C283.853 67.5821 281.779 70.2747 282.304 73.0865C282.304 73.1104 282.399 73.5154 282.399 73.5154C282.709 75.1358 285.497 76.0175 288.595 75.4932C291.692 74.969 293.98 73.2295 293.67 71.6091C293.67 71.6091 293.599 71.204 293.575 71.1802L293.599 71.1564Z" fill="#F25F0A"/>
<path d="M285.878 78.0908C285.878 78.0908 287.189 80.2354 289.953 80.2354C288.714 80.4737 286.212 79.9256 285.211 78.3291L285.878 78.0908Z" fill="#9CDBDC"/>
<path d="M291.791 81.4736C291.791 81.4736 292.697 85.3101 290.934 88.527C294.222 85.3577 295.008 83.237 295.008 83.237L291.791 81.4736Z" fill="#558BBF"/>
<path d="M285.751 81.7129C285.751 81.7129 287.419 85.454 290.922 88.5279C285.656 86.1927 283.773 84.0243 283.773 84.0243L285.751 81.7129Z" fill="#558BBF"/>
<path d="M326.639 102.045C326.591 102.259 326.615 102.521 326.591 102.664C326.591 103.284 326.544 103.951 326.591 104.571C326.639 105.071 326.949 105.595 327.14 106.024C327.187 106.143 327.259 106.286 327.402 106.334C327.545 106.382 327.688 106.31 327.759 106.191C327.926 105.976 327.926 105.69 327.926 105.428C327.926 105.428 327.926 105.405 327.926 105.381C327.926 105.381 327.95 105.381 327.974 105.357C328.093 105.309 328.188 105.19 328.212 105.047C328.26 104.928 328.26 104.785 328.26 104.642C328.331 104.642 328.426 104.594 328.474 104.547C328.593 104.428 328.665 104.237 328.665 104.07C328.665 103.879 328.665 103.689 328.665 103.474C328.665 103.069 328.688 102.64 328.665 102.235C328.665 102.092 328.665 101.878 328.545 101.806C328.379 101.687 328.093 101.711 327.902 101.687C327.64 101.687 327.116 101.52 326.877 101.64C326.758 101.687 326.687 101.854 326.663 102.021L326.639 102.045Z" fill="#316EA9"/>
<path d="M327.233 103.285C327.257 103.095 327.281 102.88 327.304 102.689C327.304 102.594 327.352 102.475 327.352 102.38C327.352 102.308 327.352 102.261 327.352 102.189C327.447 102.332 327.4 102.618 327.376 102.785C327.376 103.095 327.328 103.404 327.304 103.714C327.304 103.905 327.304 104.119 327.4 104.286C327.519 104.453 327.781 104.524 327.9 104.357C327.948 104.262 327.948 104.167 327.948 104.072C327.948 103.643 328.067 103.214 328.281 102.832C328.424 102.594 328.591 102.38 328.686 102.118C328.782 101.855 328.782 101.57 328.782 101.284C328.782 100.878 328.329 100.45 328.305 100.068C328.281 99.687 328.353 99.2819 328.401 98.9007C328.472 98.0428 328.877 97.185 328.949 96.3271L326.518 96.4225L326.613 99.9253C326.613 100.021 326.542 100.211 326.518 100.33C326.494 100.521 326.447 100.712 326.423 100.902C326.375 101.284 326.327 101.689 326.304 102.07C326.28 102.594 326.304 103.095 326.304 103.619C326.327 104.143 326.447 104.524 326.59 105.025C326.732 105.477 326.685 106.24 327.018 106.597C327.114 106.693 327.304 106.74 327.376 106.621C327.424 106.574 327.424 106.478 327.424 106.407C327.447 105.549 327.209 104.786 327.138 103.952C327.138 103.738 327.138 103.5 327.185 103.285H327.233Z" fill="#558BBF"/>
<path d="M326.136 89.5091C326.136 89.5091 326.47 82.6464 326.684 78.3572C326.851 74.7829 327.661 74.0203 330.402 73.1387C332.689 76.022 330.521 90.0095 330.521 90.0095L329.258 99.2313L325.922 98.7547L326.136 89.4853V89.5091Z" fill="#9CDBDC"/>
<path d="M343.51 100.4L342.962 92.7514L344.63 77.6201C344.845 76.3095 344.321 74.9989 342.891 74.3317C339.626 72.8543 335.79 71.0195 329.594 73.4262C328.737 73.7598 328.427 74.7845 328.141 75.6423C327.783 76.6669 327.617 77.7869 327.664 78.883L327.736 80.7655C327.76 84.3398 327.807 87.9142 327.831 91.4885C327.831 93.7522 327.974 95.9921 328.117 98.2559C328.188 99.2567 328.117 100.782 328.117 100.782C328.117 100.782 329.976 102.45 335.48 102.402C341.485 102.378 343.463 100.377 343.463 100.377L343.51 100.4Z" fill="#D2DADC"/>
<path d="M341.25 138.766L341.918 140.672L341.727 143.245C341.727 143.245 340.631 144.032 339.368 144.032C338.582 144.675 337.009 146.129 333.816 146.2C333.125 146.2 331.933 145.557 332.458 144.866C332.767 144.437 336.103 142.53 337.771 138.694C339.559 138.527 341.25 138.766 341.25 138.766Z" fill="#558BBF"/>
<path d="M336.654 137.811L337.178 139.765L336.797 142.314C336.797 142.314 335.63 143.005 334.39 142.91C333.556 143.482 331.888 144.816 328.695 144.626C328.004 144.578 326.86 143.839 327.432 143.172C327.79 142.767 331.245 141.147 333.175 137.453C334.962 137.429 336.654 137.811 336.654 137.811Z" fill="#558BBF"/>
<path d="M333.715 71.5421C334.454 70.7319 337.361 70.3745 338.743 71.828C338.839 72.5429 338.982 72.9956 338.982 72.9956L336.479 73.9011L333.787 73.5199C333.787 73.5199 333.644 72.0901 333.715 71.5421Z" fill="#BFD4D5"/>
<path d="M336.195 69.1113C337.268 69.1113 337.84 69.7309 337.84 70.2551L338.388 73.7818C338.34 74.4013 336.1 73.7341 334.885 73.7341C333.669 73.7341 333.884 74.4013 333.932 73.7818L334.456 70.0883C334.503 69.5402 335.099 69.1113 336.171 69.1113H336.195Z" fill="#F9C3C0"/>
<path d="M336.652 60.512C339.726 60.512 340.583 62.8472 340.583 65.6591C340.583 69.3049 338.177 70.4248 336.938 70.7823C335.436 71.2112 333.578 71.6163 332.434 68.733C331.743 67.0173 331.767 64.0387 332.148 62.8949C332.482 61.8941 333.578 60.4882 336.652 60.512Z" fill="#F9C3C0"/>
<path d="M334.314 63.5595C334.671 63.2498 335.029 62.94 335.338 62.6064C336.196 63.2498 336.887 64.1553 337.269 65.1561C337.388 65.0608 337.483 64.9654 337.602 64.8463C337.793 65.3944 337.888 65.9901 337.864 66.5858C337.96 66.5382 338.079 66.4905 338.174 66.4667C338.007 66.5382 339.032 67.2768 339.127 67.3483C339.556 67.7058 339.723 68.23 339.771 68.7781C339.961 68.6351 340.104 68.4683 340.271 68.2777C340.581 67.8964 340.843 67.4437 341.105 67.0147C341.224 66.8479 341.32 66.6811 341.415 66.5143C341.725 65.8471 341.582 65.1561 341.725 64.465C341.868 63.774 341.725 62.94 341.439 62.3204C341.272 61.9868 341.057 61.6771 340.795 61.4149C340.557 61.1767 339.985 60.986 339.818 60.7239C339.818 60.7239 337.936 58.1266 333.48 60.3188C332.717 60.7001 332.098 61.7247 331.788 62.5111C331.502 63.2498 331.192 64.608 331.859 65.2037C331.907 65.0608 331.955 64.9416 332.074 64.8463C332.193 64.7272 332.336 64.6318 332.479 64.5365C332.693 64.3936 332.979 64.2506 333.146 64.06C332.979 64.2268 332.789 64.4174 332.622 64.5842C332.789 64.6795 332.979 64.5842 333.122 64.4889C333.527 64.2268 333.933 63.9408 334.314 63.631V63.5595Z" fill="#9CDBDC"/>
<path d="M338.622 67.04C338.622 67.04 338.67 65.9915 339.575 66.1345C340.338 66.2536 340.314 66.754 340.1 67.6119C339.885 68.4697 339.337 68.8986 338.813 68.8748C338.265 68.851 338.622 67.04 338.622 67.04Z" fill="#F9C3C0"/>
<path d="M342.771 123.205L343.843 104.714L343.51 100.425C343.51 100.425 341.508 102.26 335.527 102.45C330.618 102.617 328.164 100.83 328.164 100.83L329.594 121.227L331.786 138.432C331.786 138.432 332.501 138.98 333.954 138.956C335.622 138.908 336.981 138.003 336.981 138.003L336.171 122.038L335.742 104.476L336.48 122.562L337.529 138.98C337.529 138.98 339.125 139.48 340.484 139.48C341.866 139.48 342.747 138.765 342.747 138.765V123.205H342.771Z" fill="#558BBF"/>
<path d="M334.763 102.354L333.953 79.2635C333.953 79.2635 332.189 77.2619 332.785 72.925C332.785 72.8297 332.833 72.7344 332.856 72.6391C332.856 72.5914 332.856 72.5438 332.856 72.4961C332.833 72.4961 332.785 72.4961 332.761 72.4961C331.784 72.6867 330.736 72.9727 329.592 73.4254C328.734 73.759 328.329 74.7837 328.019 75.6415C327.662 76.6661 327.447 77.8099 327.495 78.8822L327.566 80.7647C327.59 84.339 327.686 87.9372 327.709 91.5115C327.709 93.7753 327.876 95.9675 328.043 98.2313C328.114 99.2321 328.138 100.9 328.138 100.9C328.138 100.9 329.83 102.401 334.739 102.52V102.282L334.763 102.354Z" fill="#9CDBDC"/>
<path d="M342.916 74.3321C341.844 73.8317 340.676 73.3074 339.413 72.9023C339.413 72.9023 338.198 75.6903 334.004 79.2408C334.075 83.5777 334.314 102.569 334.314 102.569C334.647 102.641 335.148 102.736 335.577 102.736C336.649 102.736 337.578 102.665 338.412 102.545C340.104 102.283 341.963 101.974 343.559 100.711C343.559 100.639 343.559 100.52 343.559 100.401C343.512 98.8996 343.13 94.1815 343.035 92.8948V92.7518L343.154 91.6557L343.726 86.4133L344.703 77.6205C344.918 76.3099 344.393 74.9993 342.964 74.3321H342.916Z" fill="#9CDBDC"/>
<path d="M334.879 73.7348C334.879 73.7348 333.926 72.9485 333.712 71.5664C333.712 71.5664 333.164 72.2813 332.854 72.6625C332.615 74.2591 332.878 75.0454 333.211 75.9033C333.974 74.6403 334.855 73.7348 334.855 73.7348" fill="#EBF1F1"/>
<path d="M345.793 104.33C345.84 104.545 345.793 104.807 345.793 104.95C345.793 105.569 345.793 106.236 345.745 106.856C345.697 107.356 345.364 107.857 345.149 108.31C345.102 108.429 345.03 108.572 344.887 108.619C344.744 108.667 344.601 108.572 344.53 108.476C344.363 108.262 344.363 107.976 344.363 107.714C344.363 107.714 344.363 107.69 344.363 107.666C344.363 107.666 344.363 107.666 344.315 107.642C344.196 107.595 344.125 107.452 344.077 107.333C344.053 107.213 344.053 107.07 344.053 106.928C343.982 106.928 343.886 106.88 343.839 106.808C343.72 106.665 343.672 106.499 343.672 106.332C343.672 106.141 343.672 105.951 343.672 105.736C343.672 105.331 343.672 104.902 343.72 104.497C343.72 104.354 343.72 104.14 343.863 104.068C344.029 103.949 344.315 103.973 344.506 103.973C344.768 103.973 345.292 103.83 345.531 103.973C345.65 104.044 345.721 104.187 345.745 104.354L345.793 104.33Z" fill="#316EA9"/>
<path d="M345.152 105.572C345.152 105.381 345.104 105.166 345.08 104.976C345.08 104.88 345.057 104.761 345.057 104.666C345.057 104.595 345.057 104.547 345.057 104.475C344.937 104.618 345.009 104.904 345.009 105.071L345.057 106C345.057 106.191 345.057 106.406 344.961 106.572C344.842 106.739 344.556 106.787 344.461 106.62C344.413 106.525 344.413 106.429 344.413 106.31C344.413 105.881 344.318 105.452 344.127 105.071C344.008 104.833 343.841 104.595 343.746 104.332C343.651 104.07 343.675 103.784 343.675 103.498C343.675 103.093 344.08 102.688 344.127 102.307C344.175 101.926 344.08 101.521 344.08 101.139C344.032 100.281 343.698 99.3998 343.675 98.542L346.081 98.7088L345.891 102.212C345.891 102.307 345.962 102.498 345.962 102.617C345.962 102.807 346.01 102.998 346.034 103.189C346.081 103.57 346.105 103.975 346.105 104.356C346.105 104.88 346.105 105.381 346.057 105.905C346.01 106.429 345.891 106.811 345.748 107.311C345.605 107.764 345.605 108.526 345.271 108.884C345.176 108.979 344.985 109.003 344.914 108.884C344.866 108.836 344.866 108.741 344.866 108.669C344.866 107.811 345.128 107.049 345.223 106.215C345.223 106 345.223 105.762 345.223 105.548L345.152 105.572Z" fill="#558BBF"/>
<path d="M343.014 74.4018C346.159 75.903 346.66 76.2128 347.089 79.5488L347.017 91.9875L346.469 102.043L343.157 101.805L343.419 91.9875L342.656 83.2184C340.488 76.451 343.014 74.3779 343.014 74.3779V74.4018Z" fill="#9CDBDC"/>
<path d="M334.883 73.7374C334.883 73.7374 335.479 75.1671 335.979 76.5015C337.409 75.9058 338.386 75.1671 339.553 73.3084C339.22 72.7604 338.743 71.8311 338.743 71.8311C338.743 71.8311 337.075 73.4514 334.883 73.7374Z" fill="#EBF1F1"/>
<path d="M341.53 84.9345L338.695 85.6017L336.359 83.9336L336.479 82.5039L341.649 83.5047L341.53 84.9345Z" fill="white"/>
<path d="M333 81.7424L332.857 83.1721L330.474 83.7917L328.734 82.2666L328.877 80.8369L333 81.7424Z" fill="white"/>
<path d="M339.388 69.5893C339.388 69.5893 339.459 69.5893 339.483 69.5893C339.578 69.5893 339.673 69.5416 339.721 69.4702C341.079 67.5877 341.461 65.9435 341.484 65.872C341.532 65.6814 341.437 65.4669 341.27 65.4193C341.103 65.3716 340.936 65.4669 340.889 65.6814C340.889 65.6814 340.555 67.0396 339.483 68.6362C338.53 67.2064 337.767 65.872 337.767 65.872C337.672 65.7052 337.481 65.6575 337.338 65.7529C337.195 65.872 337.148 66.0865 337.267 66.2771C337.267 66.2771 338.172 67.8736 339.268 69.4702C339.316 69.5178 339.364 69.5655 339.411 69.5893H339.388Z" fill="#9CDBDC"/>
<path d="M330.571 64.8956C330.594 66.3015 332.858 67.3738 335.598 67.2785C338.339 67.1832 340.531 65.9441 340.507 64.5382C340.483 63.1323 338.22 62.06 335.479 62.1553C332.739 62.2506 330.547 63.4897 330.571 64.8956Z" fill="#F25F0A"/>
<path d="M331.021 63.2269C330.807 64.7758 333.166 66.3247 336.311 66.6583C339.457 66.9919 342.173 66.0149 342.388 64.466C342.388 64.466 342.435 64.0609 342.435 64.0371C342.817 61.3444 340.577 58.89 337.431 58.5564C334.286 58.2228 331.45 60.1291 331.069 62.8218C331.069 62.8456 331.021 63.2507 331.021 63.2507V63.2269Z" fill="#F25F0A"/>
<path d="M339.19 69.0186C339.19 69.0186 337.998 71.1155 335.258 71.2823C336.497 71.4253 338.975 70.7819 339.881 69.2092L339.19 69.0186Z" fill="#9CDBDC"/>
<path d="M333.265 72.1885C333.265 72.1885 332.288 76.0011 333.979 79.2657C330.763 76.0488 330 73.9042 330 73.9042L333.265 72.2123V72.1885Z" fill="#558BBF"/>
<path d="M339.267 72.543C339.267 72.543 337.527 76.2603 333.977 79.2389C339.29 77.0228 341.197 74.8782 341.197 74.8782L339.267 72.543Z" fill="#558BBF"/>
<path d="M380.004 82.3819L389.011 82.9061L385.77 69.3237C385.365 68.0131 386.271 67.1076 387.629 66.9408C388.701 66.7978 389.392 67.0599 389.702 67.465C391.799 70.4675 392.443 76.2102 392.8 80.3803C392.919 81.6432 392.991 83.3827 392.967 84.8124C392.967 86.0039 392.014 87.0047 390.822 87.0524C385.699 87.1953 380.338 84.8601 380.338 84.8601L380.028 82.4057L380.004 82.3819Z" fill="#9CDBDC"/>
<path d="M384.14 64.511C384.14 64.511 380.804 63.2481 378.611 65.2736C378.468 65.917 378.254 66.7986 378.254 66.7986C378.254 66.7986 381.447 68.7049 384.759 66.6318C384.616 66.0599 384.14 64.511 384.14 64.511Z" fill="#91B1B3"/>
<path d="M376.593 54.9073C377.022 53.9065 378.285 52.5721 381.573 52.8342C384.861 53.0963 385.552 55.5269 385.386 58.3863C385.29 60.0067 384.623 61.3888 383.575 62.2466C383.289 62.4849 383.17 62.89 383.265 63.2474C383.503 64.2482 383.956 66.0592 383.956 66.0592C383.956 66.655 382.86 67.203 381.525 67.3222C380.191 67.4175 379.119 67.0362 379.142 66.4405L379.19 63.1998C377.403 63.1045 376.617 62.5087 376.14 60.6263C375.687 58.7914 376.14 56.0749 376.617 54.9312L376.593 54.9073Z" fill="#F9C3C0"/>
<path d="M386.69 134.948C387.31 136.354 386.976 137.784 386.976 137.784C386.976 137.784 386.762 139.047 384.307 138.642C383.783 138.546 383.211 138.427 382.735 138.165C382.353 137.951 382.186 137.712 381.71 137.641C381.043 137.546 380.352 137.546 379.684 137.426C379.065 137.331 378.422 137.117 377.873 136.807C377.707 136.712 377.564 136.616 377.421 136.497C375.872 135.21 375.634 134.615 376.134 133.924C376.444 133.471 377.159 133.185 379.875 133.638C380.542 133.757 381.448 134.138 382.472 134.186C382.83 134.186 383.163 134.162 383.497 134.019C383.878 133.852 384.45 133.781 385.046 133.9C385.88 134.067 386.523 134.519 386.69 134.972V134.948Z" fill="#558BBF"/>
<path d="M386.691 135.282C386.81 134.71 386.072 134.091 385.023 133.876C383.999 133.686 383.069 133.972 382.95 134.543C382.831 135.115 383.57 135.735 384.618 135.949C385.667 136.164 386.572 135.854 386.691 135.282Z" fill="#316EA9"/>
<path d="M377.373 139.903C378.064 141.285 377.778 142.715 377.778 142.715C377.778 142.715 377.635 143.978 375.157 143.692C374.632 143.62 374.061 143.525 373.56 143.287C373.179 143.096 372.988 142.858 372.512 142.81C371.844 142.739 371.153 142.763 370.486 142.691C369.867 142.62 369.223 142.453 368.651 142.143C368.485 142.048 368.318 141.952 368.175 141.857C366.578 140.642 366.316 140.046 366.769 139.331C367.055 138.879 367.746 138.545 370.486 138.879C371.177 138.95 372.059 139.307 373.107 139.331C373.465 139.331 373.798 139.26 374.108 139.117C374.489 138.926 375.038 138.855 375.657 138.926C376.491 139.045 377.158 139.474 377.349 139.927L377.373 139.903Z" fill="#558BBF"/>
<path d="M377.425 140.213C377.52 139.642 376.734 139.046 375.709 138.879C374.684 138.712 373.755 139.07 373.684 139.642C373.588 140.213 374.375 140.809 375.399 140.976C376.424 141.143 377.353 140.785 377.425 140.213Z" fill="#316EA9"/>
<path d="M371.656 93.6291L371.346 102.636L370.989 117.148L371.727 139.214C371.727 139.214 373.681 140.477 378.209 139.285C378.209 137.117 377.947 119.674 377.947 119.674L380.02 102.35L380.568 118.864L381.116 133.971C381.116 133.971 383.856 135.496 387.383 134.138C387.383 133.209 387.192 119.102 387.192 119.102L387.764 97.6085L387.335 93.1287C387.335 93.1287 384.785 94.7014 380.663 94.9635C374.372 95.3924 371.703 93.6291 371.703 93.6291H371.656Z" fill="#558BBF"/>
<path d="M387.935 93.7719C387.935 93.7719 384.742 94.7013 380.619 94.9872C374.329 95.4161 371.207 93.8196 371.207 93.8196L371.493 91.2222C371.493 91.2222 372.136 84.3119 372.303 81.0473C372.446 78.5215 372.684 71.3728 373.804 69.252C375.472 66.0828 382.192 65.4632 386.553 66.059C391.462 66.7262 390.604 70.5388 390.318 72.3498C388.435 83.5255 387.887 89.2683 387.887 89.2683L387.935 93.7958V93.7719Z" fill="#9CDBDC"/>
<path d="M384.14 64.5107C384.14 64.5107 382.734 66.4647 378.611 65.2733L378.254 66.7983C378.254 66.7983 381.9 68.7999 384.664 66.3217C384.521 65.6307 384.14 64.5107 384.14 64.5107Z" fill="#EBF1F1"/>
<path d="M378.474 58.6244C378.355 58.1002 378.259 57.5521 378.14 57.0279C377.95 56.0509 377.306 56.027 376.687 55.2884C376.306 54.8356 376.091 54.2161 376.282 53.668C376.353 53.4535 376.472 53.2391 376.639 53.0723C377.14 52.5004 377.831 52.2144 378.569 52.0476C379.284 51.8808 379.928 51.6187 380.619 51.4757C382.048 51.1898 383.621 51.4042 384.55 52.6434C384.741 52.9055 385.456 53.0961 385.742 53.382C386.147 53.7871 386.433 54.3114 386.6 54.8356C387.052 56.1462 386.838 57.6474 386.933 59.0295C386.814 58.9342 386.623 59.0295 386.576 59.1486C386.504 59.2916 386.528 59.4346 386.528 59.5776C386.528 60.2209 386.052 60.769 385.623 61.2456C385.432 61.1026 385.17 61.1026 384.955 61.2217C384.384 61.4839 384.121 62.2464 383.407 62.3179C383.001 62.3655 382.525 62.2226 382.12 62.1749C382.024 62.1749 381.953 62.1749 381.881 62.1749C381.81 62.2226 381.762 62.3417 381.834 62.3894C381.214 62.2226 380.642 61.7936 380.285 61.2694C379.808 60.6022 379.904 60.2924 380.07 59.5776C380.237 58.815 380.166 57.9334 379.522 57.6474C378.903 57.3853 378.641 58.0287 378.474 58.5529V58.6244Z" fill="#316EA9"/>
<path d="M380.465 60.4017C381.174 59.6598 381.148 58.4833 380.406 57.7738C379.664 57.0644 378.487 57.0907 377.778 57.8326L375.637 60.0714C374.928 60.8133 374.954 61.9898 375.696 62.6993C376.438 63.4087 377.614 63.3824 378.324 62.6405L380.465 60.4017Z" fill="#9CDBDC"/>
<path d="M377.256 59.7212C377.256 59.7212 377.184 59.7212 377.16 59.6735C377.089 59.6259 377.017 59.5306 377.017 59.4352C376.779 57.2192 377.28 55.7894 377.28 55.7179C377.351 55.5511 377.542 55.4558 377.708 55.5035C377.875 55.575 377.971 55.7418 377.923 55.9324C377.923 55.9324 377.518 57.1238 377.637 58.9587C379.162 58.4821 380.473 57.9579 380.496 57.9579C380.663 57.8864 380.854 57.9579 380.925 58.1485C380.997 58.3153 380.925 58.5059 380.735 58.5774C380.735 58.5774 379.162 59.197 377.446 59.7212C377.375 59.7212 377.327 59.7212 377.256 59.7212Z" fill="#9CDBDC"/>
<path d="M370.867 67.1792L372.797 64.3198L373.036 62.7709C373.226 62.1275 373.631 61.1743 374.013 60.6024C374.418 59.9829 374.727 59.5063 374.823 59.3633C374.99 59.1489 375.204 58.9344 375.347 59.0536C375.466 59.1489 375.347 59.4587 375.347 59.4587C375.347 59.4587 375.752 58.6485 375.824 58.5293C375.895 58.4102 376.062 58.2196 376.229 58.3149C376.395 58.4102 376.348 58.72 376.348 58.72C376.515 58.3864 376.705 58.3149 376.848 58.3864C377.039 58.4578 376.967 58.9583 376.967 58.9583C376.967 58.9583 377.325 58.8629 377.206 59.5778C377.087 60.2212 376.157 61.9845 376.157 61.9845C376.086 62.3896 375.99 62.7709 376.11 63.0568C376.181 63.2236 376.372 63.3428 376.562 63.3428C376.681 63.3428 377.039 63.1283 377.158 63.1045C377.468 63.033 378.516 62.8662 378.564 63.3666C378.564 63.3904 378.564 63.4143 378.564 63.4381C378.564 63.4619 378.516 63.4857 378.492 63.4857C378.302 63.5811 378.087 63.6287 377.897 63.7002C377.468 63.8432 377.063 63.9861 376.634 64.1291C376.634 64.1291 376.634 64.1291 376.61 64.1291C376.276 64.2244 375.99 64.4389 375.776 64.701C375.228 65.3444 374.299 65.6303 374.299 65.6303L373.179 68.323L370.915 67.1554L370.867 67.1792Z" fill="#558BBF"/>
<path d="M365.605 79.474C364.318 78.7353 363.77 76.281 365.558 73.1355C367.345 69.9901 369.418 68.5127 370.419 66.9639C371.491 66.9639 373.159 67.2022 373.516 68.4413C373.04 69.6327 368.107 80.9038 365.629 79.474H365.605Z" fill="#9CDBDC"/>
<path d="M365.603 79.4762C366.079 79.786 367.938 79.7621 369.725 78.3324C373.705 75.1393 375.349 73.1139 375.349 73.1139C375.349 73.1139 377.255 71.4935 377.613 69.3251C377.875 67.7047 377.017 66.7516 376.064 67.109C374.443 67.7286 373.395 67.6332 371.179 69.897C369.368 71.7318 367.867 72.5182 366.508 74.6389C366.032 75.4015 364.507 78.7852 365.603 79.4524V79.4762Z" fill="#9CDBDC"/>
<path d="M386.353 57.7646C387.192 56.2283 385.418 53.6435 382.392 51.9914C379.365 50.3393 376.232 50.2454 375.394 51.7817C374.555 53.318 376.328 55.9028 379.355 57.5549C382.381 59.207 385.515 59.3009 386.353 57.7646Z" fill="#F25F0A"/>
<path d="M387.41 58.5272C388.864 55.8584 387.577 52.3794 384.551 50.7113C381.525 49.0671 377.879 49.8773 376.425 52.5223C376.425 52.5462 376.187 52.9512 376.187 52.9512C375.353 54.4763 377.116 57.0736 380.167 58.7178C383.193 60.362 386.338 60.4573 387.172 58.9323C387.172 58.9323 387.387 58.551 387.41 58.5034V58.5272Z" fill="#F25F0A"/>
<text fill="#243D59" style="white-space: pre" xml:space="preserve" font-family="Antonio" font-size="204.717" font-weight="bold" letter-spacing="0em"><tspan x="36.5" y="224.929">64</tspan></text>
<text fill="#243D59" style="white-space: pre" xml:space="preserve" font-family="Noto Sans JP" font-size="51.1794" font-weight="bold" letter-spacing="0.06em"><tspan x="236.953" y="216.994">&#x7a2e;</tspan></text>
<g clip-path="url(#clip0_1_2346)">
<path d="M362.544 221.852L434.472 180.233C437.182 178.659 437.182 174.749 434.472 173.2L394.557 150.092C392.05 148.645 388.96 148.645 386.453 150.092L314.525 191.711C311.815 193.285 311.815 197.196 314.525 198.745L354.44 221.852C356.947 223.299 360.037 223.299 362.544 221.852Z" fill="white"/>
<path d="M436.5 176.704C436.5 178.075 435.842 179.447 434.474 180.234L362.546 221.852C360.038 223.299 356.949 223.299 354.441 221.852L314.526 198.77C313.158 197.983 312.5 196.586 312.5 195.215V197.297C312.5 198.669 313.184 200.04 314.526 200.827L354.441 223.934C356.949 225.382 360.038 225.382 362.546 223.934L434.474 182.316C435.816 181.529 436.5 180.157 436.5 178.786V176.704Z" fill="#9CDBDC"/>
<path d="M329.797 198.618L359.125 215.58L388.454 198.618L359.125 181.63L329.797 198.618Z" fill="#E7EBF4"/>
<path d="M387.848 156.136L322.074 194.225L326.278 196.662L392.052 158.573L387.848 156.136Z" fill="#316EA9"/>
<path d="M364.395 179.268L368.599 181.706L400.283 163.372L396.078 160.935L364.395 179.268Z" fill="#9CDBDC"/>
<path d="M388.074 193.996L392.278 196.433L423.962 178.074L419.758 175.637L388.074 193.996Z" fill="#F25F0A"/>
<path d="M354.264 201.029C359.286 201.029 363.357 198.767 363.357 195.976C363.357 193.185 359.286 190.923 354.264 190.923C349.243 190.923 345.172 193.185 345.172 195.976C345.172 198.767 349.243 201.029 354.264 201.029Z" fill="#F25F0A"/>
<path d="M372.93 195.697C362.698 195.697 354.391 200.293 354.391 205.981C354.391 209.308 357.227 212.253 361.609 214.132L387.113 199.354C383.719 197.094 378.603 195.672 372.905 195.672L372.93 195.697Z" fill="#F25F0A"/>
</g>
<defs>
<clipPath id="clip0_1_2346">
<rect width="124" height="76" fill="white" transform="translate(312.5 149)"/>
</clipPath>
</defs>
</svg>
