<svg width="473" height="280" viewBox="0 0 473 280" fill="none" xmlns="http://www.w3.org/2000/svg">
<rect width="472.5" height="280" fill="#E7EBF4"/>
<path d="M411.594 124.53L417.64 121.76L422.633 125.035L423.881 131.239L422.4 130.809L411.594 124.911V124.53Z" fill="#316EA9"/>
<path d="M420.174 207.334L322.704 151.061C321.079 150.123 319.762 147.609 319.762 145.442V70.6904L423.113 130.359V205.113C423.113 207.279 421.796 208.274 420.171 207.337L420.174 207.334Z" fill="#316EA9"/>
<path d="M418.383 128.83L321.32 72.79V145.261C321.32 147.361 322.597 149.799 324.171 150.708L404.683 197.192L405.921 213.762L420.289 205.524C420.451 205.466 420.599 205.38 420.735 205.268L420.749 205.259C421.224 204.851 421.518 204.111 421.518 203.109V134.255C421.518 132.017 420.325 129.948 418.385 128.83H418.383Z" fill="#316EA9"/>
<path d="M304.777 79.3359V154.09C304.777 156.257 306.094 158.771 307.719 159.709L405.189 215.982C405.259 216.023 405.325 216.054 405.392 216.087L405.719 216.941L407.022 216.187C407.695 215.856 408.129 215.002 408.129 213.761V140.255C408.129 139.481 407.716 138.768 407.048 138.382L304.777 79.3359Z" fill="#316EA9"/>
<path d="M403.849 216.753L306.379 160.479C304.755 159.542 303.438 157.027 303.438 154.861V80.1064L405.708 139.152C406.376 139.539 406.789 140.252 406.789 141.025V214.529C406.789 216.695 405.472 217.69 403.847 216.753H403.849Z" fill="#9CDBDC"/>
<g opacity="0.7" style="mix-blend-mode:multiply">
<path d="M355.119 156.538C373.573 167.193 390.776 170.922 405.246 168.581C406.141 168.436 406.794 167.658 406.794 166.754V149.943V141.027C406.794 140.254 406.382 139.541 405.714 139.154L305.478 81.2822C304.295 83.8494 303.584 86.5669 303.548 89.084L303.445 89.0244V107.689C303.445 108.302 303.641 108.899 304.008 109.39C318.682 129.009 336.244 145.639 355.121 156.538H355.119Z" fill="#558BBF"/>
</g>
<path d="M413.493 138.885V161.753L416.167 160.21V137.341C416.167 135.103 414.974 133.034 413.035 131.915L315.972 75.876V78.9633L410.36 133.459C412.297 134.578 413.493 136.647 413.493 138.885Z" fill="#316EA9"/>
<g opacity="0.7" style="mix-blend-mode:multiply">
<path d="M415.305 134.18C415.293 134.159 415.279 134.135 415.267 134.113C415.176 133.961 415.076 133.815 414.973 133.672C414.947 133.634 414.918 133.598 414.892 133.562C414.794 133.433 414.689 133.307 414.582 133.183C414.541 133.137 414.501 133.095 414.46 133.052C414.355 132.939 414.246 132.83 414.131 132.725C414.081 132.679 414.031 132.636 413.981 132.593C413.947 132.565 413.914 132.534 413.878 132.505C413.888 132.515 413.895 132.524 413.904 132.531C413.632 132.305 413.346 132.097 413.036 131.916L408.088 129.058L407.949 129.208C407.949 129.208 411.869 131.412 412.962 132.152C414.04 132.882 415.403 134.7 415.727 135.917C415.796 136.287 415.837 136.664 415.837 137.048V159.917L413.494 161.269V161.754L416.169 160.21V137.341C416.169 136.208 415.861 135.123 415.307 134.178L415.305 134.18Z" fill="#5E89A5"/>
</g>
<path d="M411.702 132.197L315.441 76.6201V77.5458L410.9 132.66C412.838 133.779 414.033 135.847 414.033 138.085V160.954L414.567 161.14V160.646L414.835 160.491V137.622C414.835 135.384 413.642 133.316 411.702 132.197Z" fill="#316EA9"/>
<path d="M412.233 132.379L315.972 76.8044V77.7302L411.431 132.844C413.369 133.963 414.564 136.031 414.564 138.269V161.138L415.366 160.675V137.807C415.366 135.569 414.173 133.5 412.233 132.381V132.379Z" fill="#243D59"/>
<path opacity="0.7" d="M421.518 134.255L416.169 137.343L415.837 137.049L415.367 137.264V137.693L414.563 138.123L414.015 137.653L413.416 137.887L413.48 138.433L408.141 140.862V212.491L420.292 205.521C420.292 205.521 421.521 205.29 421.521 203.107V134.253L421.518 134.255Z" fill="#316EA9"/>
<g opacity="0.7" style="mix-blend-mode:multiply">
<path d="M418.386 128.829L412.545 131.647V131.883L411.922 132.2L411.674 132.057L410.803 132.48V132.604L409.689 133.074L409.475 132.95L405.786 134.734L404.812 128.094L413.464 125.988L418.386 128.829Z" fill="#5E89A5"/>
</g>
<g opacity="0.7" style="mix-blend-mode:multiply">
<path d="M417.511 123.572C417.511 123.572 418.379 124.457 418.379 128.828L413.457 125.987L413.872 124.744L417.511 123.575V123.572Z" fill="#5E89A5"/>
</g>
<path d="M318.436 63.6812H318.431C316.577 62.5002 313.958 62.6052 311.054 64.2825C305.488 67.4938 300.969 75.2599 300.876 81.7113L300.773 81.6516V100.316C300.773 100.93 300.969 101.526 301.337 102.017C316.01 121.637 333.572 138.266 352.449 149.165C370.904 159.82 388.106 163.549 402.576 161.209C403.471 161.063 404.125 160.285 404.125 159.381V142.57L404.907 143C404.907 143 404.848 139.197 404.907 138.416C404.967 137.636 406.43 133.814 407.188 132.526C407.949 131.237 410.347 128.195 411.342 127.026C412.337 125.857 416.14 124.218 417.192 123.283C418.244 122.348 421.668 123.283 421.668 123.283L318.436 63.6812Z" fill="#9CDBDC"/>
<path d="M413.592 125.432C414.988 124.631 416.565 123.834 417.188 123.28C418.24 122.345 421.664 123.28 421.664 123.28L318.431 63.6812H318.427C316.573 62.5002 313.953 62.6052 311.05 64.2825C310.517 64.5902 309.995 64.9386 309.484 65.3251L413.594 125.432H413.592Z" fill="#558BBF"/>
<path d="M310.309 64.7402C307.367 66.6823 304.771 69.8651 303.051 73.3795L406.789 133.272C406.929 132.976 407.063 132.721 407.18 132.523C407.941 131.235 410.339 128.193 411.334 127.024C411.871 126.391 413.223 125.625 414.521 124.905L310.309 64.7402Z" fill="#558BBF"/>
<path d="M414.286 123.881C408.7 127.107 404.167 134.918 404.107 141.384L404.124 141.32V159.378C404.124 159.378 404.005 160.65 403.289 160.929C403.289 160.929 405.46 160.349 405.46 158.608V140.549L405.479 140.537C405.563 134.957 409.471 128.243 414.283 125.466C419.095 122.688 423.004 124.888 423.087 130.371L423.111 205.111C423.111 205.111 423.135 206.953 422.142 207.459L423.517 206.662C423.517 206.662 424.447 206.251 424.447 204.34V129.586L424.459 129.61C424.39 123.228 419.861 120.66 414.281 123.881H414.286Z" fill="#316EA9"/>
<path d="M358.436 162.376C358.436 164.669 356.828 165.597 354.843 164.452C352.858 163.307 351.25 160.52 351.25 158.227C351.25 155.935 352.858 155.006 354.843 156.152C356.828 157.297 358.436 160.084 358.436 162.376Z" fill="#316EA9"/>
<path d="M357.659 162.831C357.659 165.124 356.051 166.052 354.066 164.907C352.081 163.762 350.473 160.975 350.473 158.682C350.473 156.39 352.081 155.462 354.066 156.607C356.051 157.752 357.659 160.539 357.659 162.831Z" fill="#9CDBDC"/>
<path d="M352.766 164.085L352.129 163.718C349.769 162.355 347.855 158.698 347.855 155.551V135.612C347.855 134.875 348.304 134.536 348.858 134.856L356.041 139.002C356.595 139.322 357.043 140.179 357.043 140.916V160.855C357.043 164.002 355.13 165.447 352.77 164.085H352.766Z" fill="#316EA9"/>
<path d="M351.965 164.549L351.328 164.182C348.968 162.819 347.055 159.162 347.055 156.015V136.076C347.055 135.339 347.503 135 348.057 135.32L355.241 139.466C355.794 139.786 356.243 140.643 356.243 141.38V161.319C356.243 164.466 354.329 165.911 351.97 164.549H351.965Z" fill="#BDEDEE"/>
<path d="M379.613 97.6133L380.799 98.0141L380.849 98.4459L380.188 99.2404L379.656 99.0233L379.613 97.6133Z" fill="#316EA9"/>
<path d="M350.199 80.582L351.385 80.9829L351.435 81.4171L350.774 82.2092L350.242 81.9921L350.199 80.582Z" fill="#316EA9"/>
<path d="M347.174 71.3925V77.7938L351.123 80.0747V74.3629C351.123 73.3585 351.829 72.9505 352.698 73.4539L375.084 86.3782C375.955 86.8792 376.659 88.1008 376.659 89.1053V94.8171L380.608 97.0979V90.6966C380.608 87.5544 378.401 83.7347 375.681 82.1624L352.099 68.5486C349.379 66.9786 347.172 68.2503 347.172 71.3925H347.174Z" fill="#316EA9"/>
<path d="M346.686 71.6728V78.0741L350.635 80.355V74.6432C350.635 73.6388 351.341 73.2308 352.209 73.7342L374.596 86.6585C375.467 87.1595 376.171 88.3811 376.171 89.3855V95.0973L380.119 97.3782V90.9769C380.119 87.8347 377.912 84.0149 375.192 82.4426L351.61 68.8288C348.891 67.2589 346.684 68.5306 346.684 71.6728H346.686Z" fill="#9CDBDC"/>
<path d="M376.689 95.2286C376.672 95.1618 376.665 95.095 376.665 95.0258V93.8281H376.183V95.0998H376.176C376.176 95.0998 376.178 95.1213 376.183 95.1571V95.4123C376.183 95.6342 376.116 95.849 376.004 96.0398C375.89 96.2331 375.82 96.4526 375.82 96.6506C375.82 96.851 375.887 96.987 375.994 97.0491L379.934 99.3228L379.824 98.9172L379.934 98.4162L380.21 97.9461L380.268 97.1445L380.365 96.1591L376.689 95.2286Z" fill="#9CDBDC"/>
<path d="M380.842 97.8653C380.682 97.7269 380.61 97.5122 380.61 97.3022V96.1045H380.128V97.6863C380.128 97.9082 380.061 98.1229 379.949 98.3138C379.835 98.5071 379.766 98.7266 379.766 98.9246C379.766 99.323 380.023 99.4686 380.369 99.2706C380.703 99.0773 380.973 98.6097 380.973 98.2232C380.973 98.0585 380.925 97.9368 380.842 97.8653ZM380.369 99.0725C380.131 99.2109 379.935 99.0988 379.935 98.822C379.935 98.5452 380.128 98.2112 380.369 98.0728C380.608 97.9345 380.801 98.0466 380.801 98.3234C380.801 98.6001 380.608 98.9341 380.369 99.0725Z" fill="#316EA9"/>
<path d="M380.949 98.4113C380.899 98.3493 380.844 98.292 380.792 98.2372C380.708 98.1537 380.622 98.0797 380.534 98.0153C380.482 98.02 380.427 98.0391 380.365 98.0725C380.126 98.2109 379.931 98.5473 379.931 98.8217C379.931 98.8456 379.931 98.867 379.935 98.8885C380.019 98.9529 380.1 99.0364 380.174 99.1295C380.217 99.1844 380.257 99.2416 380.298 99.3036C380.513 99.6401 380.658 100.072 380.658 100.446V101.692L376.12 99.0722V97.216C376.12 97.1826 376.12 97.1516 376.123 97.123L375.991 97.0466C375.882 96.987 375.817 96.8486 375.817 96.6482C375.817 96.4501 375.886 96.2306 376.001 96.0374C376.058 95.9419 376.104 95.8394 376.132 95.7344C375.982 95.7487 375.836 95.7964 375.703 95.8728C375.295 96.109 375.059 96.5981 375.059 97.216V98.9863C375.059 99.4182 375.288 99.8166 375.662 100.031L380.599 102.882C381.095 103.169 381.713 102.811 381.713 102.238V100.446C381.713 99.7331 381.403 98.9553 380.945 98.4089L380.949 98.4113Z" fill="#9CDBDC"/>
<path d="M347.204 78.1954C347.188 78.1286 347.181 78.0618 347.181 77.9926V76.7949H346.699V78.0666H346.691C346.691 78.0666 346.694 78.0881 346.699 78.1239V78.3791C346.699 78.601 346.632 78.8158 346.52 79.0066C346.405 79.1999 346.336 79.4194 346.336 79.6174C346.336 79.8178 346.403 79.9538 346.51 80.0159L350.449 82.2896L350.339 81.884L350.449 81.383L350.726 80.9129L350.783 80.1113L350.881 79.1259L347.204 78.1954Z" fill="#9CDBDC"/>
<path d="M351.346 80.835C351.186 80.6966 351.114 80.4819 351.114 80.2719V79.0742H350.632V80.6561C350.632 80.8779 350.565 81.0927 350.453 81.2835C350.339 81.4768 350.27 81.6963 350.27 81.8943C350.27 82.2928 350.527 82.4383 350.873 82.2403C351.207 82.047 351.477 81.5794 351.477 81.1929C351.477 81.0283 351.429 80.9066 351.346 80.835ZM350.873 82.0399C350.635 82.1782 350.439 82.0661 350.439 81.7893C350.439 81.5126 350.632 81.1786 350.873 81.0402C351.112 80.9018 351.305 81.0139 351.305 81.2907C351.305 81.5675 351.112 81.9015 350.873 82.0399Z" fill="#316EA9"/>
<path d="M351.453 81.382C351.403 81.32 351.348 81.2627 351.296 81.2079C351.212 81.1244 351.126 81.0504 351.038 80.986C350.986 80.9907 350.931 81.0098 350.869 81.0432C350.63 81.1816 350.434 81.518 350.434 81.7924C350.434 81.8163 350.434 81.8377 350.439 81.8592C350.523 81.9236 350.604 82.0071 350.678 82.1002C350.721 82.1551 350.761 82.2123 350.802 82.2744C351.017 82.6108 351.162 83.0426 351.162 83.4172V84.6626L346.624 82.0429V80.1867C346.624 80.1533 346.624 80.1223 346.627 80.0937L346.495 80.0173C346.386 79.9577 346.321 79.8193 346.321 79.6189C346.321 79.4208 346.39 79.2013 346.505 79.0081C346.562 78.9127 346.608 78.8101 346.636 78.7051C346.486 78.7194 346.34 78.7671 346.207 78.8435C345.799 79.0797 345.562 79.5688 345.562 80.1867V81.957C345.562 82.3889 345.792 82.7873 346.166 83.002L351.103 85.8532C351.599 86.1395 352.217 85.7816 352.217 85.209V83.4172C352.217 82.7038 351.907 81.926 351.448 81.3796L351.453 81.382Z" fill="#9CDBDC"/>
<path d="M354.699 69.9609C354.699 71.5404 353.59 73.461 352.223 74.2507C350.856 75.0404 349.746 74.401 349.746 72.8216C349.746 71.2421 350.856 69.3215 352.223 68.5318C353.59 67.7421 354.699 68.3815 354.699 69.9609Z" fill="#316EA9"/>
<path d="M350.647 80.2623C350.647 80.2623 350.091 74.6912 349.812 73.4387C349.533 72.1861 354.538 68.9628 354.698 69.9601C354.858 70.9573 352.818 74.2355 352.25 75.7363C351.682 77.237 351.208 79.1671 351.124 80.0762C351.041 80.9852 350.647 80.2623 350.647 80.2623Z" fill="#316EA9"/>
<path d="M346.688 76.4595C346.688 75.0948 346.204 70.4925 346.688 69.1444C347.172 67.7964 348.508 66.9208 350.443 67.3503C352.378 67.7797 353.249 67.9897 353.91 68.3237C353.91 68.3237 350.572 68.2664 349.799 73.1813C349.026 78.0962 346.688 76.4572 346.688 76.4572V76.4595Z" fill="#9CDBDC"/>
<path d="M377.51 81.9517L353.914 68.3235C353.914 68.3235 350.344 67.6722 349.457 71.2104L349.34 73.687L374.069 88.0476L377.507 81.9517H377.51Z" fill="#9CDBDC"/>
<path d="M374.074 88.0474C375.754 89.0948 376.181 92.781 376.181 92.781L377.333 86.6946L375.148 84.5879L374.074 88.045V88.0474Z" fill="#9CDBDC"/>
<path d="M377.504 81.9509C380.816 83.9073 381.615 86.8634 381.352 89.204C381.09 91.5445 380.606 93.0095 380.606 94.5579C380.606 96.1063 374.39 85.4009 374.39 85.4009L374.624 82.0941L377.506 81.9509H377.504Z" fill="#9CDBDC"/>
<path d="M356.457 69.7969C356.457 69.7969 373.659 80.0013 376.234 82.1008C378.808 84.2028 379.853 86.677 380.23 88.6882C380.607 90.6995 380.125 93.534 380.125 95.1301C380.125 96.7263 380.607 96.3732 380.607 96.3732C380.607 96.3732 380.607 95.2041 380.607 94.6625C380.607 94.1209 380.843 91.8304 381.275 89.8454C381.707 87.8603 381.268 86.257 380.23 84.4629C379.192 82.6687 375.451 80.7671 375.451 80.7671L356.459 69.7993L356.457 69.7969Z" fill="#558BBF"/>
<path d="M350.192 76.3894C350.192 76.3894 349.715 73.9057 351.311 74.8338C352.907 75.7619 349.338 72.498 349.338 72.498L348.605 75.1511L350.192 76.387V76.3894Z" fill="#9CDBDC"/>
<path d="M348.297 67.4605C349.323 66.8545 351.735 67.0836 353.82 68.2789C355.905 69.4742 352.393 70.4095 352.226 70.4811C352.059 70.5526 348.297 67.4605 348.297 67.4605Z" fill="#9CDBDC"/>
<text fill="#F25F0A" style="white-space: pre" xml:space="preserve" font-family="Antonio" font-size="204.717" font-weight="bold" letter-spacing="0em"><tspan x="29" y="214.929">00</tspan></text>
<text fill="#F25F0A" style="white-space: pre" xml:space="preserve" font-family="Noto Sans JP" font-size="51.1794" font-weight="bold" letter-spacing="0.06em"><tspan x="229.453" y="206.994">&#x5e74;</tspan></text>
</svg>
