<svg width="179" height="230" viewBox="0 0 179 230" fill="none" xmlns="http://www.w3.org/2000/svg">
<rect width="179" height="230" fill="#EDF2FA"/>
<text fill="#243D59" style="white-space: pre" xml:space="preserve" font-family="Antonio" font-size="73.7258" font-weight="bold" letter-spacing="0.01em"><tspan x="31" y="79.3581">130</tspan></text>
<text fill="#243D59" style="white-space: pre" xml:space="preserve" font-family="Antonio" font-size="18.4315" font-weight="bold" letter-spacing="0.03em"><tspan x="129.301" y="79.4548">&#x65e5;</tspan></text>
<g clip-path="url(#clip0_1_2772)">
<path d="M93.4275 184.956L143.207 156.226C146.586 154.291 146.586 149.412 143.207 147.477L93.4275 118.718C90.3091 116.899 86.4399 116.899 83.3214 118.718L33.5416 147.448C30.1632 149.383 30.1632 154.263 33.5416 156.197L83.3214 184.927C86.4399 186.746 90.3091 186.746 93.4275 184.927V184.956Z" fill="#9CDBDC"/>
<path d="M102.783 127.381L83.8703 116.466C82.8885 115.917 81.6758 116.61 81.6758 117.737V127.698C81.6758 128.68 82.1955 129.575 83.0329 130.066L101.946 140.981C102.928 141.529 104.14 140.836 104.14 139.71V129.748C104.14 128.767 103.621 127.872 102.783 127.381Z" fill="#558BBF"/>
<path d="M86.0366 114.329L82.3984 116.437C82.8316 116.206 83.3802 116.148 83.8422 116.437L102.755 127.351L106.393 125.272L87.4804 114.358C86.9895 114.069 86.4409 114.127 86.0366 114.358V114.329Z" fill="#316EA9"/>
<path d="M107.773 127.639C107.773 126.657 107.253 125.762 106.416 125.271L102.777 127.379C103.615 127.841 104.134 128.736 104.134 129.718V139.68C104.134 140.257 103.817 140.691 103.413 140.95L107.051 138.843C107.484 138.612 107.773 138.15 107.773 137.572V127.61V127.639Z" fill="#316EA9"/>
<path d="M67.2719 155.417L53.5276 147.477C52.8346 147.073 52.8346 146.091 53.5276 145.715L87.3686 126.167C88.0039 125.792 88.7835 125.792 89.4187 126.167L103.163 134.108C103.856 134.512 103.856 135.494 103.163 135.869L69.322 155.417C68.6867 155.793 67.9071 155.793 67.2719 155.417Z" fill="#558BBF"/>
<path d="M69.3125 155.419L103.154 135.899V136.564L69.3125 156.112V155.419Z" fill="#316EA9"/>
<path d="M67.2615 155.419L53.4883 147.479V148.172L67.2615 156.112V155.419Z" fill="#316EA9"/>
<path d="M103.152 136.563C103.499 136.361 103.672 136.014 103.672 135.668V134.975C103.672 135.321 103.499 135.668 103.152 135.87V136.534V136.563Z" fill="#316EA9"/>
<path d="M53.4885 148.172C53.142 147.97 52.9688 147.623 52.9688 147.277V146.584C52.9688 146.93 53.142 147.277 53.4885 147.479V148.143V148.172Z" fill="#316EA9"/>
<path d="M67.2617 156.11V155.446C67.897 155.822 68.6766 155.822 69.3118 155.446V156.11C68.6766 156.486 67.897 156.486 67.2617 156.11Z" fill="#316EA9"/>
<path d="M53.3443 127.149L87.0121 107.716C87.6474 107.341 88.4559 107.803 88.4559 108.554V121.403C88.4559 122.038 88.1094 122.644 87.5608 122.962L53.893 142.395C53.2577 142.77 52.4492 142.308 52.4492 141.557V128.708C52.4492 128.073 52.7957 127.466 53.3443 127.149Z" fill="#558BBF"/>
<path d="M84.4136 105.638C84.1249 105.465 83.7784 105.465 83.4608 105.638L49.793 125.099L53.3445 127.149L87.0124 107.717C87.33 107.543 87.6765 107.543 87.9652 107.717L84.4136 105.667V105.638Z" fill="#558BBF"/>
<path d="M48.9023 126.631V139.481C48.9023 139.856 49.1045 140.145 49.3932 140.318L52.9448 142.368C52.656 142.195 52.4539 141.906 52.4539 141.531V128.682C52.4539 128.046 52.8004 127.44 53.349 127.151L49.7975 125.072C49.2488 125.39 48.9023 125.996 48.9023 126.631Z" fill="#558BBF"/>
<path d="M67.1148 151.723L53.8614 144.071C53.1973 143.696 53.1973 142.743 53.8614 142.367L87.5292 122.935C88.1356 122.588 88.8863 122.588 89.4927 122.935L102.746 130.586C103.41 130.962 103.41 131.915 102.746 132.29L69.0783 151.723C68.4719 152.069 67.7212 152.069 67.1148 151.723Z" fill="#9CDBDC"/>
<path d="M103.245 131.425C103.245 131.771 103.072 132.089 102.755 132.291L69.0867 151.724C68.4803 152.07 67.7296 152.07 67.1232 151.724L53.8698 144.072C53.5522 143.87 53.3789 143.552 53.3789 143.206V146.353C53.3789 146.671 53.5522 147.017 53.8698 147.219L67.1232 154.871C67.7296 155.217 68.4803 155.217 69.0867 154.871L102.755 135.438C103.072 135.236 103.245 134.919 103.245 134.572V131.425Z" fill="#316EA9"/>
<path d="M65.0449 149.009L46.132 138.094C45.1502 137.545 43.9375 138.238 43.9375 139.364V149.326C43.9375 150.308 44.4572 151.203 45.2946 151.694L64.2075 162.609C65.1892 163.157 66.402 162.464 66.402 161.338V151.376C66.402 150.395 65.8822 149.499 65.0449 149.009Z" fill="#558BBF"/>
<path d="M48.3335 135.956L44.6953 138.064C45.1284 137.833 45.677 137.775 46.139 138.064L65.0519 148.978L68.6901 146.899L49.7772 135.985C49.2864 135.696 48.7378 135.754 48.3335 135.985V135.956Z" fill="#316EA9"/>
<path d="M70.0461 149.239C70.0461 148.257 69.5263 147.362 68.689 146.871L65.0508 148.979C65.8881 149.441 66.4079 150.336 66.4079 151.318V161.28C66.4079 161.857 66.0903 162.29 65.686 162.55L69.3242 160.442C69.7573 160.211 70.0461 159.749 70.0461 159.172V149.21V149.239Z" fill="#316EA9"/>
<path d="M87.9108 150.713C87.9108 150.713 87.8241 150.8 87.7664 150.886C87.4776 151.406 87.3621 151.839 87.391 152.417C87.391 152.59 87.391 152.792 87.4776 152.936C87.5931 153.225 87.8241 153.427 88.1129 153.572C88.4016 153.687 88.6904 153.716 88.9791 153.774C89.1812 153.831 89.2679 154.005 89.4411 154.12C89.6721 154.293 89.9031 154.438 90.1341 154.553C90.7693 154.871 91.5201 155.073 92.2131 155.044C92.473 155.044 92.7328 154.986 92.9638 154.842C93.1659 154.698 93.3392 154.438 93.2814 154.178C93.2237 153.831 92.9061 153.629 92.5885 153.456C91.9821 153.11 91.4623 152.676 90.9137 152.214C90.4517 151.81 90.1341 151.175 89.9031 150.626C89.3545 150.569 88.777 150.569 88.1995 150.626C88.0263 150.626 87.9396 150.626 87.8819 150.713H87.9108Z" fill="#F9C3C0"/>
<path d="M80.979 153.021C80.979 153.021 80.8924 153.107 80.8346 153.194C80.517 153.685 80.3726 154.118 80.3438 154.695C80.3438 154.869 80.3438 155.071 80.3726 155.244C80.4592 155.533 80.6902 155.764 80.9501 155.908C81.21 156.052 81.4987 156.081 81.7875 156.197C81.9607 156.255 82.0474 156.428 82.2206 156.572C82.4227 156.745 82.6537 156.919 82.8847 157.063C83.4911 157.438 84.2129 157.698 84.9059 157.727C85.1658 157.727 85.4257 157.727 85.6567 157.583C85.8877 157.467 86.0609 157.207 86.032 156.948C86.032 156.601 85.6856 156.37 85.4257 156.168C84.8482 155.764 84.3573 155.302 83.8665 154.782C83.4333 154.32 83.1735 153.685 82.9713 153.107C82.4227 153.021 81.8452 152.963 81.2966 152.963C81.1234 152.963 81.0367 152.963 80.979 153.021Z" fill="#F9C3C0"/>
<path d="M82.3654 132.838C83.6936 133.213 90.4503 135.032 91.6053 135.667C92.2694 138.006 90.4214 151.289 90.4214 151.289L87.4185 151.231L87.6495 138.122C87.6495 138.122 80.3153 136.418 78.0342 136.476L77.168 130.845L81.2104 130.557L82.0189 132.52C82.0189 132.52 82.1922 132.78 82.3365 132.809L82.3654 132.838Z" fill="#558BBF"/>
<path d="M78.1222 130.846L72.4916 129.287C72.4916 129.287 71.0768 133.185 71.1345 134.513C71.1345 135.264 71.7409 136.766 72.2606 137.285C73.5889 138.614 76.5052 138.989 79.4504 139.509C82.3668 140.028 83.464 140.057 83.464 140.057L80.5188 153.369L83.4351 154.062C83.4351 154.062 89.0079 140.548 88.7481 137.372C87.2755 136.159 78.2954 133.618 78.2954 133.618L78.1222 130.875V130.846Z" fill="#558BBF"/>
<path d="M78.6725 104.482C77.4309 104.164 76.1026 104.078 74.8033 104.222C74.2547 104.28 73.8793 104.424 73.3884 104.655C72.9264 104.857 72.3201 104.886 72.0024 105.29C71.6848 105.666 71.656 106.359 71.3383 106.792C70.9052 107.34 70.2988 107.802 70.0967 108.467C69.9812 108.813 70.0101 109.16 69.9235 109.506C69.6347 110.777 68.2776 111.556 67.9311 112.798C67.7867 113.375 67.8734 113.982 67.7001 114.559C67.4403 115.454 66.6318 116.089 66.343 116.956C66.1409 117.562 66.1986 118.255 66.3719 118.861C66.6029 119.641 67.0938 120.392 67.8156 120.709C68.2487 120.912 68.7396 120.94 69.2016 120.969C70.501 121.027 71.8292 120.998 73.1286 120.883C74.861 120.738 76.6801 120.363 77.864 119.092C78.2682 118.659 78.5859 118.168 78.8457 117.649C79.1345 117.129 79.3944 116.609 79.481 116.061C79.6254 115.223 79.3944 114.357 79.5965 113.548C79.7697 112.884 80.2895 112.249 80.2317 111.556C80.2028 111.008 79.7986 110.488 79.8852 109.91C79.9141 109.679 80.0296 109.477 80.1162 109.246C80.3183 108.553 80.0873 107.831 80.1162 107.109C80.1162 106.561 80.3183 105.983 80.1162 105.464C79.8852 104.886 79.2211 104.597 78.6147 104.453L78.6725 104.482Z" fill="#316EA9"/>
<path d="M88.9518 131.828C88.9518 131.828 89.3271 132.232 89.5004 132.406C89.6736 132.608 89.818 132.81 89.9624 133.012C90.2222 133.387 90.4244 133.821 90.5687 134.254C90.5687 134.254 90.5687 134.311 90.5687 134.34C90.6842 134.716 90.742 135.12 90.7997 135.524C90.7997 135.611 90.8864 135.755 90.7997 135.871C90.7997 135.871 90.7131 135.928 90.6842 135.928C90.6842 135.928 90.7131 136.159 90.6265 136.246C90.5399 136.304 90.4244 136.304 90.3377 136.159C90.3377 136.159 90.3377 136.304 90.28 136.39C90.1934 136.477 90.0779 136.39 90.049 136.362C89.9912 136.333 89.7602 135.986 89.7602 135.986C89.7602 135.986 89.818 136.131 89.7602 136.188C89.4138 136.535 88.9518 135.351 88.894 135.149C88.894 135.033 88.8363 134.918 88.8074 134.802C88.7208 134.658 88.6053 134.514 88.4898 134.398C88.2299 134.109 87.9989 133.792 87.8834 133.416C87.739 133.07 87.8545 132.752 87.6813 132.406L86.9883 131.193L88.2876 130.5L89.0095 131.857L88.9518 131.828Z" fill="#F9C3C0"/>
<path d="M81.1311 114.156C80.5247 113.434 79.3697 113.578 78.9944 114.416C78.619 115.253 78.5613 116.177 79.2831 117.852L83.2101 125.677L86.906 131.972L88.8117 130.788L85.2313 123.829C85.2313 123.829 82.8636 118.054 82.5171 117.015C82.0551 115.629 81.622 114.733 81.16 114.127L81.1311 114.156Z" fill="#F25F0A"/>
<path d="M71.6549 131.941L72.4634 127.783L70.6154 117.244C70.4133 116.349 70.7021 115.396 71.6838 114.876C73.9072 113.692 75.9861 112.566 80.4039 113.981C81.0103 114.183 81.1547 116.638 81.1836 117.417C81.1836 117.417 82.0498 119.756 82.0209 120.449C81.9632 122.326 81.2413 122.759 81.1547 125.271C81.0969 126.859 81.7899 131.826 81.7899 131.826C81.7899 131.826 81.7899 132.75 77.9207 132.981C73.705 133.241 71.6549 131.97 71.6549 131.97V131.941Z" fill="#F25F0A"/>
<path d="M73.3251 127.322L72.4877 123.482C72.43 118.833 71.3039 115.108 71.3039 115.108C69.1383 116.321 69.0805 117.534 69.1671 119.584C69.1671 119.584 69.8313 127.236 71.3039 128.593C72.9208 130.037 73.2962 127.322 73.2962 127.322H73.3251Z" fill="#F25F0A"/>
<path d="M78.0024 113.028C77.396 112.393 75.0572 112.075 73.9599 113.259C73.8733 113.836 73.7578 114.212 73.7578 114.212L75.779 114.934L77.9446 114.616C77.9446 114.616 78.0601 113.461 78.0024 113.028Z" fill="#9CDBDC"/>
<path d="M76.0458 110.546C75.2085 110.546 74.7753 111.036 74.7753 111.412L74.3711 114.126C74.4 114.588 75.2085 114.963 76.1613 114.963C77.1142 114.963 77.8361 114.559 77.7783 114.097L77.3452 111.267C77.3163 110.863 76.8543 110.517 76.0169 110.546H76.0458Z" fill="#FACDCB"/>
<path d="M76.1587 103.356C73.6466 103.211 72.8382 105.059 72.7227 107.34C73.2424 110.054 74.4551 111.354 75.4369 111.7C76.6496 112.133 78.1511 112.538 79.2195 110.257C79.8547 108.9 79.9702 106.474 79.7392 105.521C79.5082 104.684 78.6997 103.5 76.1876 103.356H76.1587Z" fill="#FACDCB"/>
<path d="M76.3406 108.063C76.0518 108.178 75.7631 108.265 75.4743 108.294C75.3877 108.294 75.2722 108.294 75.1856 108.236C75.1278 108.236 75.099 108.149 75.1278 108.121C75.1278 108.121 75.1278 108.092 75.1856 108.063C75.2722 107.976 75.7631 107.514 75.6187 107.428C75.5032 107.341 74.868 107.63 74.7236 107.687C74.5215 107.745 74.2905 107.832 74.1172 107.947C73.9728 108.034 73.8573 108.178 73.7419 108.323C73.3665 108.814 73.1932 109.391 73.1644 109.997C72.9334 109.997 72.558 109.795 72.4136 109.564C72.2404 109.304 72.096 109.016 71.9805 108.698C71.6917 108.034 71.8072 107.11 71.7784 106.359C71.7495 105.06 72.327 103.905 73.5397 103.414C73.5397 103.414 75.1856 101.393 78.7083 103.414C79.8633 104.078 80.8739 105.608 79.7478 107.485C79.8344 107.341 79.5168 106.994 79.4302 106.937C79.4013 106.937 79.3435 106.879 79.3147 106.879C79.1992 106.879 79.1125 106.966 79.0548 107.052C78.766 107.456 78.5639 107.774 78.073 107.947C77.9864 107.947 77.9287 108.005 77.842 107.976C77.7554 107.976 77.6688 107.947 77.6399 107.861C77.8709 107.687 78.073 107.456 78.1885 107.197C78.2463 107.052 78.4773 106.59 78.3618 106.446C78.304 106.359 78.1597 106.446 78.1019 106.532C77.6688 107.11 77.0047 107.774 76.2828 108.121L76.3406 108.063Z" fill="#316EA9"/>
<path d="M74.1077 108.755C74.1077 108.755 74.1077 107.918 73.3858 107.976C72.7506 108.033 72.6062 108.466 72.7506 109.188C72.8949 109.91 73.4435 110.257 73.8767 110.257C74.3098 110.257 74.1077 108.784 74.1077 108.784V108.755Z" fill="#FACDCB"/>
<path d="M77.0795 114.762C77.0795 114.762 76.6175 115.917 76.1843 116.985C75.0294 116.523 74.2497 115.917 73.2969 114.415C73.5567 113.982 73.961 113.231 73.961 113.231C73.961 113.231 75.2892 114.531 77.0795 114.762Z" fill="white"/>
<path d="M77.0898 114.761C77.0898 114.761 77.8695 114.126 78.0138 113C78.0138 113 78.447 113.577 78.7068 113.866C78.8801 115.166 78.7068 115.801 78.4181 116.494C77.8117 115.483 77.0898 114.761 77.0898 114.761Z" fill="white"/>
<path d="M81.1816 121.606L83.4338 120.971C83.4338 120.971 83.636 121.028 83.6071 121.144L82.2789 126.457C82.2789 126.457 82.1922 126.63 82.0767 126.659L79.8245 127.294C79.8245 127.294 79.6224 127.236 79.6513 127.121L80.9795 121.808C80.9795 121.808 81.0661 121.635 81.1816 121.606Z" fill="#9CDBDC"/>
<path d="M83.4311 120.942L83.2578 120.769C83.2578 120.769 83.3733 120.769 83.4022 120.797L83.5754 120.971C83.5754 120.971 83.4888 120.913 83.4311 120.942Z" fill="#9CDBDC"/>
<path d="M79.6501 127.121C79.6501 127.121 79.6501 127.236 79.679 127.265L79.5057 127.092C79.5057 127.092 79.448 127.005 79.4768 126.947L79.6501 127.121Z" fill="#558BBF"/>
<path d="M80.9805 121.433L81.1826 121.606L83.4348 120.942L83.2327 120.769L80.9805 121.433Z" fill="#9CDBDC"/>
<path d="M80.8048 121.605L79.4766 126.947L79.6498 127.121L80.978 121.808L80.8048 121.605Z" fill="#558BBF"/>
<path d="M81.1761 121.607C81.1761 121.607 81.0029 121.722 80.974 121.809L80.8008 121.636C80.8008 121.636 80.8874 121.462 81.0029 121.434L81.1761 121.607Z" fill="#558BBF"/>
<path d="M81.5907 125.012C81.9372 124.839 82.2837 124.666 82.6302 124.493C82.7457 124.435 82.8612 124.377 82.9767 124.406C83.0922 124.406 83.2077 124.522 83.2077 124.637C83.2077 124.724 83.1211 124.81 83.0345 124.868C82.8901 124.984 82.7169 125.099 82.5725 125.215C82.6591 125.272 82.688 125.417 82.6591 125.532C82.6302 125.648 82.5436 125.734 82.4859 125.821C82.5725 125.879 82.6014 126.023 82.5725 126.139C82.5147 126.398 82.6014 126.485 82.5725 126.745C82.5725 126.947 82.3126 127.034 82.1682 127.12C82.0527 127.178 81.9661 127.265 81.8795 127.322C81.7351 127.38 81.5907 127.38 81.4464 127.409C80.6956 127.409 80.0315 127.38 79.3096 127.582C79.1942 127.149 78.992 126.427 78.8477 125.994C79.3963 125.821 79.9449 125.908 80.4646 125.677C80.8689 125.474 81.2443 125.272 81.6196 125.07L81.5907 125.012Z" fill="#F9C3C0"/>
<path d="M80.0584 127.553C80.0584 126.889 80.0296 126.225 79.8852 125.59C77.2287 125.907 74.5723 126.225 71.9158 126.572C71.7425 126.572 71.5693 126.629 71.4827 126.745C71.396 126.831 71.396 126.976 71.3672 127.091C71.3094 127.496 71.2805 127.9 71.3672 128.304C71.8003 129.777 74.0814 128.997 75.1497 128.824C76.7956 128.535 78.4415 128.131 80.0296 127.582L80.0584 127.553Z" fill="#F25F0A"/>
<path d="M141.624 114.588C142.837 113.866 144.54 114.212 145.378 115.338C145.06 116.205 143.674 116.003 143.125 116.724C142.981 116.898 142.894 117.129 142.721 117.273C142.317 117.62 141.739 117.36 141.306 117.042C141.104 116.898 140.873 116.753 140.729 116.551C140.44 116.147 140.382 115.598 140.585 115.165C140.787 114.732 141.277 114.414 141.768 114.386" fill="#8CBCB5"/>
<path d="M136.281 119.005C136.397 118.313 137.176 117.995 137.869 117.879C138.562 117.764 139.313 117.735 139.804 117.244C140.584 117.793 140.468 119.092 139.746 119.67C138.995 120.247 137.898 120.189 137.09 119.756C136.657 119.525 136.252 118.977 136.541 118.572" fill="#558BBF"/>
<path d="M144.559 112.019C144.559 112.395 144.501 112.799 144.27 113.088C143.952 113.434 143.432 113.463 142.999 113.319C142.566 113.174 142.22 112.885 141.815 112.626C141.671 112.539 141.498 112.423 141.296 112.395C141.094 112.366 140.891 112.395 140.689 112.337C140.314 112.279 139.996 112.048 139.852 111.702C139.708 111.355 139.708 110.98 139.91 110.662C140.054 110.431 140.256 110.258 140.458 110.114C141.18 109.536 142.393 108.063 143.432 108.497C144.616 108.987 144.587 111.009 144.559 112.048V112.019Z" fill="#558BBF"/>
<path d="M133.683 115.569C133.249 114.847 132.528 114.327 131.777 113.952C130.968 113.548 130.102 113.259 129.207 113.144C130.102 114.616 130.997 116.089 131.892 117.561C133.365 119.958 134.751 117.359 133.654 115.569H133.683Z" fill="#8CBCB5"/>
<path d="M126.866 138.956C130.187 138.956 132.872 140.458 132.872 142.277L130.793 151.517C130.793 152.7 129.032 153.682 126.895 153.682C124.758 153.682 122.997 152.7 122.997 151.517L120.918 142.277C120.918 140.429 123.603 138.956 126.924 138.956H126.866Z" fill="#316EA9"/>
<path d="M126.869 145.597C130.186 145.597 132.875 144.111 132.875 142.277C132.875 140.443 130.186 138.956 126.869 138.956C123.552 138.956 120.863 140.443 120.863 142.277C120.863 144.111 123.552 145.597 126.869 145.597Z" fill="#E3DAD2"/>
<path d="M126.869 141.527C124.415 141.527 122.278 142.364 121.354 143.548C121.036 143.144 120.863 142.682 120.863 142.22C120.863 140.372 123.548 138.899 126.869 138.899C130.19 138.899 132.875 140.401 132.875 142.22C132.875 142.682 132.702 143.144 132.384 143.548C131.46 142.364 129.352 141.527 126.869 141.527Z" fill="#316EA9"/>
<path d="M126.319 144.302C126.002 144.302 125.742 144.071 125.713 143.724C125.626 142.713 125.944 141.703 126.579 140.923C126.897 140.548 127.243 140.259 127.619 139.97C127.936 139.711 128.254 139.451 128.485 139.162C129.755 137.603 128.976 135.61 128.052 133.705C127.792 133.156 127.474 132.636 127.157 132.059C126.348 130.644 125.482 129.171 125.395 127.41C125.28 125.1 125.973 122.241 127.099 120.509C128.023 119.065 129.351 117.997 130.622 116.986C131.026 116.669 131.459 116.322 131.863 115.976C136.599 111.904 137.263 107.198 136.397 104.426C136.281 104.108 136.483 103.762 136.801 103.646C137.118 103.531 137.465 103.733 137.58 104.05C139.14 109.075 135.906 114.128 132.672 116.9C132.267 117.246 131.834 117.593 131.401 117.939C130.131 118.95 128.947 119.903 128.138 121.173C127.157 122.703 126.521 125.273 126.637 127.323C126.724 128.767 127.445 130.066 128.225 131.395C128.543 131.943 128.889 132.521 129.178 133.127C129.986 134.802 131.315 137.603 129.438 139.884C129.12 140.259 128.745 140.577 128.398 140.866C128.081 141.125 127.792 141.356 127.561 141.645C127.128 142.165 126.926 142.858 126.983 143.551C127.012 143.897 126.752 144.186 126.406 144.215C126.406 144.215 126.377 144.215 126.348 144.215L126.319 144.302Z" fill="#316EA9"/>
<path d="M126.229 124.233C126.056 124.233 125.853 124.147 125.738 124.002C125.016 123.107 124.034 122.443 122.995 121.75C122.013 121.086 121.031 120.422 120.223 119.527C118.895 118.054 118.231 116.062 118.375 114.098C118.375 113.752 118.693 113.492 119.039 113.521C119.386 113.521 119.645 113.838 119.617 114.185C119.501 115.802 120.079 117.505 121.147 118.689C121.84 119.469 122.735 120.075 123.688 120.711C124.756 121.432 125.853 122.183 126.72 123.223C126.922 123.482 126.893 123.887 126.633 124.089C126.518 124.175 126.373 124.233 126.258 124.233H126.229Z" fill="#316EA9"/>
<path d="M140.869 107.772C140.869 107.772 140.58 107.628 140.407 107.57C139.801 107.454 139.223 107.339 138.617 107.281C138.473 107.281 138.299 107.281 138.155 107.31C138.039 107.368 137.924 107.454 137.837 107.57C136.942 108.552 136.047 109.533 135.412 110.688C135.325 110.862 135.21 111.093 135.296 111.295C135.845 112.796 138.53 112.392 139.454 111.612C139.945 111.208 140.494 110.717 140.927 110.284C141.475 109.736 141.562 108.378 140.869 107.772Z" fill="#8CBCB5"/>
<path d="M137.001 110.921C137.001 110.546 137.348 110.257 137.694 110.142C138.041 110.026 138.416 110.026 138.792 110.055C139.773 110.084 140.986 110.315 141.217 111.268C141.304 111.643 141.217 112.019 141.217 112.394C141.217 113.231 141.708 114.011 141.535 114.819C141.362 115.715 140.409 116.292 139.485 116.379C138.561 116.465 137.666 116.148 136.799 115.859C135.846 115.541 134.865 115.224 134.201 114.531C133.508 113.809 133.306 112.538 134.027 111.874C134.489 111.47 135.125 111.383 135.731 111.268C136.337 111.152 137.001 110.892 137.204 110.315C136.886 111.008 137.723 111.181 137.001 110.95V110.921Z" fill="#9CDBDC"/>
<path d="M119.149 115.714C121.026 116.407 126.137 113.375 123.423 111.7C123.105 111.498 122.73 111.441 122.383 111.412C121.401 111.296 120.391 111.238 119.467 111.585C118.543 111.931 117.734 112.769 117.734 113.751C117.734 114.617 118.341 115.425 119.149 115.743V115.714Z" fill="#9CDBDC"/>
<path d="M131.191 103.673C129.256 103.616 132.577 102.027 133.356 101.999C134.656 101.941 135.984 102.461 137.168 102.807C137.456 102.894 137.745 102.98 137.918 103.24C138.092 103.5 138.092 103.962 137.832 104.164C136.388 103.962 134.944 103.818 133.501 103.702C132.692 103.644 131.999 103.702 131.191 103.702V103.673Z" fill="#9CDBDC"/>
<path d="M120.422 118.312C120.768 117.879 122.125 116.436 122.732 116.753C123.28 117.042 123.223 118.197 122.818 118.543C122.241 119.092 120.942 118.746 120.422 118.312Z" fill="#9CDBDC"/>
<path d="M133.245 106.387C133.043 106.214 132.869 105.983 132.61 105.896C132.205 105.752 131.801 106.012 131.455 106.243C130.733 106.733 129.953 107.398 129.953 108.264C129.953 108.755 130.242 109.217 130.646 109.534C131.05 109.852 131.483 110.054 131.945 110.227C133.158 110.66 135.122 110.92 135.641 109.39C136.306 107.484 134.255 107.224 133.245 106.358V106.387Z" fill="#9CDBDC"/>
<path d="M142.86 106.476C143.524 106.303 146.989 104.975 147.249 106.534C146.931 104.83 144.39 103.531 142.917 103.04C142.253 102.809 141.503 102.665 140.81 102.867C140.232 103.011 139.741 103.386 139.25 103.762C138.99 103.964 138.759 104.137 138.5 104.339C138.24 104.541 137.98 104.744 137.835 105.003C137.633 105.379 137.604 106.447 138.009 106.736C138.384 106.996 138.673 106.736 139.077 106.62C140.319 106.361 141.589 106.823 142.831 106.476H142.86Z" fill="#9CDBDC"/>
<path d="M138.64 122.095C139.189 122.211 139.795 122.24 140.286 121.98C140.777 121.72 141.066 120.998 140.748 120.536C139.564 120.074 138.409 119.641 137.341 119.006C136.619 118.572 135.146 118.284 134.598 117.851C135.637 118.688 135.291 119.756 135.926 120.651C136.388 121.316 137.629 121.691 138.322 122.066C138.409 122.124 138.525 122.153 138.611 122.124C138.698 122.095 138.727 121.922 138.611 121.893" fill="#9CDBDC"/>
<path d="M128.249 134.743C128.047 134.108 127.441 133.675 126.805 133.531C126.17 133.357 125.506 133.415 124.842 133.473C124.726 133.473 124.611 133.473 124.524 133.559C124.409 133.646 124.38 133.79 124.293 133.906C124.062 134.195 123.571 134.195 123.398 134.512C123.283 134.743 123.398 135.032 123.571 135.205C123.745 135.379 124.004 135.465 124.235 135.552C125.246 135.927 126.228 136.447 127.296 136.678C128.364 136.909 129.606 136.736 130.357 135.956C130.386 135.898 130.443 135.869 130.443 135.812C130.443 135.696 130.328 135.61 130.212 135.552C129.317 135.176 128.451 134.772 127.556 134.397" fill="#9CDBDC"/>
<path d="M147.312 109.852C147.427 110.719 147.803 111.498 147.976 112.364C148.12 113.202 148.005 114.212 147.312 114.732C147.254 114.761 147.225 114.79 147.167 114.79C147.11 114.79 147.081 114.732 147.052 114.703C146.792 114.414 146.561 114.097 146.388 113.75C146.186 113.317 146.07 112.826 145.839 112.422C145.608 111.989 145.204 111.614 144.713 111.643C144.338 111.643 143.991 111.873 143.616 111.873C143.529 111.873 143.443 111.873 143.385 111.787C143.327 111.7 143.356 111.614 143.385 111.498C143.847 109.65 146.763 106.07 147.312 109.823V109.852Z" fill="#9CDBDC"/>
<path d="M134.32 118.37C134.32 117.966 134.291 117.533 134.262 117.129C134.262 116.84 134.233 116.551 134.06 116.349C133.829 116.06 133.396 116.031 133.02 115.974C132.414 115.887 131.837 115.685 131.23 115.598C130.624 115.512 129.96 115.54 129.498 115.916C129.036 116.262 128.805 116.898 128.805 117.475C128.805 118.053 128.949 118.659 129.093 119.208C129.209 119.583 129.296 119.958 129.527 120.276C129.931 120.853 130.653 121.142 131.375 121.113C133.078 121.056 134.435 120.103 134.349 118.37H134.32Z" fill="#9CDBDC"/>
<path d="M116.21 115.137C115.95 115.08 115.661 115.051 115.43 115.166C115.17 115.282 114.997 115.571 114.882 115.83C114.362 116.957 114.189 118.458 114.391 119.7C114.535 120.595 115.43 121.807 115.373 122.645C115.43 121.663 115.546 120.046 116.123 119.209C116.585 118.545 117.307 118.602 117.827 118.025C117.971 117.852 118.029 117.65 118.144 117.447C118.578 116.61 119.068 116.812 118.404 115.975C118 115.484 116.816 115.253 116.239 115.137H116.21Z" fill="#8CBCB5"/>
<path d="M122.499 122.01C122.989 120.133 119.9 119.296 118.658 119.614C118.167 119.729 117.619 119.989 117.59 120.509C117.59 120.913 117.936 121.26 118.283 121.491C119.207 122.155 120.246 122.79 121.372 122.732C121.863 122.732 122.412 122.472 122.527 122.01H122.499Z" fill="#9CDBDC"/>
</g>
<rect x="33" y="175" width="113.861" height="32" rx="16" fill="white"/>
<text fill="#243D59" style="white-space: pre" xml:space="preserve" font-family="Noto Sans JP" font-size="16.5949" font-weight="bold" letter-spacing="0.03em"><tspan x="47.4474" y="197.638">&#x8a08;&#x753b;&#x4f11;&#x6687;&#x8fbc;</tspan></text>
<defs>
<clipPath id="clip0_1_2772">
<rect width="117" height="112.409" fill="white" transform="translate(31 102)"/>
</clipPath>
</defs>
</svg>
