<svg width="179" height="230" viewBox="0 0 179 230" fill="none" xmlns="http://www.w3.org/2000/svg">
<rect width="179" height="230" fill="#EEDDFF" fill-opacity="0.184314"/>
<text fill="#243D59" style="white-space: pre" xml:space="preserve" font-family="Antonio" font-size="73.7258" font-weight="bold" letter-spacing="0.03em"><tspan x="93.1687" y="81.3581">0</tspan></text>
<text fill="#243D59" style="white-space: pre" xml:space="preserve" font-family="Antonio" font-size="73.7258" font-weight="bold" letter-spacing="0.01em"><tspan x="31" y="81.3581">10</tspan></text>
<text fill="#243D59" style="white-space: pre" xml:space="preserve" font-family="Antonio" font-size="18.4315" font-weight="bold" letter-spacing="0.03em"><tspan x="129.301" y="81.4548">&#xff05;</tspan></text>
<g clip-path="url(#clip0_1_2567)">
<path d="M112.217 144.144C112.338 144.488 112.45 144.841 112.441 145.213C112.441 145.473 112.366 145.724 112.301 145.975C112.134 146.598 111.966 147.212 111.799 147.835C111.781 147.909 111.762 147.993 111.725 148.058C111.678 148.16 111.604 148.244 111.529 148.327C111.195 148.709 110.851 149.09 110.516 149.462C110.395 149.592 110.228 149.731 110.07 149.648C109.93 149.564 109.94 149.359 109.986 149.201C110.07 148.867 110.191 148.541 110.33 148.234C110.172 148.365 109.921 148.365 109.791 148.216C109.661 148.067 109.698 147.788 109.884 147.714C109.689 147.769 109.493 147.574 109.475 147.37C109.456 147.165 109.558 146.97 109.651 146.793C109.531 146.905 109.317 146.84 109.224 146.71C109.131 146.57 109.14 146.393 109.187 146.235C109.233 146.077 109.307 145.929 109.345 145.771C109.4 145.501 109.345 145.222 109.28 144.962L112.236 144.162L112.217 144.144Z" fill="#F0A4A8"/>
<path d="M110.686 144.2C110.556 144.563 110.612 144.953 110.658 145.334C110.704 145.697 110.76 146.059 110.807 146.422C110.844 146.654 110.872 146.915 110.751 147.119C110.639 147.324 110.305 147.426 110.156 147.24C110.082 147.147 110.072 147.017 110.063 146.896C110.026 146.385 109.849 145.883 109.561 145.455C109.384 145.186 109.152 144.934 109.022 144.637C108.892 144.33 108.864 143.986 108.845 143.651C108.817 143.168 108.826 142.694 108.836 142.21C108.836 141.755 108.696 141.29 108.631 140.844C108.482 139.821 108.389 138.798 108.25 137.776L111.132 137.683L111.309 141.866C111.662 142.601 111.932 143.391 112.201 144.163C112.322 144.507 112.434 144.86 112.424 145.232C112.424 145.492 112.35 145.743 112.285 145.994C112.118 146.617 111.95 147.231 111.783 147.854C111.764 147.928 111.746 148.012 111.709 148.077C111.662 148.179 111.588 148.263 111.513 148.347C111.179 148.728 110.835 149.109 110.5 149.481C110.379 149.611 110.212 149.75 110.054 149.667C109.914 149.583 109.924 149.379 109.97 149.221C110.054 148.886 110.175 148.56 110.314 148.254C110.565 147.705 111.002 147.324 111.002 146.72C111.002 146.45 110.946 146.19 110.89 145.92C110.797 145.464 110.704 145.009 110.612 144.553C110.556 144.572 110.528 144.637 110.556 144.683" fill="#F9C3C0"/>
<path d="M110.72 129.696C110.72 129.696 110.367 122.017 109.985 116.931C109.669 112.673 108.665 110.841 105.43 109.707C102.622 113.063 105.467 130.161 105.467 130.161L108.423 141.625L112.18 140.407L110.72 129.705V129.696Z" fill="#9CDBDC"/>
<path d="M89.8288 143.633L88.992 134.317L88.4342 115.425C88.1645 113.807 88.8061 112.171 90.5725 111.371C94.6261 109.539 99.3677 107.262 107.019 110.265C108.07 110.674 108.46 111.938 108.823 113.007C109.26 114.281 109.465 115.657 109.418 117.005L109.334 119.329L109.223 132.615C109.195 135.423 109.055 138.194 108.86 140.992C108.777 142.219 108.832 144.125 108.832 144.125C108.832 144.125 106.527 146.18 99.7024 146.143C92.2739 146.106 89.8288 143.642 89.8288 143.642V143.633Z" fill="#9CDBDC"/>
<path d="M89.5086 194.098L88.6719 196.469L88.9229 199.658C88.9229 199.658 90.2896 200.634 91.8515 200.625C92.8185 201.406 94.7616 203.219 98.7129 203.312C99.5683 203.331 101.037 202.522 100.396 201.657C100.005 201.118 95.8865 198.775 93.8319 194.033C91.6191 193.82 89.5086 194.117 89.5086 194.117V194.098Z" fill="#558BBF"/>
<path d="M100.195 188.269L99.5352 190.696L100.019 193.847C100.019 193.847 101.45 194.712 103.003 194.582C104.026 195.289 106.099 196.934 110.041 196.711C110.887 196.665 112.3 195.744 111.603 194.926C111.175 194.424 106.899 192.406 104.5 187.851C102.278 187.814 100.195 188.278 100.195 188.278V188.269Z" fill="#558BBF"/>
<path d="M101.935 107.921C101.006 106.927 97.4169 106.48 95.7155 108.275C95.5946 109.149 95.418 109.725 95.418 109.725L98.5233 110.841L101.861 110.367C101.861 110.367 102.028 108.609 101.935 107.921Z" fill="#9CDBDC"/>
<path d="M98.9428 103.691C97.604 103.691 96.8974 104.444 96.8974 105.095L96.2188 109.465C96.2838 110.218 97.5669 110.832 99.0916 110.832C100.616 110.832 101.797 110.218 101.741 109.465L101.081 104.9C101.025 104.24 100.282 103.691 98.9521 103.691H98.9428Z" fill="#F9C3C0"/>
<path d="M98.3182 94.7757C102.13 94.8036 103.181 97.6672 103.181 101.135C103.181 105.654 100.206 107.039 98.6808 107.485C96.8214 108.024 94.5064 108.508 93.0932 104.947C92.2564 102.827 92.2843 99.1454 92.7492 97.723C93.1583 96.4771 94.5157 94.7478 98.3182 94.7757Z" fill="#F9C3C0"/>
<path d="M95.4946 97.9176C95.3923 97.62 95.7828 97.3783 96.0989 97.3597C97.5028 97.276 97.6608 98.5963 98.5255 99.3493C98.9624 99.7212 99.4552 100.056 99.7155 100.577C100.022 101.19 100.366 101.925 100.404 102.659C100.878 101.358 102.653 104.584 102.198 104.956C102.328 104.853 103.639 103.7 103.518 103.654C103.695 103.719 103.89 103.747 104.076 103.719C103.909 103.189 103.862 102.613 103.955 102.064C104.178 102.278 104.578 102.12 104.727 101.85C104.875 101.581 104.848 101.246 104.81 100.939C105.024 100.939 105.238 100.883 105.424 100.772C105.127 99.9444 105.182 99.0425 105.015 98.1779C104.838 97.2667 104.132 95.7234 103.314 95.2678C103.044 95.1191 102.598 95.1563 102.412 94.9238C102.216 94.6914 102.467 94.2172 102.179 93.9104C101.91 93.6129 101.501 93.4735 101.11 93.3805C99.5946 93.0086 98.042 92.8134 96.5265 93.2875C95.5317 93.6036 94.602 94.115 93.7002 94.6449C93.4306 94.803 93.1702 94.961 92.9378 95.1749C92.38 95.6862 92.2219 96.4858 91.8221 97.118C91.6734 97.3504 91.4688 97.5643 91.1992 97.6386C91.255 97.7688 91.3201 97.9083 91.4224 98.0105C91.5246 98.1128 91.6827 98.1686 91.8221 98.1221C91.599 98.3824 91.6455 98.9867 91.7106 99.3028C91.7942 99.7026 91.9337 100.149 92.1011 100.521C92.1475 100.614 92.2684 100.697 92.3521 100.642C92.4172 100.595 92.4265 100.502 92.4172 100.419C92.3986 100.26 92.3707 100.084 92.4729 99.9629C92.5101 99.9165 92.5566 99.8886 92.6031 99.8607C92.7426 99.7677 92.8727 99.684 93.0122 99.5911C93.2632 99.4237 93.2911 99.0332 93.4213 98.7729C93.57 98.4847 93.756 98.2058 94.007 98.0105C94.4254 97.6851 95.0762 97.6014 95.476 97.9547L95.4946 97.9176Z" fill="#316EA9"/>
<path d="M90.1172 171.841L89.4106 148.951L89.8289 143.633C89.8289 143.633 92.302 145.892 99.7026 146.134C105.792 146.338 108.833 144.116 108.833 144.116L107.075 166.95L105.504 188.836C105.504 188.836 104.63 189.524 102.817 189.487C100.763 189.44 99.7956 188.483 99.7956 188.483L100.493 169.191L99.433 148.644L96.7182 169.814L94.5427 194.015C94.5427 194.015 93.5014 194.935 91.8 194.944C90.08 194.944 88.9922 194.052 88.9922 194.052L90.1172 171.822V171.841Z" fill="#558BBF"/>
<path d="M100.506 110.618C100.506 110.618 99.7804 112.403 99.1481 114.04C97.3817 113.315 96.1823 112.394 94.7227 110.098C95.141 109.428 95.7268 108.275 95.7268 108.275C95.7268 108.275 97.7815 110.265 100.506 110.628V110.618Z" fill="#E7EBF4"/>
<path d="M100.508 110.618C100.508 110.618 101.689 109.633 101.949 107.922C101.949 107.922 102.628 108.805 103.009 109.27C103.297 111.25 102.981 112.227 102.553 113.296C101.614 111.724 100.508 110.627 100.508 110.627" fill="#E7EBF4"/>
<path d="M100.763 102.865C100.763 102.865 100.828 101.572 101.934 101.74C102.883 101.888 102.855 102.502 102.585 103.571C102.316 104.64 101.655 105.161 100.986 105.124C100.317 105.096 100.763 102.855 100.763 102.855V102.865Z" fill="#F9C3C0"/>
<path d="M75.0754 140.351L73.6157 141.792L72.7325 143.484C72.249 144.172 71.4216 145.102 70.7615 145.622C70.0456 146.189 69.5156 146.617 69.339 146.747C69.0694 146.943 68.7347 147.11 68.5952 146.915C68.4929 146.766 68.744 146.431 68.744 146.431C68.744 146.431 67.9537 147.231 67.8328 147.324C67.712 147.426 67.4423 147.584 67.2936 147.417C67.1448 147.249 67.3122 146.887 67.3122 146.887C66.9868 147.212 66.7543 147.212 66.6056 147.091C66.4289 146.933 66.68 146.375 66.68 146.375C66.68 146.375 66.2151 146.347 66.6521 145.557C67.0426 144.851 68.8183 143.177 68.8183 143.177C69.0601 142.749 69.3111 142.331 69.2925 141.959C69.2925 141.727 69.0973 141.513 68.8741 141.448C68.7347 141.411 68.2326 141.504 68.0932 141.494C67.712 141.476 66.4196 141.243 66.5498 140.63C66.5498 140.592 66.5684 140.565 66.5963 140.537C66.6242 140.509 66.6614 140.5 66.7079 140.5C66.9589 140.462 67.2378 140.472 67.4888 140.481C68.0281 140.49 68.5766 140.481 69.1158 140.481C69.1251 140.481 69.1437 140.481 69.153 140.481C69.5807 140.49 69.9991 140.36 70.3617 140.137C71.2356 139.588 72.4443 139.644 72.4443 139.644L75.6704 136.399L77.5764 138.919L75.0754 140.351Z" fill="#F9C3C0"/>
<path d="M72.2788 138.881L74.817 142.098L79.8003 138.797C81.8271 136.854 83.8446 135.59 85.6855 133.47C86.6338 132.373 87.9633 130.867 86.922 128.821C85.0254 125.093 80.9625 130.393 79.4935 131.843C76.3696 134.911 72.2695 138.881 72.2695 138.881H72.2788Z" fill="#9CDBDC"/>
<path d="M83.6213 132.912C84.8857 133.628 87.0706 131.76 87.5912 130.411C88.6139 127.771 91.6448 123.634 92.8442 120.556C94.3968 116.577 92.2584 114.783 89.6924 112.505C87.1171 112.486 83.863 123.903 82.4033 128.608C81.9571 130.058 82.7752 132.438 83.6213 132.922V132.912Z" fill="#9CDBDC"/>
<path d="M77.8261 130.123C77.9841 128.785 79.5089 128.041 80.6431 128.775C81.7588 129.491 82.5305 130.57 82.9767 133.182L85.0128 143.725L87.3372 148.29L84.4364 148.69L81.1545 145.092C81.1545 145.092 78.8673 136.195 78.3932 134.679C77.7796 132.68 77.6959 131.193 77.8261 130.123Z" fill="#FACDCB"/>
<path d="M69.3185 204.902C69.2441 204.967 69.1791 205.06 69.1047 205.199C68.6398 206.036 68.4446 206.761 68.4911 207.719C68.5004 208.016 68.5189 208.314 68.6212 208.593C68.7979 209.067 69.2162 209.42 69.6811 209.625C70.146 209.829 70.6294 209.848 71.1036 209.978C71.4197 210.071 71.587 210.341 71.8474 210.536C72.21 210.805 72.5911 211.038 73.0002 211.242C74.0415 211.754 75.2781 212.088 76.4402 212.079C76.8679 212.079 77.3049 211.995 77.6582 211.763C78.0114 211.521 78.2625 211.103 78.1974 210.675C78.1137 210.108 77.5652 209.755 77.0724 209.467C76.059 208.872 75.1944 208.193 74.3297 207.412C73.5767 206.724 73.0467 205.701 72.6469 204.762C71.7172 204.669 70.7782 204.688 69.8578 204.762C69.5881 204.79 69.4487 204.799 69.3278 204.902H69.3185Z" fill="#558BBF"/>
<path d="M77.4255 200.895C77.3698 200.969 77.314 201.071 77.2582 201.22C76.9328 202.122 76.8677 202.875 77.0629 203.805C77.128 204.093 77.1931 204.39 77.3419 204.651C77.5929 205.088 78.0671 205.367 78.5505 205.497C79.0433 205.627 79.5267 205.552 80.0195 205.608C80.3449 205.645 80.5587 205.887 80.8469 206.036C81.2467 206.24 81.6651 206.408 82.1021 206.538C83.2177 206.873 84.4822 207.003 85.635 206.798C86.0534 206.724 86.4811 206.575 86.7879 206.278C87.0947 205.98 87.2713 205.525 87.1505 205.116C86.9831 204.576 86.3695 204.316 85.8396 204.111C84.7425 203.693 83.7756 203.163 82.7901 202.531C81.9347 201.973 81.2467 201.053 80.6889 200.197C79.7592 200.262 78.8387 200.43 77.9369 200.662C77.6766 200.727 77.5371 200.764 77.4348 200.885L77.4255 200.895Z" fill="#558BBF"/>
<path d="M84.929 153.878C84.929 153.878 83.209 177.689 82.8557 179.92C82.5024 182.161 82.3723 199.277 82.2514 202.419C80.7081 203.033 77.8538 203.191 76.1617 202.531C76.0408 195.846 75.0367 186.316 75.576 179.818C75.4179 177.949 75.4365 167.908 75.6132 164.235C75.669 159.949 75.8828 155.459 75.8828 155.459L78.8114 152.335L84.929 153.878Z" fill="#558BBF"/>
<path d="M77.5194 153.664C77.5194 153.664 75.5112 180.003 75.1114 182.495C74.7116 184.986 74.284 202.577 74.0329 206.073C72.1177 206.519 69.7655 206.649 68.0827 206.11C67.8875 200.634 66.2976 188.268 67.655 181.277C67.311 175.345 66.2976 161.009 66.2325 157.662C66.1675 155.682 67.655 152.093 67.655 152.093L77.5287 153.664H77.5194Z" fill="#558BBF"/>
<path d="M77.2961 127.064C77.2961 127.064 78.7372 127.195 79.453 127.418C80.5594 127.762 81.5914 128.124 82.7629 131.313C83.925 134.502 85.3382 138.788 85.3382 138.788L79.8807 140.443C79.8807 140.443 75.7992 132.011 75.8922 130.17C75.9852 128.329 77.2961 127.064 77.2961 127.064Z" fill="#F25F0A"/>
<path d="M76.5845 121.468C77.412 120.027 77.9512 118.465 77.9605 116.782C77.9605 116.001 77.9047 115.183 78.2394 114.486C78.3138 114.337 78.4254 114.179 78.5927 114.16C78.9181 114.123 79.0204 114.579 79.0111 114.904C78.9646 116.708 79.3179 118.511 80.0431 120.166C80.5451 121.31 81.2424 122.602 80.7218 123.746C80.1732 124.954 78.0814 125.605 76.882 125.856C75.9802 126.042 75.0504 126.079 74.1393 125.959C73.5071 124.536 74.5391 123.588 75.5246 122.76C75.8779 122.463 76.1289 122.212 76.3707 121.812C76.4357 121.7 76.5008 121.589 76.5659 121.477L76.5845 121.468Z" fill="#316EA9"/>
<path d="M65.8543 157.495C65.8078 155.292 65.7613 153.079 65.7148 150.875C65.6776 149.276 65.9007 148.486 65.752 146.943C65.752 146.905 64.3202 132.262 64.3202 132.262C64.0134 130.895 64.4783 129.464 65.9472 128.692C69.3128 126.926 72.4367 125.252 79.1214 127.437C79.9396 127.707 80.014 129.575 80.0977 130.235C80.172 130.83 80.1256 131.463 80.2464 132.048C80.3952 132.82 80.9437 133.359 81.3063 134.029C81.7991 134.931 81.8362 136.009 81.7619 137.032C81.6782 138.119 81.3156 139.282 81.8641 140.258C82.3941 141.188 83.1472 142.034 83.7794 142.889C85.9921 145.855 86.4942 150.448 86.457 154.046C86.4477 155.106 86.3547 157.253 85.7969 158.202C85.0624 159.457 82.7474 159.866 81.4644 160.098C78.4799 160.647 75.4118 160.712 72.3995 160.312C70.9492 160.117 65.9193 159.782 65.8729 157.653C65.8729 157.597 65.8729 157.541 65.8729 157.486L65.8543 157.495Z" fill="#F25F0A"/>
<path d="M72.564 122.212C71.3182 122.212 70.6581 122.919 70.6581 123.523L70.0352 127.595C70.0909 128.302 71.2903 128.869 72.7128 128.86C74.1352 128.86 75.2323 128.283 75.1765 127.577L74.5536 123.328C74.4978 122.714 73.8098 122.203 72.564 122.212Z" fill="#F9C3C0"/>
<path d="M72.7969 111.399C69.0222 111.176 67.7949 113.938 67.5625 117.377C68.3342 121.459 70.1192 123.43 71.5975 123.969C73.4012 124.629 76.1439 125.196 77.7802 121.757C78.7564 119.711 78.4868 116.132 78.1149 114.691C77.7988 113.435 76.5622 111.622 72.7969 111.399Z" fill="#F9C3C0"/>
<path d="M76.0523 114.569C76.0523 114.569 74.8622 115.796 74.7878 115.861C73.6629 116.763 71.5989 117.386 71.5152 119.106C71.3943 121.589 69.9161 118.679 69.2188 118.985C68.6888 119.218 69.0979 120.445 69.2188 120.826C69.6557 122.277 70.7993 123.392 71.2828 124.824C71.6361 125.856 71.3385 126.033 70.3809 126.479C68.6516 127.279 65.9461 127.074 65.4162 124.843C65.1652 123.801 65.4255 122.714 65.6114 121.663C65.9833 119.515 65.8718 117.321 66.2344 115.183C66.3831 114.318 66.5412 113.528 67.0618 112.793C67.5453 112.115 68.4378 111.919 68.912 111.352C68.912 111.352 71.4315 108.321 76.7124 111.371C78.451 112.375 79.9571 114.699 78.2557 117.516C78.2557 117.516 77.9024 115.527 76.0616 114.578L76.0523 114.569Z" fill="#316EA9"/>
<path d="M69.6635 119.525C69.6635 119.525 69.6821 118.242 68.5757 118.335C67.6274 118.419 67.4043 119.051 67.6088 120.139C67.8133 121.217 68.6315 121.738 69.2916 121.756C69.9517 121.775 69.6635 119.525 69.6635 119.525Z" fill="#F9C3C0"/>
<path d="M74.9264 132.132C74.9264 132.132 70.222 130.756 69.4782 127.707C69.4689 127.474 69.4968 127.251 69.5526 127.028C71.254 126.452 73.1878 126.191 75.7446 126.6C75.8468 126.833 75.9119 127.075 75.9212 127.326C76.3954 130.022 74.9264 132.123 74.9264 132.123V132.132Z" fill="#F9C3C0"/>
<path d="M65.2099 131.527C64.494 130.384 62.8019 130.365 62.086 131.509C61.3794 132.634 61.147 133.935 61.8536 136.492L65.3494 148.746L73.0568 154.054L74.5537 152.065L68.5941 146.496C68.5941 146.496 66.8741 137.477 66.6417 135.897C66.3442 133.833 65.7863 132.448 65.2099 131.536V131.527Z" fill="#FACDCB"/>
<path d="M75.1706 155.478C75.1706 155.478 75.7749 156.128 76.0352 156.379C76.3234 156.658 76.6395 156.919 76.9649 157.16C77.56 157.597 78.2108 157.951 78.8988 158.211C78.9359 158.23 78.9824 158.239 79.0196 158.257C79.6239 158.481 80.2469 158.592 80.8698 158.75C81.0278 158.787 81.251 158.908 81.409 158.769C81.409 158.769 81.5299 158.62 81.5113 158.611C81.5113 158.611 81.8832 158.694 82.004 158.536C82.097 158.406 82.1156 158.239 81.9018 158.053C81.9018 158.053 82.1435 158.109 82.2644 157.969C82.3852 157.83 82.2923 157.662 82.2365 157.588C82.1714 157.514 81.6693 157.077 81.6693 157.077C81.6693 157.077 81.8832 157.198 81.9947 157.095C82.3945 156.733 81.6693 156.277 81.409 156.119C80.9627 155.84 80.47 155.645 80.0051 155.375C79.9029 155.31 79.8006 155.226 79.6983 155.161C79.5775 155.078 79.4845 154.985 79.4473 154.845C79.4473 154.827 79.4473 154.817 79.4473 154.799C79.4473 154.78 79.4752 154.78 79.4845 154.771C79.6053 154.724 79.7355 154.678 79.875 154.687C79.9493 154.687 80.033 154.715 80.1074 154.734C80.3677 154.817 80.6466 154.91 80.9256 154.882C81.0929 154.864 81.3811 154.715 81.2882 154.501C81.2603 154.427 81.1859 154.39 81.1208 154.353C80.4793 153.999 79.8285 153.646 79.1219 153.469C78.5362 153.33 77.9969 153.367 77.4298 153.516C77.0207 153.618 76.5651 153.767 76.1747 153.432L74.5476 152.065L73.0508 154.055L75.1613 155.478H75.1706Z" fill="#FACDCB"/>
<path d="M88.0511 149.909C88.0232 150.345 87.921 150.792 87.8838 151.154C87.8373 151.554 87.7536 151.954 87.6513 152.344C87.4561 153.06 87.1772 153.739 86.8146 154.38C86.796 154.418 86.7681 154.455 86.7495 154.492C86.4241 155.041 86.0057 155.533 85.6245 156.035C85.5223 156.166 85.4293 156.398 85.2154 156.389C85.2061 156.389 85.0202 156.352 85.0388 156.324C85.0388 156.324 84.8064 156.621 84.6111 156.575C84.4531 156.537 84.3415 156.407 84.388 156.138C84.388 156.138 84.2392 156.333 84.0533 156.296C83.8673 156.268 83.8395 156.073 83.8395 155.98C83.8395 155.887 83.9603 155.227 83.9603 155.227C83.9603 155.227 83.8673 155.459 83.7186 155.45C83.1793 155.422 83.4583 154.604 83.5605 154.315C83.7372 153.813 83.9882 153.349 84.1835 152.856C84.2299 152.744 84.2485 152.614 84.2857 152.502C84.3322 152.363 84.3415 152.233 84.2857 152.093C84.2857 152.084 84.2671 152.065 84.2578 152.056C84.2392 152.056 84.2299 152.056 84.2113 152.056C84.0905 152.103 83.9603 152.149 83.858 152.242C83.8023 152.298 83.7558 152.363 83.7093 152.428C83.5605 152.651 83.3932 152.902 83.1701 153.051C83.0306 153.144 82.7145 153.209 82.6401 152.986C82.6215 152.912 82.6401 152.837 82.6773 152.763C82.9562 152.084 83.2351 151.396 83.6721 150.82C84.0347 150.345 84.4717 150.029 85.0109 149.788C85.6245 149.509 85.5873 149.295 85.8849 148.839C86.1359 148.449 86.2846 148.096 86.8797 148.151C87.3445 148.189 87.7536 148.533 87.9488 148.96C88.0697 149.221 88.0883 149.555 88.0697 149.899L88.0511 149.909Z" fill="#FACDCB"/>
<path d="M65.9263 128.701C65.9263 128.701 64.383 129.436 63.7136 129.77C62.6816 130.282 61.5287 131.016 61.1661 134.391C60.8128 137.766 61.1197 142.638 61.1197 142.638L67.981 141.401C67.981 141.401 67.4232 133.824 67.0327 132.03C66.6515 130.226 65.9263 128.71 65.9263 128.71V128.701Z" fill="#F25F0A"/>
</g>
<defs>
<clipPath id="clip0_1_2567">
<rect width="51.4417" height="119.07" fill="white" transform="translate(61 93)"/>
</clipPath>
</defs>
</svg>
