<svg width="473" height="280" viewBox="0 0 473 280" fill="none" xmlns="http://www.w3.org/2000/svg">
<rect width="472.5" height="280" fill="#E7EBF4"/>
<path d="M85.0356 113.855C85.0356 113.855 85.0356 113.805 85.0356 113.781C85.0356 113.715 85.0356 113.649 85.0274 113.584C85.0192 113.452 85.011 113.312 84.9945 113.173C84.9781 113.041 84.9699 112.91 84.9535 112.778C84.9535 112.778 84.9535 112.778 84.9535 112.77C84.937 112.63 84.9124 112.491 84.8959 112.351C84.8713 112.211 84.8466 112.063 84.822 111.924C84.8138 111.866 84.7973 111.809 84.7891 111.751C84.7891 111.718 84.7809 111.694 84.7727 111.661C84.7645 111.603 84.748 111.546 84.7398 111.488C84.7069 111.34 84.6741 111.192 84.633 111.045C84.6001 110.913 84.5673 110.782 84.5262 110.642C84.5262 110.634 84.5262 110.625 84.5262 110.617C84.5262 110.617 84.5262 110.601 84.5262 110.593C84.4851 110.445 84.444 110.297 84.3947 110.149C84.3536 110.001 84.3043 109.853 84.255 109.705C84.2386 109.664 84.2221 109.615 84.2057 109.574C84.1975 109.549 84.1893 109.524 84.181 109.492C84.1564 109.418 84.1317 109.352 84.1071 109.278C84.0578 109.138 84.0003 108.999 83.951 108.859C83.9017 108.727 83.8441 108.596 83.7948 108.464C83.7373 108.333 83.6798 108.193 83.6223 108.062C83.5565 107.922 83.499 107.782 83.4333 107.643C83.4004 107.577 83.3675 107.511 83.3429 107.446C83.3265 107.421 83.3182 107.388 83.3018 107.363C83.2772 107.314 83.2525 107.265 83.2361 107.224C83.1457 107.043 83.0553 106.87 82.9649 106.69C82.932 106.624 82.8909 106.558 82.8499 106.492C82.7923 106.394 82.7348 106.295 82.6773 106.197C82.6198 106.098 82.5705 105.999 82.513 105.909C82.4554 105.819 82.3979 105.728 82.3404 105.638C82.2418 105.474 82.135 105.309 82.0281 105.145C81.9788 105.071 81.9378 104.997 81.8885 104.923C81.8063 104.8 81.7159 104.676 81.6337 104.553C81.5762 104.471 81.5187 104.389 81.4612 104.307C81.4365 104.266 81.4119 104.233 81.379 104.192C81.2557 104.027 81.1407 103.871 81.0174 103.715C80.9599 103.649 80.9106 103.575 80.8531 103.51C80.8284 103.477 80.8038 103.452 80.7791 103.419C80.7463 103.378 80.7134 103.337 80.6805 103.296C80.5737 103.173 80.4669 103.041 80.3601 102.918C80.2615 102.811 80.1711 102.704 80.0725 102.598C80.0725 102.589 80.056 102.581 80.0478 102.573C80.0478 102.573 80.0396 102.557 80.0314 102.557C79.9163 102.433 79.8013 102.31 79.6863 102.195C79.5712 102.072 79.448 101.957 79.3329 101.842C79.3165 101.825 79.3 101.809 79.2836 101.792C79.2672 101.776 79.2507 101.759 79.2261 101.743C79.1357 101.661 79.0535 101.579 78.9631 101.497C78.8399 101.382 78.7166 101.275 78.5934 101.168C78.5523 101.135 78.5112 101.102 78.4701 101.069C78.4455 101.045 78.4126 101.028 78.3879 101.004C78.3304 100.954 78.2729 100.905 78.2154 100.856C78.0921 100.757 77.9689 100.667 77.8456 100.576C77.7634 100.519 77.6895 100.461 77.6073 100.404C77.5909 100.387 77.5662 100.371 77.5498 100.363C77.5251 100.346 77.5005 100.33 77.4841 100.313C77.369 100.231 77.2458 100.149 77.1225 100.075C77.0075 100.001 76.8842 99.9271 76.7609 99.8532C76.7363 99.8368 76.7034 99.8203 76.6788 99.8039L67.7221 94.6355L76.3008 89.6479C76.5309 89.5164 76.7527 89.3521 76.9664 89.1877C77.0321 89.1384 77.0896 89.0809 77.1554 89.0316C77.3033 88.9001 77.4512 88.7604 77.5827 88.6125C77.6402 88.5468 77.6977 88.4893 77.7552 88.4153C77.9113 88.2346 78.0593 88.0374 78.1989 87.8319C78.2236 87.7991 78.2483 87.7662 78.2729 87.7333C78.2729 87.7333 78.2811 87.7169 78.2893 87.7087C78.4455 87.4622 78.5934 87.1992 78.7248 86.9281C78.7248 86.9199 78.7248 86.9116 78.7331 86.9034C78.7495 86.8788 78.7577 86.8459 78.7742 86.813C78.8563 86.6405 78.9303 86.4679 78.996 86.2789C79.0289 86.1886 79.0617 86.09 79.0864 85.9996C79.1028 85.9421 79.1275 85.8845 79.1439 85.8352C79.1604 85.7859 79.1768 85.7366 79.1932 85.6873C79.2507 85.4983 79.3 85.3011 79.3493 85.1039C79.3658 85.03 79.374 84.956 79.3904 84.8903C79.3987 84.841 79.4069 84.7999 79.4151 84.7506C79.4315 84.6849 79.448 84.6109 79.4562 84.5452C79.489 84.3644 79.5137 84.1837 79.5383 83.9947C79.5548 83.8961 79.563 83.7892 79.5712 83.6824C79.5712 83.6496 79.5712 83.6085 79.5794 83.5756C79.5794 83.5345 79.5877 83.4934 79.5959 83.4441C79.6123 83.2634 79.6205 83.0908 79.6287 82.9018C79.6287 82.7211 79.637 82.5321 79.6452 82.3513V82.3184C79.6452 82.1459 79.6452 81.9733 79.6452 81.8008C79.6452 81.62 79.6287 81.431 79.6205 81.2502C79.6205 81.1681 79.6041 81.0777 79.6041 80.9955C79.6041 80.9626 79.6041 80.9216 79.5959 80.8887C79.5959 80.823 79.5877 80.7572 79.5794 80.6915C79.563 80.5025 79.5383 80.3217 79.5137 80.1327C79.489 79.9438 79.4644 79.7465 79.4315 79.5576C79.4315 79.5576 79.4315 79.5493 79.4315 79.5411C79.4315 79.5411 79.4315 79.5247 79.4315 79.5165C79.4069 79.3357 79.374 79.1549 79.3411 78.9742C79.3 78.777 79.2672 78.5798 79.2179 78.3743C79.2014 78.3004 79.185 78.2346 79.1686 78.1607C79.1604 78.1196 79.1521 78.0785 79.1357 78.0374C79.1111 77.9471 79.0946 77.8649 79.0782 77.7745C79.0289 77.5691 78.9714 77.3719 78.9221 77.1665C78.881 77.0186 78.8399 76.8707 78.7906 76.7227C78.7906 76.6981 78.7741 76.6652 78.7659 76.6406C78.7659 76.6159 78.7495 76.5913 78.7413 76.5584C78.6838 76.3612 78.618 76.164 78.5523 75.9668C78.4865 75.7696 78.4208 75.5806 78.3469 75.3834C78.3304 75.3505 78.3222 75.3094 78.3058 75.2766C78.2976 75.2437 78.2811 75.2191 78.2729 75.1862C78.2318 75.0629 78.1825 74.9397 78.1332 74.8247C78.0593 74.6357 77.9853 74.4549 77.9113 74.2659C77.8538 74.1344 77.7963 74.003 77.7388 73.8633C77.7306 73.8386 77.7224 73.814 77.7059 73.7975C77.6977 73.7729 77.6813 73.7482 77.673 73.7236C77.5909 73.5428 77.5087 73.3538 77.4183 73.1731C77.3197 72.9676 77.2293 72.7704 77.1225 72.565C77.1061 72.5322 77.0896 72.5075 77.0732 72.4746C77.0568 72.4335 77.0321 72.3925 77.0157 72.3596C76.9335 72.2035 76.8513 72.0391 76.7692 71.883C76.6623 71.6858 76.5473 71.4886 76.4405 71.2914C76.383 71.1928 76.3337 71.0942 76.2761 70.9956C76.2515 70.9545 76.235 70.9134 76.2104 70.8806C76.1118 70.708 75.9967 70.5437 75.8981 70.3793C75.742 70.1328 75.5941 69.8863 75.438 69.6398C75.4133 69.5987 75.3887 69.5577 75.364 69.5248C75.1339 69.1715 74.8874 68.8346 74.6409 68.4895C74.4766 68.2676 74.304 68.0375 74.1315 67.8239C73.9918 67.6431 73.8438 67.4706 73.7042 67.298C73.7042 67.298 73.7042 67.298 73.7042 67.2898C73.5562 67.1172 73.4083 66.9447 73.2604 66.7721C73.1125 66.6078 72.9646 66.4435 72.8167 66.2791C72.7921 66.2545 72.7674 66.2298 72.7427 66.197C72.7181 66.1723 72.6934 66.1394 72.6606 66.1148C72.5538 66.008 72.4551 65.8929 72.3483 65.7861C72.1922 65.6218 72.0279 65.4657 71.8635 65.3095C71.8142 65.2602 71.7649 65.2192 71.7074 65.1699C71.6663 65.137 71.6334 65.0959 71.5923 65.063C71.5102 64.9891 71.4362 64.9151 71.354 64.8412C71.1897 64.6933 71.0171 64.5454 70.8446 64.3975C70.7706 64.3317 70.6967 64.2742 70.6145 64.2085C70.5734 64.1756 70.5405 64.1427 70.4995 64.1181C70.4419 64.0688 70.3844 64.0277 70.3351 63.9784C70.1708 63.8469 69.9982 63.7155 69.8339 63.5922C69.7106 63.5018 69.5874 63.4197 69.4641 63.3293C69.4394 63.3128 69.423 63.2964 69.3984 63.28C69.3737 63.2635 69.3573 63.2471 69.3326 63.2389C69.1683 63.1321 69.0122 63.0253 68.8478 62.9184C68.6835 62.8198 68.5273 62.7212 68.363 62.6226C68.3219 62.598 68.289 62.5815 68.248 62.5569C68.1247 62.4829 68.0014 62.4172 67.8864 62.3515C67.8371 62.3268 67.796 62.3022 67.7467 62.2775C67.681 62.2447 67.6235 62.2118 67.5577 62.1789C67.5084 62.1543 67.4591 62.1296 67.4098 62.105C67.3358 62.0639 67.2537 62.031 67.1797 61.9981C67.1222 61.9735 67.0729 61.9488 67.0154 61.9242C66.9907 61.916 66.9661 61.8995 66.9496 61.8913C66.7935 61.8256 66.6456 61.7599 66.4895 61.6941C66.3334 61.6284 66.1772 61.5709 66.0293 61.5216C66.0129 61.5216 65.9882 61.5051 65.9718 61.5051C65.9143 61.4887 65.865 61.4723 65.8075 61.4476C65.7253 61.423 65.6513 61.3901 65.5692 61.3737C65.5281 61.3654 65.4952 61.3572 65.4541 61.3408C65.3884 61.3244 65.3226 61.2997 65.2569 61.2833C65.2076 61.2668 65.1501 61.2504 65.1008 61.2422C65.0433 61.2258 64.994 61.2175 64.9364 61.2093C64.8707 61.1929 64.805 61.1765 64.7392 61.1682C64.7064 61.1682 64.6653 61.1518 64.6324 61.1436C64.5667 61.1354 64.5091 61.1272 64.4434 61.1107C64.3695 61.0943 64.2873 61.0861 64.2133 61.0696C64.1887 61.0696 64.1558 61.0614 64.1312 61.0532C64.0654 61.045 64.0079 61.045 63.9422 61.0368C63.86 61.0286 63.7778 61.0203 63.6956 61.0121C63.671 61.0121 63.6463 61.0121 63.6217 61.0121C63.5642 61.0121 63.5149 61.0121 63.4573 61.0121C63.3587 61.0121 63.2601 61.0039 63.1697 61.0039C63.1451 61.0039 63.1122 61.0039 63.0876 61.0039C63.0465 61.0039 63.0054 61.0039 62.9643 61.0039C62.8411 61.0039 62.726 61.0039 62.6028 61.0203C62.5699 61.0203 62.5288 61.0203 62.4959 61.0203C62.4713 61.0203 62.4466 61.0286 62.4138 61.0286C62.233 61.045 62.0522 61.0696 61.8797 61.1025C61.8632 61.1025 61.8468 61.1025 61.8386 61.1025C61.5921 61.1518 61.3455 61.2258 61.1155 61.2997C61.0908 61.2997 61.0744 61.3079 61.0497 61.3161C61.0333 61.3161 61.0168 61.3326 61.0004 61.3326C60.9018 61.3737 60.795 61.4147 60.6964 61.4558C60.6471 61.4805 60.5978 61.4969 60.5485 61.5216C60.4006 61.5873 60.2609 61.6613 60.1294 61.7434L48.0255 68.777C48.1652 68.6949 48.3049 68.6209 48.4528 68.5552C48.5021 68.5305 48.5514 68.5141 48.6007 68.4895C48.6993 68.4484 48.7979 68.4073 48.9047 68.3662C48.9458 68.3498 48.9787 68.3416 49.0198 68.3251C49.2581 68.243 49.4964 68.1772 49.7429 68.1279C49.7593 68.1279 49.7758 68.1279 49.7922 68.1197C49.9648 68.0868 50.1455 68.0622 50.3263 68.0457C50.392 68.0457 50.4496 68.0375 50.5153 68.0293C50.6303 68.0211 50.7536 68.0129 50.8769 68.0129C50.9426 68.0129 51.0166 68.0129 51.0823 68.0129C51.1809 68.0129 51.2713 68.0129 51.3699 68.0211C51.4521 68.0211 51.526 68.0211 51.6082 68.0375C51.6904 68.0375 51.7725 68.054 51.8547 68.0622C51.9451 68.0704 52.0355 68.0786 52.1259 68.0951C52.1998 68.1033 52.282 68.1197 52.356 68.1361C52.4546 68.1526 52.5532 68.169 52.6518 68.1937C52.7175 68.2101 52.7832 68.2265 52.849 68.2347C52.9558 68.2594 53.0626 68.284 53.1695 68.3169C53.2352 68.3333 53.3009 68.3498 53.3749 68.3744C53.4899 68.4073 53.605 68.4484 53.7282 68.4812C53.7857 68.4977 53.835 68.5141 53.8926 68.5388C54.2377 68.6538 54.5828 68.7935 54.9361 68.9578C54.9937 68.9825 55.043 69.0071 55.1005 69.04C55.2237 69.0975 55.347 69.1632 55.4785 69.2208C55.5442 69.2536 55.6017 69.2865 55.6675 69.3194C55.8318 69.4097 56.0044 69.5001 56.1687 69.5905C56.5549 69.8124 56.9411 70.0589 57.3109 70.3218C57.3356 70.3383 57.352 70.3547 57.3766 70.3711C57.73 70.6176 58.0751 70.8806 58.4202 71.1517C58.4613 71.1846 58.4942 71.2175 58.5353 71.2421C58.864 71.5133 59.1926 71.7926 59.5049 72.0884C59.546 72.1213 59.5788 72.1624 59.6199 72.1953C59.9404 72.4993 60.2609 72.8197 60.5731 73.1402C60.5978 73.1648 60.6224 73.1977 60.6553 73.2224C60.984 73.5757 61.3127 73.9372 61.6249 74.3152C61.6249 74.3152 61.6249 74.3152 61.6331 74.3234C61.9536 74.7096 62.2659 75.1122 62.5699 75.5149C62.8493 75.8846 63.1122 76.2708 63.367 76.6652C63.5231 76.9117 63.6792 77.1582 63.8271 77.4047C63.9504 77.6102 64.0819 77.8156 64.2051 78.021C64.2626 78.1196 64.3119 78.2182 64.3695 78.3168C64.5667 78.6701 64.7639 79.0235 64.9447 79.385C64.9611 79.4261 64.9857 79.4672 65.0022 79.5C65.224 79.9355 65.4295 80.3792 65.6267 80.823C65.6349 80.8476 65.6431 80.864 65.6595 80.8887C65.8485 81.3242 66.0293 81.7679 66.1937 82.2116C66.2019 82.2445 66.2183 82.2691 66.2265 82.302C66.3909 82.7539 66.547 83.2058 66.6867 83.666C66.6867 83.6906 66.7031 83.7235 66.7113 83.7482C66.8428 84.1837 66.9579 84.6274 67.0647 85.0629C67.0729 85.1039 67.0811 85.145 67.0976 85.1861C67.2044 85.638 67.2865 86.09 67.3605 86.5337C67.3605 86.5337 67.3605 86.5501 67.3605 86.5583C67.4345 87.0102 67.4838 87.4622 67.5248 87.9059C67.5248 87.9388 67.5248 87.9798 67.5331 88.0127C67.5659 88.4564 67.5906 88.9001 67.5824 89.3356C67.5824 89.7711 67.5577 90.1902 67.5248 90.5928C67.5248 90.6257 67.5248 90.6667 67.5166 90.6996C67.4755 91.0694 67.4262 91.4227 67.3605 91.7678C67.3523 91.8171 67.3441 91.8582 67.3358 91.9075C67.2701 92.2362 67.1879 92.5566 67.0893 92.8606C67.0729 92.9182 67.0483 92.9757 67.0318 93.025C66.9332 93.3126 66.8346 93.5837 66.7113 93.8385C66.6949 93.8713 66.6867 93.896 66.6703 93.9288C66.6703 93.9453 66.6538 93.9617 66.6456 93.9781L59.6528 89.9437C59.5624 89.8944 59.472 89.8451 59.3816 89.7958C59.2666 89.73 59.1516 89.6725 59.0365 89.615C58.9626 89.5739 58.8886 89.541 58.8146 89.5082C58.7982 89.5 58.7818 89.4917 58.7653 89.4835C58.7407 89.4753 58.7243 89.4589 58.6996 89.4507C58.5846 89.4014 58.4777 89.3521 58.3627 89.311C58.2477 89.2617 58.1326 89.2206 58.0258 89.1795C58.0094 89.1795 57.9847 89.1631 57.9683 89.1631C57.9518 89.1631 57.9354 89.1548 57.919 89.1466C57.845 89.122 57.7628 89.0973 57.6889 89.0727C57.5739 89.0398 57.4588 89.0069 57.3438 88.9741C57.2863 88.9576 57.2287 88.9494 57.1794 88.933C57.1548 88.933 57.1301 88.9248 57.1055 88.9166C57.0726 88.9166 57.0315 88.9001 56.9987 88.8919C56.8754 88.8673 56.7521 88.8508 56.6289 88.8344C56.5549 88.8262 56.481 88.818 56.3988 88.8097C56.3741 88.8097 56.3495 88.8097 56.3248 88.8097C56.3002 88.8097 56.2755 88.8097 56.2591 88.8097C56.1194 88.8015 55.9879 88.7933 55.8565 88.7933C55.7989 88.7933 55.7414 88.7933 55.6839 88.7933C55.6428 88.7933 55.5935 88.7933 55.5524 88.7933C55.5113 88.7933 55.462 88.7933 55.421 88.7933C55.2566 88.8097 55.0923 88.8344 54.9361 88.859C54.9361 88.859 54.9361 88.859 54.9279 88.859C54.8868 88.8673 54.8458 88.8837 54.7965 88.8919C54.6403 88.9248 54.4924 88.9659 54.3445 89.0152C54.3281 89.0152 54.3199 89.0234 54.3116 89.0316C54.0898 89.1138 53.8679 89.2124 53.6625 89.3274L41.5586 96.361C41.764 96.246 41.9777 96.1474 42.2078 96.0652C42.3639 96.0077 42.5282 95.9666 42.7008 95.9255C42.7419 95.9173 42.783 95.9009 42.8323 95.8927C43.0377 95.8516 43.2431 95.8269 43.4568 95.8105C43.4978 95.8105 43.5389 95.8105 43.5882 95.8105C43.8019 95.8105 44.0155 95.8105 44.2292 95.8269C44.2538 95.8269 44.2785 95.8269 44.3031 95.8269C44.5332 95.8516 44.7633 95.8844 45.0016 95.9338C45.0262 95.9338 45.0509 95.942 45.0755 95.9502C45.3221 96.0077 45.5686 96.0734 45.8151 96.1556C45.8315 96.1556 45.848 96.1638 45.8644 96.172C46.1273 96.2624 46.3985 96.3692 46.6697 96.4925C46.6861 96.4925 46.7025 96.5089 46.719 96.5172C46.9984 96.6486 47.2777 96.7883 47.5571 96.9526L64.6242 106.805C64.92 106.977 65.2076 107.158 65.4952 107.355C65.5116 107.372 65.5363 107.388 65.5527 107.396C65.8157 107.585 66.0786 107.782 66.3334 107.988C66.358 108.013 66.3909 108.029 66.4155 108.054C66.6703 108.267 66.925 108.489 67.1715 108.727C67.1879 108.744 67.2126 108.76 67.229 108.777C67.492 109.023 67.7467 109.286 67.9932 109.557C67.9932 109.566 68.0097 109.574 68.0179 109.582C68.2562 109.845 68.4945 110.116 68.7246 110.395C68.7492 110.428 68.7739 110.453 68.7985 110.486C69.0039 110.749 69.2094 111.012 69.4066 111.283C69.4641 111.365 69.5216 111.447 69.5791 111.529C69.7188 111.718 69.8503 111.916 69.9736 112.121C70.0804 112.285 70.179 112.45 70.2858 112.614C70.4009 112.803 70.5159 112.992 70.6227 113.181C70.6802 113.28 70.7378 113.378 70.7953 113.477C70.9514 113.764 71.1075 114.052 71.2472 114.348C71.2637 114.372 71.2719 114.405 71.2883 114.43C71.4527 114.767 71.6006 115.104 71.7485 115.449C71.8882 115.794 72.0196 116.131 72.1429 116.476C72.1511 116.501 72.1593 116.525 72.1675 116.558C72.2826 116.903 72.3976 117.248 72.488 117.593C72.488 117.602 72.488 117.61 72.488 117.618C72.5784 117.955 72.6606 118.3 72.7345 118.637C72.7345 118.67 72.7427 118.694 72.751 118.727C72.8167 119.072 72.8742 119.409 72.9235 119.754C72.9235 119.754 72.9235 119.754 72.9235 119.763C72.9646 120.1 72.9975 120.436 73.0057 120.765C73.0057 120.79 73.0057 120.814 73.0057 120.839C73.0221 121.176 73.0221 121.505 73.0057 121.833L70.4009 176.36L65.035 179.483L61.6989 220L73.8028 212.966L76.6295 178.628L82.2171 175.383L85.1096 114.808C85.1096 114.808 85.1096 114.767 85.1096 114.75C85.1096 114.619 85.1178 114.479 85.1178 114.348C85.1178 114.216 85.1178 114.077 85.1178 113.945C85.1178 113.904 85.1178 113.863 85.1178 113.814L85.0356 113.855Z" fill="#316EA9"/>
<path d="M64.5316 106.838C69.3551 109.623 73.1843 116.484 72.9296 121.883L70.0372 182.457L64.9589 179.524L61.6228 220.041L49.7243 213.172L46.6264 168.941L41.5482 166.007L39.0091 102.302C38.7873 96.624 42.6411 94.2001 47.4564 96.9856L64.5234 106.838H64.5316Z" fill="#9CDBDC"/>
<path d="M56.0927 69.5926C62.4117 73.2408 67.5228 82.0822 67.4981 89.3459C67.4817 96.6096 62.3378 99.5348 56.0188 95.8865C49.6997 92.2382 44.5969 83.3969 44.6133 76.1332C44.6298 68.8695 49.7737 65.9443 56.0927 69.5926Z" fill="#9CDBDC"/>
<text fill="#114178" style="white-space: pre" xml:space="preserve" font-family="Noto Sans JP" font-size="37.5794" font-weight="bold" letter-spacing="0.06em"><tspan x="204.691" y="206.532">&#x540d;</tspan></text>
<text fill="#114178" style="white-space: pre" xml:space="preserve" font-family="Noto Sans JP" font-size="34.1631" font-weight="bold" letter-spacing="0.06em"><tspan x="109.035" y="97.6652">&#x7537;&#x6027;</tspan></text>
<text fill="#114178" style="white-space: pre" xml:space="preserve" font-family="Antonio" font-size="102.489" font-weight="bold" letter-spacing="-0.03em"><tspan x="102.203" y="209.077">24</tspan></text>
<path d="M312.375 182.686L307.967 144.602L310.501 123.825C310.501 123.825 310.501 123.788 310.501 123.765C310.501 123.645 310.509 123.525 310.509 123.398C310.509 123.278 310.509 123.151 310.509 123.031C310.509 122.993 310.509 122.956 310.509 122.918C310.509 122.896 310.509 122.873 310.509 122.851C310.509 122.791 310.509 122.723 310.501 122.663C310.494 122.543 310.486 122.416 310.471 122.289C310.464 122.169 310.449 122.056 310.434 121.936C310.434 121.936 310.434 121.929 310.434 121.921C310.419 121.786 310.396 121.659 310.381 121.532C310.359 121.404 310.336 121.269 310.314 121.142C310.306 121.089 310.291 121.044 310.284 120.992C310.284 120.962 310.276 120.939 310.269 120.91C310.254 120.857 310.246 120.797 310.239 120.745C310.209 120.61 310.179 120.475 310.141 120.34C310.111 120.22 310.081 120.1 310.051 119.988C310.051 119.98 310.051 119.965 310.044 119.958C310.044 119.95 310.044 119.943 310.044 119.935C310.006 119.8 309.969 119.665 309.924 119.53C309.879 119.395 309.841 119.261 309.796 119.126C309.781 119.088 309.766 119.051 309.759 119.006C309.751 118.983 309.744 118.953 309.736 118.931C309.714 118.863 309.691 118.803 309.669 118.736C309.624 118.608 309.572 118.481 309.527 118.354C309.482 118.234 309.429 118.114 309.384 117.994C309.332 117.866 309.279 117.747 309.227 117.627C309.167 117.499 309.114 117.372 309.054 117.244C309.024 117.184 308.994 117.124 308.972 117.064C308.957 117.042 308.949 117.012 308.934 116.989C308.912 116.945 308.889 116.9 308.874 116.862C308.792 116.697 308.709 116.532 308.62 116.375C308.59 116.315 308.552 116.255 308.522 116.202C308.47 116.113 308.417 116.015 308.365 115.925C308.312 115.835 308.267 115.745 308.215 115.655C308.162 115.573 308.11 115.49 308.057 115.408C307.967 115.258 307.877 115.116 307.78 114.966C307.735 114.898 307.698 114.831 307.653 114.763C307.578 114.651 307.495 114.539 307.42 114.434C307.368 114.359 307.315 114.284 307.263 114.209C307.24 114.171 307.218 114.141 307.188 114.104C307.075 113.954 306.97 113.811 306.858 113.669C306.805 113.609 306.761 113.549 306.708 113.482C306.686 113.452 306.663 113.429 306.641 113.399C306.611 113.362 306.581 113.324 306.551 113.294C306.453 113.182 306.356 113.062 306.258 112.95C306.168 112.852 306.086 112.755 305.996 112.657C305.996 112.65 305.981 112.642 305.973 112.635C305.973 112.635 305.966 112.62 305.958 112.62C305.854 112.507 305.749 112.395 305.644 112.29C305.539 112.178 305.426 112.073 305.321 111.968C305.306 111.953 305.291 111.938 305.276 111.923C305.261 111.908 305.239 111.893 305.224 111.878C305.141 111.803 305.066 111.728 304.984 111.653C304.872 111.548 304.759 111.45 304.647 111.353C304.609 111.323 304.572 111.293 304.542 111.263C304.519 111.241 304.489 111.226 304.467 111.203C304.414 111.158 304.362 111.113 304.309 111.076C304.197 110.986 304.084 110.903 303.972 110.821C303.897 110.768 303.83 110.716 303.755 110.663C303.74 110.648 303.717 110.641 303.702 110.626C303.68 110.611 303.657 110.596 303.642 110.581C303.537 110.506 303.425 110.431 303.312 110.364C303.207 110.296 303.095 110.229 302.983 110.161C302.96 110.146 302.93 110.131 302.908 110.116L294.737 105.402L302.563 100.852C302.773 100.732 302.975 100.582 303.162 100.432C303.222 100.387 303.275 100.335 303.335 100.29C303.47 100.17 303.605 100.043 303.725 99.9078C303.777 99.8478 303.83 99.7953 303.882 99.7354C304.024 99.5705 304.159 99.3906 304.287 99.2032C304.309 99.1732 304.332 99.1432 304.354 99.1133C304.354 99.1133 304.362 99.0983 304.369 99.0908C304.512 98.8659 304.647 98.6261 304.767 98.3787C304.767 98.3712 304.767 98.3637 304.774 98.3562C304.789 98.3337 304.797 98.3038 304.812 98.2738C304.887 98.1164 304.954 97.959 305.014 97.7866C305.044 97.7041 305.074 97.6142 305.096 97.5243C305.111 97.4718 305.134 97.4268 305.149 97.3744C305.164 97.3294 305.179 97.2844 305.194 97.2394C305.246 97.067 305.291 96.8872 305.336 96.7073C305.351 96.6398 305.359 96.5724 305.374 96.5124C305.381 96.4674 305.389 96.4299 305.396 96.385C305.411 96.325 305.426 96.2576 305.434 96.1976C305.464 96.0327 305.486 95.8678 305.509 95.6954C305.524 95.6055 305.531 95.508 305.539 95.4106C305.539 95.3806 305.539 95.3431 305.546 95.3132C305.546 95.2757 305.554 95.2382 305.561 95.1932C305.576 95.0283 305.584 94.8709 305.591 94.6985C305.591 94.5336 305.599 94.3613 305.606 94.1964V94.1664C305.606 94.009 305.606 93.8516 305.606 93.6942C305.606 93.5293 305.591 93.3569 305.584 93.192C305.584 93.117 305.569 93.0421 305.569 92.9596C305.569 92.9222 305.569 92.8922 305.561 92.8547C305.561 92.7947 305.554 92.7348 305.546 92.6823C305.531 92.5099 305.509 92.345 305.486 92.1726C305.464 92.0002 305.441 91.8204 305.411 91.648C305.411 91.648 305.411 91.6405 305.411 91.633C305.411 91.633 305.411 91.618 305.411 91.6105C305.389 91.4456 305.359 91.2807 305.329 91.1158C305.291 90.9359 305.261 90.756 305.216 90.5686C305.201 90.5012 305.186 90.4412 305.171 90.3738C305.164 90.3363 305.156 90.2988 305.141 90.2613C305.126 90.1789 305.104 90.1039 305.089 90.0215C305.044 89.8341 304.991 89.6542 304.946 89.4668C304.909 89.3319 304.872 89.197 304.827 89.0621C304.827 89.0396 304.812 89.0096 304.804 88.9871C304.804 88.9647 304.789 88.9422 304.782 88.9122C304.729 88.7323 304.669 88.5524 304.609 88.3725C304.549 88.1926 304.489 88.0203 304.422 87.8404C304.407 87.8104 304.399 87.7729 304.384 87.7429C304.377 87.7129 304.362 87.6905 304.354 87.6605C304.317 87.548 304.272 87.4356 304.227 87.3307C304.159 87.1583 304.092 86.9934 304.024 86.821C303.972 86.7011 303.92 86.5737 303.867 86.4537C303.86 86.4313 303.852 86.4088 303.837 86.3938C303.83 86.3713 303.815 86.3488 303.807 86.3263C303.732 86.1614 303.657 85.989 303.575 85.8241C303.485 85.6368 303.402 85.4569 303.305 85.2695C303.29 85.2395 303.275 85.217 303.26 85.187C303.245 85.1496 303.222 85.1121 303.2 85.0746C303.125 84.9322 303.05 84.7823 302.975 84.6399C302.878 84.46 302.773 84.2801 302.675 84.1002C302.623 84.0103 302.578 83.9203 302.525 83.8304C302.503 83.7929 302.488 83.7554 302.465 83.7255C302.375 83.5681 302.27 83.4256 302.18 83.2682C302.038 83.0434 301.903 82.8185 301.761 82.5937C301.738 82.5562 301.716 82.5187 301.693 82.4887C301.483 82.1664 301.258 81.8591 301.034 81.5518C300.884 81.3495 300.726 81.1471 300.569 80.9447C300.441 80.7798 300.314 80.6224 300.179 80.465C300.179 80.465 300.179 80.465 300.172 80.4575C300.037 80.3001 299.902 80.1427 299.767 79.9853C299.632 79.8354 299.497 79.6855 299.362 79.5356C299.34 79.5131 299.317 79.4906 299.295 79.4606C299.272 79.4382 299.25 79.4082 299.227 79.3857C299.13 79.2883 299.04 79.1833 298.942 79.0859C298.8 78.936 298.65 78.7936 298.5 78.6512C298.455 78.6062 298.41 78.5687 298.358 78.5237C298.32 78.4938 298.29 78.4563 298.253 78.4263C298.178 78.3588 298.11 78.2914 298.035 78.2239C297.885 78.089 297.728 77.9541 297.57 77.8192C297.503 77.7592 297.436 77.7068 297.361 77.6468C297.323 77.6168 297.293 77.5868 297.256 77.5643C297.203 77.5194 297.151 77.4819 297.106 77.4369C296.956 77.317 296.798 77.1971 296.648 77.0846C296.536 77.0022 296.424 76.9272 296.311 76.8448C296.289 76.8298 296.274 76.8148 296.251 76.7998C296.229 76.7848 296.214 76.7698 296.191 76.7623C296.041 76.6649 295.899 76.5675 295.749 76.47C295.599 76.3801 295.457 76.2901 295.307 76.2002C295.269 76.1777 295.239 76.1627 295.202 76.1402C295.089 76.0728 294.977 76.0128 294.872 75.9529C294.827 75.9304 294.789 75.9079 294.744 75.8854C294.685 75.8554 294.632 75.8254 294.572 75.7955C294.527 75.773 294.482 75.7505 294.437 75.728C294.37 75.6905 294.295 75.6605 294.227 75.6306C294.175 75.6081 294.122 75.5781 294.077 75.5556C294.055 75.5481 294.032 75.5331 294.017 75.5256C293.882 75.4657 293.74 75.4057 293.605 75.3532C293.463 75.2933 293.32 75.2408 293.185 75.1958C293.17 75.1958 293.148 75.1808 293.133 75.1808C293.08 75.1659 293.035 75.1509 292.983 75.1284C292.908 75.1059 292.841 75.0834 292.766 75.0609C292.728 75.0534 292.698 75.0384 292.661 75.0309C292.601 75.0159 292.541 74.9935 292.481 74.9785C292.436 74.9635 292.383 74.9485 292.338 74.941C292.286 74.926 292.241 74.9185 292.188 74.911C292.128 74.896 292.068 74.881 292.008 74.8735C291.978 74.8735 291.941 74.8585 291.911 74.8511C291.851 74.8436 291.799 74.8361 291.739 74.8211C291.671 74.8061 291.596 74.7986 291.529 74.7836C291.506 74.7836 291.476 74.7761 291.454 74.7686C291.394 74.7611 291.341 74.7611 291.281 74.7536C291.206 74.7461 291.131 74.7386 291.056 74.7311C291.034 74.7311 291.011 74.7311 290.989 74.7311C290.937 74.7311 290.892 74.7311 290.839 74.7311C290.749 74.7311 290.659 74.7236 290.577 74.7236C290.554 74.7236 290.524 74.7236 290.502 74.7236C290.464 74.7236 290.427 74.7236 290.389 74.7236C290.277 74.7236 290.172 74.7236 290.06 74.7386C290.03 74.7386 289.992 74.7386 289.962 74.7386C289.94 74.7386 289.917 74.7461 289.895 74.7461C289.73 74.7611 289.565 74.7836 289.407 74.8136C289.392 74.8136 289.377 74.8136 289.362 74.8136C289.138 74.8585 288.913 74.926 288.703 74.9935C288.68 74.9935 288.665 75.001 288.643 75.0085C288.628 75.0085 288.613 75.0234 288.598 75.0234C288.508 75.0609 288.41 75.0984 288.32 75.1359C288.275 75.1584 288.23 75.1733 288.186 75.1958C288.051 75.2558 287.923 75.3233 287.796 75.3982L276.754 81.8142C276.882 81.7392 277.009 81.6718 277.144 81.6118C277.189 81.5893 277.234 81.5743 277.279 81.5518C277.369 81.5144 277.459 81.4769 277.556 81.4394C277.594 81.4244 277.624 81.4169 277.661 81.4019C277.879 81.327 278.096 81.267 278.321 81.222C278.336 81.222 278.351 81.222 278.373 81.2145C278.531 81.1846 278.696 81.1621 278.861 81.1471C278.92 81.1471 278.973 81.1396 279.033 81.1321C279.138 81.1246 279.25 81.1171 279.363 81.1171C279.423 81.1171 279.49 81.1171 279.55 81.1171C279.64 81.1171 279.723 81.1171 279.813 81.1246C279.887 81.1246 279.955 81.1246 280.03 81.1396C280.105 81.1396 280.18 81.1546 280.255 81.1621C280.337 81.1696 280.42 81.1771 280.502 81.1921C280.57 81.1996 280.645 81.2145 280.712 81.2295C280.802 81.2445 280.892 81.2595 280.982 81.282C281.042 81.297 281.102 81.312 281.162 81.3195C281.259 81.342 281.357 81.3644 281.454 81.3944C281.514 81.4094 281.574 81.4244 281.634 81.4469C281.739 81.4769 281.844 81.5144 281.956 81.5443C282.009 81.5593 282.054 81.5743 282.106 81.5968C282.264 81.6493 282.421 81.7092 282.579 81.7767C282.736 81.8366 282.893 81.9116 283.058 81.9791C283.111 82.0015 283.163 82.024 283.208 82.054C283.321 82.1065 283.433 82.1664 283.546 82.2189C283.605 82.2489 283.658 82.2789 283.718 82.3089C283.868 82.3913 284.025 82.4737 284.175 82.5562C284.527 82.7586 284.88 82.9834 285.217 83.2233C285.24 83.2383 285.255 83.2533 285.277 83.2682C285.599 83.4931 285.914 83.733 286.222 83.9803C286.259 84.0103 286.289 84.0403 286.327 84.0627C286.626 84.3101 286.926 84.5649 287.211 84.8348C287.249 84.8647 287.279 84.9022 287.316 84.9322C287.608 85.2095 287.901 85.5018 288.186 85.7942C288.208 85.8166 288.23 85.8466 288.26 85.8691C288.56 86.1914 288.86 86.5212 289.145 86.866C289.145 86.866 289.145 86.866 289.152 86.8735C289.715 87.548 290.239 88.2676 290.734 89.0096C290.877 89.227 291.019 89.4593 291.154 89.6842C291.266 89.8716 291.386 90.059 291.499 90.2463C291.551 90.3363 291.596 90.4262 291.649 90.5162C291.829 90.8385 292.008 91.1608 292.173 91.4906C292.188 91.528 292.211 91.558 292.226 91.5955C292.428 91.9927 292.616 92.3975 292.796 92.8022C292.803 92.8247 292.811 92.8397 292.818 92.8622C292.99 93.2594 293.155 93.6642 293.305 94.0689C293.313 94.0914 293.328 94.1214 293.335 94.1514C293.485 94.5636 293.628 94.9759 293.755 95.3956C293.755 95.4181 293.77 95.4406 293.778 95.4706C293.897 95.8678 294.002 96.2725 294.1 96.6698C294.107 96.7073 294.115 96.7447 294.13 96.7822C294.227 97.1945 294.302 97.6067 294.37 98.0114V98.0264C294.437 98.4387 294.482 98.8509 294.52 99.2557C294.52 99.2856 294.52 99.3231 294.527 99.3531C294.557 99.7579 294.58 100.163 294.572 100.56C294.572 100.957 294.55 101.339 294.52 101.707C294.52 101.737 294.52 101.774 294.512 101.804C294.475 102.141 294.43 102.464 294.37 102.778C294.362 102.823 294.355 102.861 294.347 102.906C294.287 103.206 294.212 103.498 294.122 103.775C294.107 103.828 294.085 103.88 294.07 103.925C293.98 104.188 293.89 104.435 293.778 104.667C293.763 104.69 293.755 104.72 293.74 104.75C293.74 104.765 293.725 104.78 293.718 104.795L287.338 101.114C287.256 101.07 287.174 101.025 287.091 100.98C286.986 100.92 286.881 100.867 286.776 100.815C286.709 100.785 286.641 100.747 286.574 100.717C286.559 100.71 286.544 100.702 286.521 100.695C286.499 100.687 286.484 100.672 286.461 100.665C286.356 100.62 286.252 100.575 286.154 100.537C286.049 100.492 285.944 100.455 285.847 100.417C285.832 100.417 285.809 100.41 285.794 100.402C285.779 100.402 285.764 100.395 285.749 100.387C285.682 100.365 285.607 100.342 285.539 100.32C285.434 100.29 285.33 100.26 285.225 100.23C285.172 100.215 285.12 100.208 285.075 100.193C285.052 100.193 285.03 100.185 285.007 100.178C284.977 100.178 284.94 100.163 284.91 100.155C284.797 100.133 284.685 100.118 284.572 100.103C284.505 100.095 284.438 100.088 284.37 100.08C284.348 100.08 284.325 100.08 284.303 100.08C284.28 100.08 284.258 100.08 284.243 100.08C284.115 100.073 283.995 100.065 283.875 100.065C283.823 100.065 283.77 100.065 283.725 100.065C283.688 100.065 283.643 100.065 283.605 100.065C283.568 100.065 283.523 100.065 283.478 100.065C283.328 100.08 283.186 100.103 283.036 100.125C283.036 100.125 283.036 100.125 283.028 100.125C282.991 100.133 282.953 100.148 282.908 100.155C282.766 100.185 282.631 100.223 282.496 100.268C282.481 100.268 282.474 100.275 282.466 100.283C282.264 100.357 282.061 100.447 281.881 100.552L270.84 106.968C271.027 106.863 271.222 106.773 271.425 106.698C271.567 106.646 271.717 106.609 271.874 106.571C271.912 106.564 271.949 106.549 271.994 106.541C272.182 106.504 272.369 106.481 272.564 106.466C272.601 106.466 272.639 106.466 272.684 106.466C272.879 106.466 273.074 106.466 273.269 106.481C273.291 106.481 273.314 106.481 273.336 106.481C273.546 106.504 273.756 106.534 273.973 106.579C273.996 106.579 274.018 106.586 274.041 106.594C274.266 106.646 274.49 106.706 274.715 106.781C274.73 106.781 274.745 106.788 274.76 106.796C275 106.878 275.247 106.976 275.495 107.088C275.51 107.096 275.525 107.103 275.547 107.111C275.802 107.231 276.057 107.358 276.312 107.508L291.881 116.495C292.151 116.652 292.413 116.817 292.676 116.997C292.691 117.012 292.713 117.027 292.728 117.034C292.968 117.207 293.208 117.387 293.44 117.574C293.463 117.597 293.493 117.612 293.515 117.634C293.748 117.829 293.98 118.031 294.205 118.249C294.22 118.264 294.235 118.279 294.257 118.294C294.497 118.519 294.729 118.758 294.954 119.006C294.954 119.013 294.969 119.021 294.977 119.028C295.194 119.268 295.412 119.515 295.622 119.77C295.644 119.8 295.666 119.823 295.689 119.853C295.876 120.093 296.064 120.332 296.244 120.58C296.296 120.655 296.349 120.73 296.401 120.805C296.529 120.984 296.648 121.164 296.768 121.344C296.866 121.487 296.956 121.637 297.046 121.786C297.151 121.959 297.256 122.131 297.353 122.304C297.406 122.394 297.458 122.484 297.51 122.581C297.653 122.843 297.795 123.106 297.923 123.375C297.938 123.398 297.945 123.428 297.96 123.45C298.11 123.758 298.245 124.065 298.38 124.38C298.507 124.695 298.627 125.009 298.74 125.324C298.747 125.347 298.755 125.369 298.762 125.399C298.867 125.714 298.972 126.029 299.055 126.344C299.055 126.351 299.055 126.359 299.055 126.374C299.137 126.681 299.212 126.996 299.28 127.303C299.28 127.333 299.287 127.355 299.295 127.385C299.355 127.7 299.407 128.008 299.452 128.322C299.452 128.322 299.452 128.33 299.452 128.337C299.489 128.645 299.519 128.952 299.527 129.252C299.527 129.274 299.527 129.297 299.527 129.319C299.542 129.627 299.542 129.926 299.527 130.226L296.993 151.003L300.247 179.08L292.188 183.765L289.227 219.772L300.269 213.356L302.308 188.562L312.45 182.671L312.375 182.686Z" fill="#F25F0A"/>
<path d="M291.811 116.525C296.211 119.066 299.704 125.325 299.464 130.242L296.931 151.018L301.338 189.102L292.118 183.78L289.157 219.788L278.303 213.522L275.552 174.216L266.332 168.895L270.942 136.02L268.528 112.388C268.326 107.209 271.834 104.997 276.234 107.538L291.803 116.525H291.811Z" fill="#FFB68C"/>
<path d="M284.109 82.5494C289.873 85.8773 294.536 93.9422 294.513 100.568C294.491 107.194 289.806 109.862 284.041 106.534C278.277 103.206 273.622 95.1415 273.637 88.5156C273.659 81.8898 278.344 79.2215 284.109 82.5494Z" fill="#FFB68C"/>
<text fill="#114178" style="white-space: pre" xml:space="preserve" font-family="Noto Sans JP" font-size="37.5794" font-weight="bold" letter-spacing="0.06em"><tspan x="393.82" y="206.532">&#x540d;</tspan></text>
<text fill="#114178" style="white-space: pre" xml:space="preserve" font-family="Noto Sans JP" font-size="34.1631" font-weight="bold" letter-spacing="0.06em"><tspan x="336.675" y="98.8951">&#x5973;&#x6027;</tspan></text>
<text fill="#114178" style="white-space: pre" xml:space="preserve" font-family="Antonio" font-size="102.489" font-weight="bold" letter-spacing="-0.03em"><tspan x="335.925" y="209.077">4</tspan></text>
</svg>
