<svg width="473" height="280" viewBox="0 0 473 280" fill="none" xmlns="http://www.w3.org/2000/svg">
<rect width="472.5" height="280" fill="#E7EBF4"/>
<path d="M442.182 131.01L442.162 138.086C442.153 141.554 439.874 145.015 435.321 147.663L435.34 140.586C439.894 137.942 442.172 134.477 442.182 131.01Z" fill="#F25F0A"/>
<path d="M244.79 136.095L244.77 143.171C243.69 141.648 243.106 140.038 243.016 138.418L243.035 131.342C243.125 132.961 243.71 134.571 244.79 136.095Z" fill="#F25F0A"/>
<path d="M243.032 131.344L243.013 138.42C243.003 138.266 243 138.112 243 137.954L243.019 130.878C243.019 131.032 243.022 131.186 243.032 131.344Z" fill="#F25F0A"/>
<path d="M435.348 140.586L359.558 184.632C356.977 186.13 353.944 187.209 350.711 187.862C348.034 188.405 345.219 188.659 342.41 188.62L342.391 195.697C345.199 195.732 348.014 195.478 350.691 194.938C353.924 194.283 356.961 193.206 359.538 191.708L435.328 147.663C439.882 145.018 442.16 141.554 442.17 138.086L442.189 131.01C442.18 134.477 439.901 137.938 435.348 140.586Z" fill="#F25F0A"/>
<path d="M326.255 184.633L249.97 140.587C249.826 140.503 249.684 140.42 249.543 140.333C249.495 140.304 249.45 140.275 249.405 140.246C249.312 140.188 249.222 140.134 249.132 140.076C249.077 140.041 249.026 140.005 248.971 139.97C248.891 139.918 248.81 139.867 248.733 139.812C248.679 139.774 248.624 139.738 248.569 139.7C248.495 139.648 248.418 139.597 248.348 139.546C248.293 139.507 248.238 139.465 248.184 139.427C248.113 139.375 248.042 139.327 247.975 139.276C247.92 139.234 247.865 139.192 247.811 139.15C247.747 139.099 247.679 139.051 247.615 138.999C247.56 138.958 247.509 138.913 247.454 138.871C247.393 138.823 247.329 138.771 247.271 138.723C247.22 138.678 247.168 138.636 247.117 138.591C247.059 138.54 246.998 138.492 246.94 138.44C246.889 138.395 246.84 138.35 246.789 138.305C246.731 138.254 246.676 138.206 246.622 138.154C246.574 138.109 246.525 138.061 246.477 138.016C246.423 137.965 246.371 137.916 246.32 137.865C246.272 137.82 246.227 137.772 246.182 137.727C246.13 137.675 246.079 137.624 246.03 137.572C245.985 137.527 245.944 137.479 245.899 137.431C245.851 137.38 245.802 137.328 245.754 137.277C245.709 137.229 245.671 137.18 245.626 137.132C245.581 137.081 245.532 137.029 245.487 136.978C245.446 136.93 245.407 136.882 245.365 136.833C245.323 136.782 245.279 136.73 245.237 136.676C245.198 136.628 245.16 136.576 245.121 136.528C245.079 136.477 245.037 136.422 244.999 136.371C244.96 136.322 244.925 136.271 244.89 136.223C243.643 134.516 243.019 132.694 243.026 130.872L243 137.955C242.994 139.729 243.585 141.503 244.764 143.171C244.796 143.216 244.832 143.261 244.864 143.306C244.899 143.354 244.935 143.402 244.97 143.453C245.009 143.508 245.054 143.559 245.092 143.611C245.131 143.659 245.166 143.707 245.205 143.755C245.246 143.807 245.291 143.861 245.336 143.913C245.375 143.961 245.417 144.009 245.455 144.058C245.5 144.109 245.548 144.164 245.593 144.215C245.635 144.263 245.677 144.308 245.719 144.356C245.767 144.408 245.815 144.459 245.867 144.514C245.912 144.559 245.953 144.607 245.998 144.652C246.047 144.703 246.101 144.755 246.149 144.806C246.194 144.851 246.243 144.899 246.288 144.944C246.339 144.996 246.394 145.044 246.445 145.096C246.493 145.141 246.541 145.189 246.59 145.234C246.644 145.285 246.702 145.333 246.757 145.385C246.808 145.43 246.856 145.475 246.908 145.52C246.966 145.571 247.027 145.619 247.085 145.671C247.136 145.716 247.187 145.758 247.239 145.803C247.3 145.854 247.364 145.902 247.425 145.954C247.477 145.995 247.531 146.04 247.583 146.082C247.647 146.134 247.714 146.182 247.779 146.233C247.833 146.275 247.885 146.317 247.939 146.355C248.007 146.407 248.078 146.455 248.148 146.506C248.203 146.545 248.258 146.587 248.312 146.625C248.386 146.677 248.46 146.728 248.534 146.779C248.589 146.818 248.64 146.853 248.698 146.892C248.775 146.943 248.855 146.998 248.936 147.049C248.99 147.085 249.042 147.12 249.096 147.155C249.186 147.213 249.279 147.271 249.369 147.326C249.414 147.355 249.459 147.384 249.508 147.413C249.649 147.496 249.79 147.583 249.935 147.666L326.22 191.709C330.7 194.296 336.516 195.626 342.365 195.7L342.384 188.624C336.535 188.55 330.716 187.22 326.239 184.633H326.255Z" fill="#F25F0A"/>
<path d="M435.234 121.303C444.457 126.628 444.505 135.263 435.343 140.588L359.554 184.634C350.388 189.959 335.484 189.959 326.261 184.634L249.973 140.588C240.75 135.263 240.701 126.628 249.863 121.303L325.653 77.2574C334.818 71.9324 349.723 71.9324 358.946 77.2574L435.231 121.3L435.234 121.303Z" fill="white"/>
<path d="M418.753 130.58C418.753 130.58 422.487 136.554 425.453 138.145C425.453 138.145 425.836 139.681 424.688 139.9C423.541 140.118 419.9 139.35 419.9 139.35L417.22 136.827C417.22 136.827 416.503 137.759 415.305 137.046C414.109 136.332 413.582 135.256 413.582 135.256V131.017L418.753 130.58Z" fill="#243D59"/>
<path d="M408.888 138.047L411.436 145.236C411.436 145.236 412.188 146.499 410.742 146.984C409.293 147.469 407.496 146.936 406.455 145.817C405.411 144.699 405.53 143.973 405.53 143.973L404.254 143.68V138.532L408.888 138.047Z" fill="#243D59"/>
<path d="M430.943 64.3275C430.943 64.3275 427.431 60.5098 430.265 59.806C430.265 59.806 430.32 58.6876 430.844 58.2217C431.368 57.7525 433.627 56.8848 434.919 58.8387L434.045 65.3719L430.943 64.3307V64.3275Z" fill="#F8CCB5"/>
<path d="M414.57 64.8838C414.57 64.8838 416.858 62.9043 419.359 65.2534C421.856 67.6058 427.836 74.1583 427.836 74.1583C427.836 74.1583 429.093 67.2426 430.127 63.9326L434.79 65.337C434.79 65.337 432.236 80.2385 429.006 81.736C429.006 81.736 425.284 79.6247 420.583 74.2226C415.881 68.8205 414.583 69.5564 414.574 64.8806L414.57 64.8838Z" fill="#558BBF"/>
<path d="M411.348 94.5794C411.348 94.5794 415.709 95.0968 418.961 92.6191C418.961 92.6191 420.661 109.735 419.848 117.939C419.035 126.144 419.404 131.838 419.404 131.838C419.404 131.838 415.635 133.76 413.343 132.725L411.348 94.5794Z" fill="#558BBF"/>
<path d="M418.962 92.6191C418.962 92.6191 417.269 99.8273 414.595 100.444C413.274 106.123 414.071 113.302 412.522 116.233C412.522 116.233 408.492 135.216 409.527 139.503C409.527 139.503 406.702 141.296 403.91 140.325C403.91 140.325 403.135 121.24 405.574 115.41C405.574 115.41 403.801 105.631 404.983 94.8526L418.962 92.6191Z" fill="#558BBF"/>
<path d="M404.383 91.9552C404.383 91.9552 411.784 95.2299 419.522 89.7764V91.3543C419.522 91.3543 411.842 96.4125 404.383 93.5427V91.9552Z" fill="white"/>
<path d="M408.077 63.9176C408.077 63.9176 405.194 66.3374 403.848 67.9346L404.291 91.9499C404.291 91.9499 412.084 97.4323 419.157 90.8541L419.893 75.1845C419.893 75.1845 416.805 64.6696 415.407 62.8057L408.074 63.9208L408.077 63.9176Z" fill="white"/>
<path d="M410.098 57.8936C410.04 58.0382 409.281 63.3663 409.281 63.3663C409.281 63.3663 409.339 65.8119 413.356 66.5093C413.356 66.5093 414.111 66.159 414.928 64.369L414.404 58.3595L410.094 57.8936H410.098Z" fill="#F8CCB5"/>
<path d="M413.967 67.5066V65.8291L412.512 66.1601L413.283 67.5034L414.398 76.3087L416.471 81.2448L417.255 75.8716L413.967 67.5066Z" fill="#F25F0A"/>
<path d="M409.277 62.8018C409.277 62.8018 411.976 65.8226 413.082 66.025L411.844 67.8021L408.223 63.8044L409.277 62.8018Z" fill="#F2F2F2"/>
<path d="M414.76 62.9078C414.76 62.9078 415.171 65.0577 413.535 65.9286L414.975 67.0662L415.389 62.8018L414.76 62.911V62.9078Z" fill="#F2F2F2"/>
<path d="M418.319 64.6335C417.432 63.7337 415.413 62.8018 415.413 62.8018L414.764 63.2806C417.792 72.208 416.307 79.2747 416.307 79.2747C414.832 77.218 408.491 63.5698 408.491 63.5698C405.535 65.3116 401.637 70.0934 401.637 70.0934C401.637 70.0934 402.553 99.3855 402.591 99.1927C402.63 98.9999 415.918 100.854 415.918 100.854L417.47 97.5152L419.72 99.6105L422.127 97.1264C422.127 97.1264 419.909 66.2435 418.319 64.6303V64.6335Z" fill="#558BBF"/>
<path d="M408.487 63.5723L416.602 79.9103L410.084 72.3037L410.55 71.0246H409.075L407.559 64.5813L408.487 63.5723Z" fill="#558BBF"/>
<path d="M414.77 63.2845C414.77 63.2845 417.646 72.8707 416.344 79.375C416.344 79.375 418.179 73.0378 418.407 69.9527L417.578 69.6378L418.182 69.0143C418.182 69.0143 415.811 64.255 414.77 63.2812V63.2845Z" fill="#558BBF"/>
<path d="M417.371 54.3507C417.371 54.3507 417.814 59.862 417.371 60.8872C416.927 61.9123 414.588 63.2524 414.588 63.2524L410.063 60.2348C410.063 60.2348 408.852 60.4855 408.087 58.4673C407.322 56.4492 409.234 55.6008 410.14 56.5745C410.14 56.5745 412.158 47.3964 417.374 54.3507H417.371Z" fill="#F8CCB5"/>
<path d="M408.991 59.8874C408.991 59.8874 408.101 59.2704 408.728 57.7793C409.563 55.7901 410.704 58.1007 410.704 58.1007L410.817 55.4687L414.136 55.9893L412.825 54.6974C412.825 54.6974 413.641 55.3145 415.589 55.4687C417.536 55.623 418.603 53.9262 418.603 53.9262H417.347L418.603 51.9209C418.603 51.9209 417.723 52.8464 416.845 51.9209C415.968 50.9954 412.07 48.0646 409.808 49.2986C407.545 50.5326 408.361 51.4581 408.361 51.4581C408.361 51.4581 406.543 52.6247 406.793 54.7039C407.044 56.7799 407.661 59.7332 408.988 59.8906L408.991 59.8874Z" fill="#243D59"/>
<path d="M404.906 90.5664C405.176 90.6596 409.601 93.5358 409.601 93.5358L408.357 96.7558L405.089 96.5116L404.838 94.8148C404.838 94.8148 403.103 94.8598 402.801 91.6944L404.906 90.5664Z" fill="#F8CCB5"/>
<path d="M404.808 89.163L400.123 83.3013L406.595 74.3482C406.595 74.3482 407.61 69.9134 404.811 69.1261C402.012 68.3387 398.763 72.9214 397.616 75.0295C396.469 77.1408 393.66 82.3019 393.66 82.3019C393.66 82.3019 398.301 90.0981 399.843 90.4613L401.325 92.4473L405.811 90.3456L404.808 89.1597V89.163Z" fill="#558BBF"/>
<path d="M323.975 172.162L257.02 132.879V87.2969L379.866 100.55V139.753L323.975 172.162Z" fill="#9CDBDC"/>
<path d="M309.535 137.866L317.695 142.529V135.031L309.535 130.365V137.866Z" fill="#E7EBF4"/>
<path d="M294.527 129.286L302.68 133.953V126.458L294.527 121.789V129.286Z" fill="#E7EBF4"/>
<path d="M309.535 155.598L317.695 160.264V152.763L309.535 148.094V155.598Z" fill="#E7EBF4"/>
<path d="M294.527 147.022L302.68 151.688V144.191L294.527 139.524V147.022Z" fill="#E7EBF4"/>
<path d="M262.52 136.127L278.009 145.199V121.515L262.52 112.613V136.127Z" fill="#E7EBF4"/>
<path d="M373.216 143.681L357.727 152.576V131.267L373.216 122.5V143.681Z" fill="#E7EBF4"/>
<path d="M338.277 137.866L330.117 142.529V135.031L338.277 130.365V137.866Z" fill="#E7EBF4"/>
<path d="M353.277 129.286L345.121 133.953V126.458L353.277 121.789V129.286Z" fill="#E7EBF4"/>
<path d="M255.246 87.8581L323.998 127.395L381.637 100.716L312.84 61.3555L255.246 87.8581Z" fill="#558BBF"/>
<text fill="#F25F0A" style="white-space: pre" xml:space="preserve" font-family="Antonio" font-size="204.717" font-weight="bold" letter-spacing="0em"><tspan x="31" y="224.929">28</tspan></text>
<text fill="#F25F0A" style="white-space: pre" xml:space="preserve" font-family="Noto Sans JP" font-size="51.1794" font-weight="bold" letter-spacing="0.06em"><tspan x="231.453" y="218.837">&#x540d;</tspan></text>
</svg>
