<svg width="542" height="700" viewBox="0 0 542 700" fill="none" xmlns="http://www.w3.org/2000/svg">
<path d="M276.783 402.091L271.956 416.878L303.771 438.434L306.478 441.636L293.747 440.606L288.57 453.387L291.323 458.263L293.588 456.237L304.92 467.111L309.469 467.35V464.308L315.359 461.989L314.389 457.745L329.722 458.974L335.526 467.935L344.909 464.155L350.099 453.334V444.04L354.702 437.916L325.066 408.694L324.485 400.497L306.247 392.187L305.045 395.05L289.442 387.105L286.873 389.005L292.796 393.701L276.783 402.091Z" fill="#E6E6D3" fill-opacity="0.8"/>
<path d="M244.969 501.98L247.841 499.09L256.478 501.535L259.086 507.567L268.734 509.845L267.103 494.188L270.708 491.544L273.977 494.161L277.199 485.34L236.411 473.309L241.462 465.378L238.062 455.679L209.727 447.728L206.881 452.205L212.091 458.649L211.074 472.333L202.972 471.011L209.78 484.137L216.693 483.539L220.728 500.784L216.944 504.205L225.971 512.901L210.81 523.994L217.42 537.307H222.537L243.839 516.86L249.049 515.903L247.907 507.899L244.969 501.98Z" fill="#E6E6D3" fill-opacity="0.8"/>
<path d="M213.537 531.094L212.052 546.021L208.975 546.811L209.807 555.859L197.498 564.362L201.612 573.402H204.623L209.298 579.667L209.305 579.647L214.733 581.719L218.358 576.857L227.325 587.06L236.649 571.423L250.172 579.627H259.06L263.432 585.419L272.703 579.846L262.23 557.619L251.163 562.502L247.789 558.914L242.348 567.716L230.204 558.323L221.131 543.576L222.247 538.023H216.984L213.537 531.094Z" fill="#E6E6D3" fill-opacity="0.8"/>
<path d="M249.75 520.845L249.149 516.614L244.176 517.524L223.006 537.844L221.884 543.437L230.778 557.892L242.156 566.667L247.67 557.753L251.334 561.645L262.58 556.683L264.567 560.901L277.239 555.481L270.385 530.039L260.559 527.475L249.75 520.845Z" fill="#E6E6D3" fill-opacity="0.8"/>
<path d="M325.753 408.368L337.883 420.332L349.32 413.762L376.334 406.289V393.196L361.464 392.273L364.363 387.071L364.508 387.058L387.045 383.929L391.72 372.55L380.976 373.879L374.915 362.539L344.771 365.808L336.365 349.081L332.482 356.521L328.117 356.714V366.95L316.647 367.349L306.524 391.522L325.165 400.018L325.753 408.368Z" fill="#E6E6D3" fill-opacity="0.8"/>
<path d="M195.82 578.863L186.133 569.118L185.156 554.331L177.318 543.882L168.218 544.945L166.521 538.76L170.714 533.586L157.68 523.01V530.072L147.233 534.197L141.739 549.01L133.776 550.179L132.039 564.116L148.389 571.669L166.211 590.375L182.706 582.583L197.867 580.218L195.866 578.81L195.82 578.863Z" fill="#E6E6D3" fill-opacity="0.8"/>
<path d="M298.574 319.514L296.586 327.764L306.121 335.908L301.789 349.878L307.29 360.453L316.508 366.638L327.403 366.259V356.023L332.039 355.823L336.371 347.513L345.186 365.044L375.31 361.775L381.372 373.108L392.155 371.773L392.162 371.839H393.938L400.238 363.204L405.553 365.774L418 352.256L379.662 326.867L373.323 330.474V318.929L370.45 313.635L363.365 315.608L354.312 288.12H344.123L340.28 279.683L337.315 286.027L327.476 280.666L324.61 282.307L330.778 291.614L321.097 299.512L303.579 299.479L312.903 315.388L298.574 319.514Z" fill="#E6E6D3" fill-opacity="0.8"/>
<path d="M247.841 437.137L243.173 428.362L256.908 430.182L276.367 452.017L262.481 470.63L301.618 474.244L301.136 469.361L296.105 464.552L293.774 465.07L288.438 460.839L290.782 458.746L287.785 453.438L293.285 439.847L304.828 440.784L303.263 438.93L271.111 417.169L276.202 401.591L291.496 393.573L286.279 389.441L280.072 394.038L255.917 384.811L240.366 362.598L233.459 365.607L225.1 362.87L213.128 372.243L216.819 382.001L208.552 394.676L207.304 409.277L199.545 417.733L209.846 447.015L224.38 451.094L247.841 437.137Z" fill="#E6E6D3" fill-opacity="0.8"/>
<path d="M309.885 532.769L283.895 533.553L283.855 533.546L271.177 530.245L278.942 559.055L287.533 562.814L299.227 547.516L309.799 548.951L311.212 552.013L320.549 546.314L309.885 532.769Z" fill="#E6E6D3" fill-opacity="0.8"/>
<path d="M173.211 423.72L173.066 423.906L155.791 446.425L150.608 448.544L145.966 487.896L150.192 491.138L145.999 496.765L157.614 522.08L171.719 533.473L167.308 538.927L168.741 544.161L177.642 543.125L185.85 554.066L186.827 568.806L196.131 578.159L200.951 573.669L196.6 564.11L209.06 555.507L208.208 546.274L211.398 545.45L212.943 529.892L209.899 523.774L224.868 512.82L215.895 504.191L219.936 500.531L216.145 484.309L209.364 484.894L201.691 470.074L210.42 471.502L211.358 458.874L206.003 452.258L209.179 447.262L198.891 418.027L175.958 419.336L172.405 415.131L173.026 411.67L168.608 415.383L173.211 423.72Z" fill="#E6E6D3" fill-opacity="0.8"/>
<path d="M144.282 412.978L131.326 418.027L118.793 415.17L114.746 406.927L103.421 416.054L107.574 421.368L110.995 434.076L116.211 436.66L115.815 444.817L120.576 450.006L116.297 458.615L111.55 460.661L111.952 451.407H107.588V465.523L110.916 471.469L126.77 465.244L147.412 469.562L149.954 448.046L155.342 445.834L164.013 434.534L145.246 429.678L144.282 412.978Z" fill="#E6E6D3" fill-opacity="0.8"/>
<path d="M403.189 539.352L405.428 532.59L396.784 526.419H403.394V522.087L392.175 509.346L396.315 506.118L394.81 499.814L389.659 494.227L391.119 489.949L388.332 479.454L388.319 479.474L381.069 473.276L357.739 476.444L354.563 465.53L358.565 460.927L350.575 453.992L345.431 464.72L335.248 468.819L329.319 459.665L315.3 458.535L316.105 462.063L316.066 462.069L331.947 481.447L331.953 481.533L333.498 495.018L338.966 497.635L338.992 497.775L341.594 510.057L363.51 542.109L368.179 557.487L378.308 563.605L384.707 560.297L382.924 547.151H389.745L394.81 552.618L399.518 544.454L396.599 542.116L403.189 539.352Z" fill="#E6E6D3" fill-opacity="0.8"/>
<path d="M105.223 471.495L106.88 465.57V450.69H112.691L112.308 459.551L115.782 458.057L119.717 450.125L115.088 445.083L115.478 437.098L110.387 434.574L106.907 421.621L100.944 414.048L94.3605 417.794V423.886L78.8296 422.298L75.4355 426.762L82.5671 436.202L80.6786 445.488L76.8751 443.476L77.1128 463.105L86.2913 465.696L86.364 465.769L97.3849 477.786V469.695L105.223 471.495Z" fill="#E6E6D3" fill-opacity="0.8"/>
<path d="M288.88 508.801L296.771 512.508L316.653 512.249L327.377 497.349L319.777 490.5L321.811 488.454L301.922 477.281L301.69 474.969L261.146 471.229L275.442 452.058L256.55 430.861L244.453 429.253L248.792 437.404L225.33 451.361L238.609 455.087L242.248 465.47L237.52 472.89L278.13 484.867L274.307 495.343L270.688 492.447L267.855 494.526L269.466 510.017L281.022 512.754L288.88 508.801Z" fill="#E6E6D3" fill-opacity="0.8"/>
<path d="M69.486 502.371L69.5058 502.192L72.6225 474.398L65.0882 466.068L58.1878 469.834L51.4986 458.94L41.3032 461.551L42.9144 471.581L34.5612 468.665L34.0264 474.757L46.9292 491.125L49.062 490.513L58.2472 512.043L61.2055 515.61L75.5148 508.051L69.486 502.371Z" fill="#E6E6D3" fill-opacity="0.8"/>
<path d="M9.38965 471.482L20.2653 496.705L36.6876 501.308L40.5241 492.965L46.1897 491.337L33.4652 475.202L9.38965 471.482Z" fill="#E6E6D3" fill-opacity="0.8"/>
<path d="M125.383 561.041L131.359 563.797L133.136 549.555L141.218 548.366L146.679 533.646L156.973 529.587V522.386L145.173 496.678L149.201 491.278L145.206 488.222L145.233 488.016L147.326 470.28L126.83 465.988L110.599 472.365L107.343 466.546L105.725 472.339L98.0986 470.592V478.563L117.01 499.169L115.439 506.902L120.972 517.078L127.305 518.726L121.19 531.852L109.892 535.592L106.815 542.248L109.971 567.657L111.979 568.288L117.03 561.007L125.383 561.041Z" fill="#E6E6D3" fill-opacity="0.8"/>
<path d="M109.377 535.008L120.675 531.268L126.295 519.204L120.497 517.696L114.686 507.015L116.238 499.389L85.9089 466.327L65.5179 460.581V465.477L73.3626 474.159L70.2327 502.092L76.7303 508.217L61.6748 516.168L102.457 565.312L109.225 567.425L106.088 542.135L109.377 535.008Z" fill="#E6E6D3" fill-opacity="0.8"/>
<path d="M102.813 386.434L95.3252 403.154L101.942 410.66L101.42 413.49L102.985 415.489L114.99 405.811L119.282 414.546L131.273 417.283L144.936 411.956L145.926 429.114L164.488 433.917L172.359 423.66L167.697 415.217L173.224 410.574L177.087 389.038L173.99 387.304L170.603 389.855L167.334 375.672L167.347 375.599L170.457 356.415L163.821 341.442H168.12L163.174 330.787L140.241 337.523L140.148 337.469L131.524 332.341L129.24 337.323L128.018 346.769L127.86 346.816L105.481 353.246L105.078 372.278L100.575 374.005L102.86 386.334L102.813 386.434Z" fill="#E6E6D3" fill-opacity="0.8"/>
<path d="M33.9343 467.688L42.0167 470.511L40.4979 461.019L51.8292 458.116L58.439 468.884L64.8046 465.403V459.63L76.4 462.905L76.149 442.286L80.1704 444.412L81.8081 436.374L70.7542 421.746L66.8913 424.277V429.591L62.8963 432.268L57.9372 423.945L60.7502 411.197L19.0042 433.179L11.3378 427.087L0 431.478L4.76097 460.74L9.0531 470.704L33.34 474.457L33.9343 467.688Z" fill="#E6E6D3" fill-opacity="0.8"/>
<path d="M58.6963 423.827L63.1271 431.254L66.1778 429.208V423.887L70.919 420.785L74.9932 426.172L78.5061 421.542L93.6541 423.096V417.377L100.72 413.358L101.175 410.873L94.4861 403.281L102.119 386.248L99.8413 373.953L99.8876 373.946L87.8696 362.68L74.8017 369.455L68.4493 380.629L72.0745 389.942L72.0283 390.042L62.3215 410.375L62.2489 410.415L61.4697 410.82L61.5621 410.847L58.6963 423.827Z" fill="#E6E6D3" fill-opacity="0.8"/>
<path d="M227.067 614.855L221.646 620.309L204.286 619.439L203.381 624.328L216.739 642.562L245.51 630.014L246.93 623.311L227.067 614.855Z" fill="#E6E6D3" fill-opacity="0.8"/>
<path d="M375.318 576.087L375.199 576.067L362.573 573.955L362.507 573.882L352.635 562.901L334.331 555.381L329.154 559.812L329.029 559.799L309.787 557.215L310.057 566.747L306.346 563.32L306.076 555.155L310.605 552.392L309.318 549.609L299.545 548.28L287.758 563.692L278.348 559.58L277.431 556.178L264.871 561.546L273.627 580.126L263.867 585.992L266.727 589.778L261.101 602.472L285.744 616.223L295.022 614.124L299.102 604.372L302.232 608.517L321.752 599.104V608.444L329.96 602.977L359.734 594.634L377.318 604.193L373.541 589.957L383.149 575.908L379.854 572.54L375.318 576.087Z" fill="#E6E6D3" fill-opacity="0.8"/>
<path d="M147.92 572.215L125.158 561.726H117.4L112.691 568.508L116.68 569.757L116.191 583.508L142.967 601.178L154.371 578.984L147.92 572.215Z" fill="#E6E6D3" fill-opacity="0.8"/>
<path d="M420.814 589.651L430.871 591.724L432.852 584.503L425.417 574.187L418.853 571.543L418.807 571.423L415.063 561.193L418.523 559.699L400.08 544.905L394.943 553.813L389.435 547.861H383.737L385.48 560.702L378.705 564.203L380.184 571.868L380.191 571.862L383.558 575.303L384.463 573.981L421.329 603.243L416.106 594.102L420.814 589.651Z" fill="#E6E6D3" fill-opacity="0.8"/>
<path d="M215.478 610.085V605.92L206.082 596.673V585.991L198.712 580.816L182.871 583.281L166.053 591.245L154.893 579.534L143.568 601.568L145.688 602.97L153.5 602.99L202.74 623.875L204.167 616.169L215.478 610.085Z" fill="#E6E6D3" fill-opacity="0.8"/>
<path d="M302.014 609.413L299.28 605.786L295.529 614.741L285.631 616.979L285.512 616.913L260.664 603.043L245.602 613.877L242.65 620.712L247.742 622.878L246.236 630.019L256.53 633.786L276.472 623.018L292.518 627.907L321.038 608.915V600.239L302.014 609.413Z" fill="#E6E6D3" fill-opacity="0.8"/>
<path d="M164.917 342.16L171.197 356.322L168.06 375.646L171.052 388.627L173.931 386.454L177.879 388.66L173.165 414.926L176.268 418.599L198.97 417.304L206.617 408.974L207.904 394.359L216.02 381.917L212.276 372.006L224.961 362.075L228.995 363.39L230.118 357.518L221.256 351.374L233.261 324.842L231.26 317.329L231.036 317.648H217.915L210.684 310.381L196.87 313.556L194.83 321.368L176.374 315.31V326.908L176.196 326.961L163.867 330.581L169.236 342.16H164.917Z" fill="#E6E6D3" fill-opacity="0.8"/>
<path d="M395.999 94.879L405.594 105.833L405.6 105.953L407.436 128.924L403.197 133.48L427.616 139.725L434.391 135.261L479.762 144.189L485.487 128.831L487.441 114.628L488.399 112.257L468.945 110.231L446.547 98.0609L460.718 80.8626L427.1 50.4849L422.24 39.7036L410.13 44.626L411.616 50.0864L395.999 94.879Z" fill="#E6E6D3" fill-opacity="0.8"/>
<path d="M393.568 280.98L387.335 291.29V299.68L371.064 313.278L374.029 318.838V329.247L379.688 326.032L418.654 351.833H423.897V351.846L435.849 340.746L436.813 326.696L428.856 302.284L409.7 296.007L393.568 280.98Z" fill="#E6E6D3" fill-opacity="0.8"/>
<path d="M403.593 262.087L407.383 261.456L405.733 255.531L384.774 256.986L376.328 264.153L362.204 256.374L362.157 256.295L359.919 252.608L340.578 250.98L339.297 258.699L327.906 263.914L328.804 266.784L335.295 267.043L344.58 287.403H354.828L363.828 314.738L370.458 312.892L386.629 299.34V291.09L393.417 279.863L398.627 284.719L398.654 273.819L403.593 262.087Z" fill="#E6E6D3" fill-opacity="0.8"/>
<path d="M405.719 366.644L400.463 364.1L394.46 372.337L394.447 372.323L393.259 389.309L390.373 391.907L393.318 395.806L407.654 398.662L406.822 379.425L406.842 379.371L410.414 370.184L419.652 368.743L423.555 352.548H418.708L405.719 366.644Z" fill="#E6E6D3" fill-opacity="0.8"/>
<path d="M389.838 392.386L388.128 393.934L377.048 393.243V406.835L349.552 414.441L338.412 420.858L355.647 437.85L350.813 444.28L350.78 453.221L359.569 460.861L355.356 465.703L358.255 475.654L381.287 472.526L388.267 478.491V469.251L393.259 477.567L398.72 502.923L404.98 507.952L407.397 513.146L430.964 500.339L423.7 483.4L408.605 420.705L407.681 399.395L392.909 396.458L389.838 392.386Z" fill="#E6E6D3" fill-opacity="0.8"/>
<path d="M418.41 260.352L404.101 262.73L399.34 274.03V285.376L410.123 295.42L428.81 301.511L432.237 269.865H424.617L418.41 260.352Z" fill="#E6E6D3" fill-opacity="0.8"/>
<path d="M435.46 588.423L431.339 595.052L428.665 608.252L424.366 605.807L439.184 629.941L479.121 647.092L479.154 647.205L484.965 668.17L527.146 699.876L541.429 697.957V692.981L531.782 690.072L531.736 689.985L474.862 594.641L468.859 593.631L470.734 587.652L443.166 591.379L435.46 588.423Z" fill="#E6E6D3" fill-opacity="0.8"/>
<path d="M418.113 536.217L415.314 539.027L423.759 546.493L427.457 559.786L425.39 565.512L437.936 584.444L435.85 587.805L443.245 590.642L470.973 586.902L471.824 584.172L458.757 565.186L431.247 500.997L407.693 513.797L418.113 536.217Z" fill="#E6E6D3" fill-opacity="0.8"/>
<path d="M284.192 289.834L303.051 298.795H320.847L329.827 291.468L323.6 282.062L327.463 279.843L336.992 285.038L339.891 278.833L334.833 267.746L328.276 267.481L321.969 247.399L300.106 230.055L280.342 245.745L269.374 242.072L264.58 245.539L265.855 247.791L265.723 247.924L253.665 260.007L240.016 286.665L239.613 296.33L264.138 298.788L284.192 289.834Z" fill="#E6E6D3" fill-opacity="0.8"/>
<path d="M427.747 140.497L402.635 134.08L399.314 137.647L397.531 147.12L403.064 156.659L392.116 171.432H388.147L399.532 189.547L413.081 185.396L421.058 188.159L415.531 212.253L426.803 242.318L410.863 255.179L410.75 255.185L406.458 255.477L408.089 261.343L418.747 259.576L425.007 269.148H432.31L432.455 267.84L447.537 228.189L466.522 187.056L470.418 172.349L470.471 172.296L478.665 164.537L479.629 144.894L434.542 136.019L427.747 140.497Z" fill="#E6E6D3" fill-opacity="0.8"/>
<path d="M300.72 134.664L325.832 152.194L329.253 146.9L335.136 152.281L345.239 147.956L349.743 139.168L339.89 126.001L342.426 117.22L351.552 123.431L355.573 122.002L355.408 113.772L359.806 110.278L364.673 112.968L363.24 87.8185H363.259L339.639 64.5486L321.54 62.5757L316.185 34.6559L295.734 29.7535L294.75 19.8756L278.652 3.86633L268.364 4.34462L260.975 15.1724L269.836 88.9344L264.19 96.2283L265.782 113.048L277.839 123.564L281.775 134.63L300.72 128.047V134.664Z" fill="#E6E6D3" fill-opacity="0.8"/>
<path d="M280.204 244.947L300.106 229.144L322.583 246.973L327.688 263.228L338.656 258.199L339.983 250.215L359.463 251.849L353.5 242.004L345.398 202.566L347.465 192.934L339.871 182.132L346.335 168.176L356.61 163.492L355.844 147.311L350.218 139.797L345.754 148.513L334.991 153.116L329.391 147.995L326.03 153.203L300.007 135.035V129.056L281.775 135.393L281.742 135.287L281.729 135.294L252.021 144.175L248.092 151.296L260.955 199.822L262.527 241.924L264.224 244.914L269.255 241.273L280.204 244.947Z" fill="#E6E6D3" fill-opacity="0.8"/>
<path d="M365.459 114.216L359.879 111.134L356.122 114.117L356.293 122.507L351.446 124.227L342.836 118.362L340.67 125.855L356.544 147.059L356.551 147.171L357.343 163.945L346.87 168.714L340.69 182.06L348.231 192.775L346.124 202.566L354.187 241.799L362.712 255.842L376.242 263.288L384.496 256.287L410.592 254.473L425.951 242.078L414.785 212.304L414.812 212.198L420.22 188.629L413.068 186.145L399.221 190.39L386.86 170.714H391.76L402.213 156.611L396.785 147.251L398.653 137.307L406.703 128.665L404.9 106.125L395.187 95.0385L395.259 94.8393L410.876 50.0599L409.463 44.8984L397.339 49.8208L384.179 70.8985L374.446 72.3666L363.913 87.7846L363.953 87.7779L365.459 114.216Z" fill="#E6E6D3" fill-opacity="0.8"/>
<path d="M260.354 602.386L265.908 589.877L258.704 580.345H249.974L236.893 572.406L227.43 588.263L218.397 577.993L214.977 582.583L209.298 580.411L206.756 585.891H206.795V596.367L216.192 605.621V610.516L204.801 616.634L204.418 618.727L221.369 619.577L226.902 614.011L241.991 620.434L245.028 613.413L260.354 602.386Z" fill="#E6E6D3" fill-opacity="0.8"/>
<path d="M427.715 50.1202L461.702 80.7901L447.65 97.8489L469.223 109.567L488.683 111.566L505.977 68.9792L506.109 68.9526L520.458 66.0696L517.137 50.7845L489.588 40.0895L480.323 41.5642L480.244 41.5177L450.179 23.4625L441.919 26.3986L431.532 21.4231L431.492 21.3501L420.398 0L410.54 3.30813L409.589 16.2816L422.696 39.2392L422.795 39.1927L427.715 50.1202Z" fill="#E6E6D3" fill-opacity="0.8"/>
<path d="M233.961 325.021L222.147 351.127L230.903 357.192L229.675 363.616L233.426 364.845L240.61 361.716L256.372 384.222L279.959 393.236L289.369 386.261L304.682 394.067L315.967 367.13L306.702 360.866L301.024 349.952L305.303 336.148L295.794 328.024L297.98 318.943L311.827 314.957L302.721 299.426L284.185 290.625L264.257 299.519L239.587 297.048L239.21 306.136L231.801 316.571L234.014 324.908L233.961 325.021Z" fill="#E6E6D3" fill-opacity="0.8"/>
<path d="M387.283 384.474L364.726 387.603L362.408 391.755L387.923 393.342L392.711 389.038L393.866 372.411H392.394L387.441 384.448L387.283 384.474Z" fill="#E6F3F1" fill-opacity="0.5"/>
<path d="M437.257 584.451L424.757 565.592L426.863 559.766L423.258 546.812L414.482 539.054L417.427 536.098L404.491 508.257L398.205 503.249L398.185 503.142L392.718 477.734L388.835 471.303V479.162L391.714 489.97L390.308 494.095L395.333 499.535L396.957 506.344L393.008 509.427L403.963 521.875V526.99H398.575L406.103 532.371L403.646 539.778L397.71 542.269L419.619 559.852L415.783 561.506L419.296 571.105L425.78 573.716L425.827 573.782L433.473 584.391L431.281 592.396L420.986 590.27L416.82 594.216L422.452 604.067L428.263 607.362L430.832 594.794L437.257 584.451Z" fill="#E6F3F1" fill-opacity="0.5"/>
<path d="M362.983 542.315L341.047 510.23L338.465 498.034L332.971 495.403L331.399 481.679L315.67 462.482L310.044 464.7V467.955L304.682 467.67L293.576 457.021L289.33 460.814L293.912 464.454L296.276 463.93L301.678 469.091L302.457 476.923L322.749 488.322L320.609 490.474L328.137 497.27L327.992 497.476L316.945 512.821L296.653 513.087L288.887 509.44L281.095 513.359L280.99 513.339L258.677 508.058L256.062 502.013L248.006 499.735L245.662 502.093L248.469 507.766L250.271 520.493L260.817 526.964L283.961 532.982L310.15 532.191L321.402 546.467L306.657 555.475L306.908 563.061L309.45 565.406L309.199 556.557L328.976 559.215L334.225 554.724L353.018 562.469L362.864 573.423L375.166 575.483L379.623 571.995L378.117 564.157L367.697 557.866L362.983 542.315Z" fill="#E6F3F1" fill-opacity="0.5"/>
<path d="M196.521 578.577L206.326 585.459L208.849 580.018L204.339 573.973H201.466L196.521 578.577Z" fill="#E6F3F1" fill-opacity="0.5"/>
</svg>
